<svg width="623" height="515" viewBox="0 0 623 515" fill="none" xmlns="http://www.w3.org/2000/svg">
<g clip-path="url(#clip0_1_296)">
<path d="M41.0031 417.463C63.6485 417.463 82.0063 399.091 82.0063 376.428C82.0063 353.764 63.6485 335.392 41.0031 335.392C18.3577 335.392 0 353.764 0 376.428C0 399.091 18.3577 417.463 41.0031 417.463Z" fill="url(#paint0_linear_1_296)"/>
<path d="M94.0753 103.454C103.457 103.454 111.063 95.8423 111.063 86.453C111.063 77.0637 103.457 69.4521 94.0753 69.4521C84.6935 69.4521 77.088 77.0637 77.088 86.453C77.088 95.8423 84.6935 103.454 94.0753 103.454Z" fill="url(#paint1_linear_1_296)"/>
<path d="M602.13 273.593C614.049 261.664 614.049 242.323 602.13 230.395C590.211 218.466 570.886 218.466 558.967 230.395C547.047 242.323 547.047 261.664 558.967 273.593C570.886 285.522 590.211 285.522 602.13 273.593Z" fill="url(#paint2_linear_1_296)"/>
<path opacity="0.8" d="M588.362 375.712C576.154 378.086 562.812 374.28 558.713 367.194C554.615 360.107 561.19 352.41 573.468 350.036C585.746 347.662 599.036 351.467 603.117 358.554C607.198 365.64 600.641 373.32 588.362 375.712Z" fill="#0C0F38"/>
<path opacity="0.8" d="M41.4915 515C59.5038 515 74.1056 506.56 74.1056 496.149C74.1056 485.738 59.5038 477.298 41.4915 477.298C23.4792 477.298 8.87732 485.738 8.87732 496.149C8.87732 506.56 23.4792 515 41.4915 515Z" fill="#0C0F38"/>
<path opacity="0.8" d="M97.8073 155.155C91.6856 156.341 85.0407 154.439 82.9827 150.896C80.9247 147.352 84.221 143.512 90.3427 142.325C96.4644 141.138 103.109 143.128 105.185 146.619C107.26 150.11 103.946 153.968 97.8073 155.155Z" fill="#0C0F38"/>
<g opacity="0.8" style="mix-blend-mode:lighten">
<path d="M206.254 20.0904C208.652 20.0904 210.597 18.1445 210.597 15.7442C210.597 13.3438 208.652 11.3979 206.254 11.3979C203.856 11.3979 201.911 13.3438 201.911 15.7442C201.911 18.1445 203.856 20.0904 206.254 20.0904Z" fill="#D4088C"/>
</g>
<g opacity="0.8" style="mix-blend-mode:lighten">
<path d="M130.003 463.718C132.902 463.718 135.253 461.366 135.253 458.464C135.253 455.563 132.902 453.21 130.003 453.21C127.104 453.21 124.753 455.563 124.753 458.464C124.753 461.366 127.104 463.718 130.003 463.718Z" fill="#D4088C"/>
</g>
<path d="M99.4121 435.25C99.4121 435.785 99.2536 436.308 98.9565 436.753C98.6595 437.198 98.2373 437.544 97.7433 437.749C97.2494 437.954 96.7058 438.008 96.1814 437.903C95.657 437.799 95.1753 437.541 94.7973 437.163C94.4192 436.784 94.1617 436.302 94.0574 435.777C93.9531 435.253 94.0067 434.709 94.2113 434.214C94.4159 433.72 94.7624 433.297 95.2069 433C95.6515 432.703 96.1741 432.544 96.7088 432.544C97.4258 432.544 98.1134 432.829 98.6203 433.337C99.1273 433.844 99.4121 434.532 99.4121 435.25Z" fill="#6EE8FC"/>
<path d="M557.458 335.566C557.458 336.119 557.294 336.659 556.988 337.118C556.681 337.577 556.245 337.935 555.735 338.146C555.225 338.358 554.664 338.413 554.123 338.305C553.582 338.198 553.085 337.932 552.694 337.541C552.304 337.15 552.038 336.653 551.931 336.111C551.823 335.569 551.878 335.008 552.089 334.497C552.301 333.987 552.658 333.551 553.117 333.244C553.576 332.937 554.116 332.773 554.667 332.773C555.034 332.773 555.397 332.846 555.735 332.986C556.074 333.126 556.382 333.332 556.641 333.591C556.9 333.851 557.105 334.159 557.246 334.497C557.386 334.836 557.458 335.199 557.458 335.566Z" fill="#6EE8FC"/>
<path d="M41.4915 147.178C41.4915 147.955 41.2614 148.714 40.8302 149.36C40.399 150.006 39.7861 150.509 39.0691 150.806C38.352 151.103 37.563 151.181 36.8018 151.03C36.0406 150.878 35.3414 150.504 34.7925 149.955C34.2437 149.406 33.87 148.706 33.7186 147.944C33.5672 147.182 33.6449 146.392 33.9419 145.675C34.2389 144.957 34.7419 144.344 35.3872 143.912C36.0325 143.481 36.7912 143.25 37.5674 143.25C38.6081 143.25 39.6062 143.664 40.3422 144.401C41.0781 145.137 41.4915 146.136 41.4915 147.178Z" fill="#6EE8FC"/>
<path d="M334.862 3.9273C334.865 4.70823 334.637 5.47262 334.206 6.12362C333.775 6.77463 333.161 7.28295 332.441 7.5842C331.721 7.88545 330.928 7.96606 330.162 7.81583C329.396 7.6656 328.692 7.29128 328.139 6.7403C327.586 6.18931 327.209 5.48646 327.056 4.72078C326.902 3.9551 326.979 3.16105 327.277 2.43922C327.575 1.71739 328.08 1.10027 328.729 0.666043C329.377 0.231811 330.14 7.64511e-06 330.92 1.89288e-10C331.963 -1.02121e-05 332.963 0.4132 333.701 1.14921C334.44 1.88523 334.857 2.88411 334.862 3.9273Z" fill="#6EE8FC"/>
<path d="M57.5544 138.468C57.5578 138.9 57.4329 139.324 57.1955 139.685C56.958 140.046 56.6188 140.328 56.2207 140.496C55.8227 140.664 55.3838 140.71 54.9598 140.627C54.5357 140.545 54.1456 140.339 53.839 140.034C53.5324 139.73 53.323 139.341 53.2375 138.917C53.1519 138.494 53.1941 138.054 53.3585 137.654C53.523 137.255 53.8024 136.913 54.1613 136.672C54.5202 136.432 54.9424 136.303 55.3743 136.303C55.9495 136.303 56.5014 136.531 56.9097 136.936C57.3181 137.342 57.5498 137.892 57.5544 138.468Z" fill="#6EE8FC"/>
<path d="M431.623 17.9609C431.623 18.4676 431.473 18.963 431.192 19.3846C430.911 19.8062 430.511 20.135 430.044 20.3297C429.577 20.5244 429.062 20.5762 428.565 20.4787C428.068 20.3811 427.611 20.1384 427.252 19.7813C426.893 19.4242 426.647 18.9687 426.547 18.4721C426.446 17.9755 426.494 17.4602 426.685 16.991C426.877 16.5219 427.203 16.12 427.622 15.836C428.041 15.5519 428.535 15.3985 429.041 15.3951C429.38 15.3928 429.715 15.4574 430.028 15.5854C430.341 15.7133 430.626 15.9019 430.866 16.1404C431.106 16.3789 431.296 16.6625 431.426 16.975C431.556 17.2874 431.623 17.6225 431.623 17.9609Z" fill="#D4088C"/>
<path d="M54.4848 275.993L53.543 272.625L61.0077 270.53L58.9148 263.059L62.2808 262.134L65.3155 272.956L54.4848 275.993Z" fill="#6EE1F8"/>
<path d="M47.8921 287.706L46.9678 284.337L54.415 282.242L52.3395 274.772L55.6881 273.829L58.7228 284.668L47.8921 287.706Z" fill="#6EE1F8"/>
<path d="M54.9034 283.935L51.8687 273.096L62.6994 270.059L63.6238 273.427L56.1591 275.522L58.252 282.993L54.9034 283.935Z" fill="#6EE1F8"/>
<path d="M312.468 26.2692C310.826 26.2692 309.221 25.7819 307.856 24.869C306.491 23.956 305.426 22.6584 304.798 21.1403C304.17 19.6221 304.005 17.9516 304.326 16.3399C304.646 14.7282 305.437 13.2478 306.598 12.0858C307.759 10.9239 309.238 10.1326 310.848 9.81199C312.459 9.49141 314.128 9.65594 315.645 10.2848C317.162 10.9136 318.458 11.9785 319.371 13.3449C320.283 14.7112 320.77 16.3175 320.77 17.9608C320.765 20.1629 319.889 22.2735 318.333 23.8306C316.777 25.3878 314.668 26.2646 312.468 26.2692ZM312.468 13.1433C311.516 13.1433 310.585 13.4258 309.794 13.9552C309.002 14.4845 308.385 15.2369 308.021 16.1172C307.656 16.9975 307.561 17.9661 307.747 18.9006C307.933 19.8351 308.391 20.6935 309.064 21.3672C309.737 22.041 310.595 22.4998 311.529 22.6857C312.463 22.8716 313.431 22.7762 314.31 22.4115C315.19 22.0469 315.941 21.4295 316.47 20.6372C316.999 19.845 317.282 18.9136 317.282 17.9608C317.277 16.6845 316.768 15.4618 315.867 14.5594C314.965 13.6569 313.743 13.1479 312.468 13.1433Z" fill="#6EE1F8"/>
<path d="M494.584 441.97L485.149 432.544L494.584 423.101L504.002 432.544L494.584 441.97ZM490.084 432.544L494.584 437.03L499.066 432.544L494.584 428.041L490.084 432.544Z" fill="#6EE1F8"/>
<path d="M517.018 97.8448L514.552 100.313L524.64 110.409L527.106 107.941L517.018 97.8448Z" fill="#D4088C"/>
<path d="M524.622 97.8273L514.534 107.923L517.001 110.392L527.089 100.296L524.622 97.8273Z" fill="#D4088C"/>
<g opacity="0.8">
<path d="M297.469 346.842L229.328 307.464C224.48 304.671 225.09 299.784 230.688 296.537L296.109 258.748C301.707 255.519 310.166 255.152 315.014 257.963L383.138 297.323C387.986 300.133 387.376 305.02 381.795 308.25L316.375 346.056C310.776 349.285 302.317 349.635 297.469 346.842Z" fill="#0C0F38"/>
<path d="M406.857 415.299L338.716 375.921C333.868 373.129 334.478 368.241 340.077 365.012L405.497 327.205C411.095 323.976 419.554 323.627 424.403 326.42L492.543 365.798C497.375 368.59 496.764 373.478 491.183 376.707L425.763 414.514C420.164 417.743 411.706 418.092 406.857 415.299Z" fill="#0C0F38"/>
<path d="M187.435 409.696L119.295 370.318C114.446 367.526 115.056 362.621 120.655 359.392L186.075 321.602C191.674 318.356 200.132 318.007 204.981 320.817L273.122 360.177C277.953 362.987 277.36 367.875 271.761 371.104L206.341 408.911C200.743 412.14 192.284 412.489 187.435 409.696Z" fill="#0C0F38"/>
<path d="M296.824 478.153L228.683 438.776C223.834 435.983 224.445 431.096 230.043 427.849L295.463 390.06C301.062 386.813 309.521 386.464 314.369 389.274L382.51 428.634C387.358 431.445 386.748 436.332 381.15 439.561L315.677 477.368C310.131 480.597 301.725 480.946 296.824 478.153Z" fill="#0C0F38"/>
</g>
<path d="M297.486 328.549L229.345 289.171C224.497 286.379 225.107 281.491 230.706 278.262L296.126 240.455C301.724 237.226 310.183 236.86 315.032 239.67L383.173 279.048C388.004 281.84 387.393 286.728 381.812 289.957L316.392 327.764C310.794 330.993 302.335 331.342 297.486 328.549Z" fill="#0C0F38"/>
<g opacity="0.4">
<path d="M386.417 234.556H352.617L315.014 212.825C310.166 210.032 301.707 210.381 296.109 213.61L259.849 234.556H226.067V257.247C226.051 258.316 226.35 259.366 226.927 260.267C227.504 261.167 228.333 261.877 229.311 262.309L297.452 301.686C302.3 304.479 310.759 304.13 316.357 300.901L381.777 263.094C384.673 261.349 386.225 259.289 386.382 257.247L386.417 234.556Z" fill="url(#paint3_linear_1_296)"/>
<path d="M228.212 258.835V236.144H261.995L298.254 215.199C303.852 211.952 312.311 211.603 317.16 214.413L354.779 236.144H386.434V234.573H352.616L315.014 212.842C310.166 210.05 301.707 210.399 296.109 213.628L259.849 234.573H226.067V257.264C226.051 258.334 226.35 259.384 226.927 260.284C227.504 261.184 228.333 261.894 229.311 262.326L229.694 262.553C229.193 262.077 228.802 261.499 228.546 260.857C228.29 260.215 228.176 259.525 228.212 258.835Z" fill="#D4088C"/>
<path d="M297.469 278.995L229.328 239.635C224.48 236.825 225.09 231.938 230.688 228.708L296.109 190.902C301.707 187.673 310.166 187.323 315.014 190.116L383.138 229.494C387.986 232.287 387.376 237.174 381.795 240.421L316.375 278.21C310.776 281.439 302.317 281.806 297.469 278.995Z" fill="url(#paint4_linear_1_296)"/>
<path d="M383.138 229.494L315.014 190.116C312.061 188.65 308.755 188.045 305.474 188.371C307.867 188.427 310.216 189.024 312.346 190.116L380.487 229.494C385.318 232.287 384.707 237.174 379.126 240.421L313.706 278.21C310.827 279.794 307.623 280.695 304.341 280.846C308.52 281.118 312.691 280.204 316.375 278.21L381.795 240.421C387.376 237.174 387.986 232.287 383.138 229.494Z" fill="#6EE8FC"/>
<path d="M305.823 269.622C303.6 269.683 301.398 269.179 299.422 268.156L248.687 238.832C247.911 238.47 247.248 237.903 246.769 237.193C246.29 236.483 246.013 235.656 245.967 234.8C246.09 233.699 246.5 232.649 247.155 231.755C247.809 230.861 248.687 230.153 249.699 229.704L298.411 201.549C302.719 199.053 309.294 198.791 313.061 200.973L363.779 230.28C364.557 230.641 365.222 231.207 365.704 231.917C366.186 232.627 366.467 233.455 366.517 234.312C366.393 235.418 365.981 236.472 365.323 237.369C364.665 238.266 363.784 238.975 362.767 239.426L314.073 267.563C311.542 268.939 308.703 269.648 305.823 269.622ZM306.66 200.642C303.98 200.615 301.339 201.276 298.986 202.562L250.274 230.716C249.44 231.066 248.711 231.626 248.158 232.342C247.605 233.057 247.246 233.905 247.118 234.8C247.174 235.452 247.402 236.076 247.779 236.61C248.156 237.144 248.668 237.567 249.263 237.837L299.98 267.144C303.469 269.134 309.468 268.889 313.462 266.55L362.174 238.413C363.01 238.062 363.741 237.499 364.294 236.78C364.848 236.061 365.205 235.21 365.331 234.312C365.274 233.663 365.045 233.041 364.668 232.511C364.29 231.98 363.779 231.559 363.186 231.292L312.451 201.986C310.66 201.077 308.666 200.644 306.66 200.729V200.642Z" fill="#480689"/>
<path d="M300.521 278.995L232.38 239.635C227.532 236.825 228.142 231.938 233.741 228.709L299.161 190.902C301.995 189.348 305.142 188.453 308.369 188.284C304.134 187.971 299.897 188.879 296.161 190.902L230.688 228.656C225.09 231.885 224.48 236.773 229.328 239.583L297.469 278.943C300.466 280.427 303.822 281.032 307.149 280.689C304.841 280.622 302.578 280.044 300.521 278.995Z" fill="#D4088C"/>
</g>
<g opacity="0.5">
<path d="M386.417 203.295H352.617L315.014 181.529C310.166 178.736 301.707 179.085 296.109 182.314L259.849 203.26H226.067V225.951C226.05 227.022 226.348 228.075 226.925 228.979C227.502 229.882 228.332 230.595 229.311 231.03L297.452 270.39C302.3 273.2 310.759 272.834 316.357 269.605L381.777 231.815C384.673 230.07 386.225 228.01 386.382 225.951L386.417 203.295Z" fill="url(#paint5_linear_1_296)"/>
<path d="M228.212 227.557V204.865H261.995L298.254 183.92C303.852 180.691 312.311 180.429 317.16 183.134L354.779 204.865H386.434V203.312H352.617L315.014 181.529C310.166 178.736 301.707 179.085 296.109 182.314L259.849 203.26H226.067V225.951C226.05 227.022 226.348 228.075 226.925 228.979C227.502 229.882 228.332 230.595 229.311 231.03L229.694 231.239C229.197 230.768 228.807 230.195 228.552 229.56C228.296 228.924 228.18 228.241 228.212 227.557Z" fill="#D4088C"/>
<path d="M297.469 247.734L229.328 208.356C224.48 205.546 225.09 200.659 230.688 197.43L296.109 159.623C301.707 156.394 310.166 156.132 315.014 158.855L383.138 198.215C387.986 201.025 387.376 205.913 381.795 209.142L316.375 246.949C310.776 250.178 302.317 250.527 297.469 247.734Z" fill="url(#paint6_linear_1_296)"/>
<path d="M383.138 198.215L315.014 158.837C312.063 157.365 308.755 156.759 305.474 157.092C307.867 157.148 310.216 157.745 312.346 158.837L380.487 198.198C385.318 201.008 384.707 205.895 379.126 209.124L313.706 246.931C310.822 248.501 307.62 249.396 304.341 249.549C308.518 249.819 312.687 248.912 316.375 246.931L381.795 209.124C387.376 205.965 387.986 201.025 383.138 198.215Z" fill="#6EE8FC"/>
<path d="M305.823 238.344C303.599 238.413 301.395 237.908 299.422 236.877L248.687 207.571C247.903 207.21 247.23 206.643 246.742 205.93C246.254 205.216 245.968 204.384 245.914 203.522C246.04 202.42 246.45 201.371 247.104 200.477C247.759 199.584 248.635 198.876 249.646 198.425L298.411 170.288C302.719 167.792 309.294 167.53 313.061 169.694L363.779 198.983C364.556 199.351 365.22 199.921 365.701 200.633C366.183 201.345 366.465 202.174 366.517 203.033C366.393 204.137 365.981 205.189 365.323 206.083C364.665 206.978 363.784 207.684 362.767 208.13L314.073 236.266C311.544 237.649 308.705 238.363 305.823 238.344ZM299.98 235.865C303.469 237.855 309.468 237.611 313.462 235.289L362.174 207.135C363.008 206.785 363.737 206.225 364.29 205.509C364.844 204.793 365.202 203.946 365.331 203.05C365.275 202.399 365.046 201.775 364.669 201.241C364.292 200.707 363.78 200.283 363.186 200.013L312.468 170.707C308.98 168.717 302.98 168.961 298.986 171.283L250.274 199.437C249.44 199.787 248.711 200.347 248.158 201.063C247.605 201.779 247.246 202.626 247.118 203.522C247.174 204.173 247.402 204.797 247.779 205.331C248.156 205.865 248.668 206.288 249.263 206.559L299.98 235.865Z" fill="#480689"/>
<path d="M300.521 247.734L232.38 208.356C227.532 205.546 228.142 200.659 233.74 197.43L299.161 159.623C301.998 158.077 305.144 157.183 308.369 157.005C304.134 156.701 299.9 157.609 296.161 159.623L230.741 197.43C225.142 200.659 224.532 205.546 229.38 208.356L297.521 247.734C300.518 249.218 303.874 249.824 307.201 249.48C304.873 249.396 302.592 248.8 300.521 247.734Z" fill="#D4088C"/>
</g>
<g opacity="0.7">
<path d="M386.417 172.016H352.617L315.014 150.285C310.166 147.475 301.707 147.824 296.109 151.053L259.867 172.016H226.067V194.707C226.053 195.776 226.354 196.825 226.93 197.725C227.507 198.625 228.334 199.335 229.311 199.769L297.469 239.129C302.317 241.922 310.776 241.573 316.375 238.344L381.795 200.537C384.69 198.791 386.242 196.732 386.399 194.69L386.417 172.016Z" fill="url(#paint7_linear_1_296)"/>
<path d="M228.212 196.278V173.587H261.995L298.254 152.641C303.852 149.412 312.311 149.15 317.16 151.856L354.779 173.587H386.434V172.033H352.617L315.014 150.285C310.166 147.475 301.707 147.824 296.109 151.053L259.867 172.016H226.067V194.707C226.053 195.776 226.354 196.825 226.93 197.725C227.507 198.625 228.334 199.335 229.311 199.769L229.694 199.996C229.194 199.519 228.803 198.941 228.547 198.299C228.292 197.657 228.177 196.968 228.212 196.278Z" fill="#D4088C"/>
<path d="M297.469 216.438L229.328 177.06C224.48 174.267 225.09 169.38 230.688 166.133L296.109 128.344C301.707 125.115 310.166 124.748 315.014 127.559L383.138 166.919C387.986 169.729 387.376 174.616 381.795 177.845L316.375 215.67C310.776 218.899 302.317 219.248 297.469 216.438Z" fill="url(#paint8_linear_1_296)"/>
<path d="M383.138 166.937L315.014 127.576C312.074 126.064 308.769 125.405 305.474 125.674C307.875 125.763 310.225 126.395 312.346 127.524L380.487 166.884C385.318 169.694 384.707 174.582 379.126 177.811L313.706 215.618C310.826 217.196 307.621 218.091 304.341 218.236C308.518 218.514 312.69 217.607 316.375 215.618L381.795 177.811C387.376 174.634 387.986 169.747 383.138 166.937Z" fill="#6EE8FC"/>
<path d="M305.823 207.082C303.598 207.146 301.393 206.635 299.422 205.599L248.687 176.292C247.902 175.937 247.228 175.374 246.739 174.663C246.25 173.952 245.965 173.121 245.914 172.26C246.037 171.156 246.446 170.103 247.1 169.206C247.755 168.309 248.633 167.599 249.646 167.146L298.411 139.009C302.719 136.513 309.294 136.251 313.061 138.416L363.779 167.739C364.557 168.101 365.222 168.667 365.704 169.377C366.186 170.087 366.467 170.914 366.517 171.771C366.393 172.875 365.981 173.927 365.323 174.822C364.665 175.717 363.784 176.422 362.767 176.868L314.073 205.023C311.542 206.399 308.703 207.107 305.823 207.082ZM299.98 204.586C303.469 206.576 309.468 206.332 313.462 204.01L362.174 175.873C363.01 175.522 363.741 174.959 364.294 174.24C364.848 173.521 365.205 172.67 365.331 171.771C365.275 171.122 365.047 170.5 364.67 169.969C364.292 169.438 363.78 169.018 363.186 168.752L312.451 139.428C308.962 137.438 302.963 137.682 298.969 140.021L250.274 168.158C249.438 168.51 248.707 169.072 248.154 169.791C247.601 170.511 247.243 171.361 247.118 172.26C247.175 172.909 247.404 173.531 247.781 174.061C248.158 174.592 248.669 175.013 249.263 175.28L299.98 204.586Z" fill="#480689"/>
<path d="M300.521 216.438L232.38 177.06C227.532 174.267 228.142 169.38 233.741 166.133L299.161 128.344C301.995 126.791 305.142 125.896 308.369 125.726C304.134 125.413 299.897 126.322 296.161 128.344L230.688 166.151C225.09 169.397 224.48 174.285 229.328 177.078L297.469 216.438C300.466 217.922 303.822 218.527 307.149 218.183C304.837 218.101 302.574 217.504 300.521 216.438Z" fill="#D4088C"/>
</g>
<path d="M386.417 140.737H352.617L315.015 119.006C310.166 116.196 301.707 116.562 296.109 119.791L259.867 140.737H226.067V163.428C226.053 164.497 226.354 165.546 226.93 166.446C227.507 167.346 228.335 168.056 229.311 168.49L297.452 207.868C302.3 210.66 310.759 210.311 316.357 207.082L381.795 169.31C384.69 167.565 386.242 165.505 386.399 163.463L386.417 140.737Z" fill="url(#paint9_linear_1_296)"/>
<path d="M228.212 164.999V142.308H261.995L298.254 121.362C303.852 118.133 312.311 117.871 317.16 120.577L354.779 142.325H386.434V140.754H352.617L315.015 119.006C310.166 116.196 301.707 116.562 296.109 119.791L259.867 140.737H226.067V163.428C226.053 164.497 226.354 165.546 226.93 166.446C227.507 167.346 228.335 168.056 229.311 168.49L229.695 168.717C229.195 168.24 228.803 167.662 228.548 167.02C228.292 166.378 228.177 165.689 228.212 164.999Z" fill="#D4088C"/>
<path d="M297.469 185.177L229.328 145.799C224.48 143.006 225.09 138.119 230.688 134.89L296.109 97.0828C301.707 93.8537 310.166 93.5919 315.014 96.2973L383.138 135.675C387.986 138.468 387.376 143.355 381.795 146.584L316.375 184.391C310.776 187.62 302.317 187.969 297.469 185.177Z" fill="url(#paint10_linear_1_296)"/>
<path d="M383.138 135.675L315.015 96.2971C312.069 94.8027 308.765 94.1619 305.474 94.4469C307.875 94.5358 310.225 95.1684 312.346 96.2971L380.487 135.675C385.318 138.468 384.708 143.355 379.127 146.584L313.706 184.391C310.824 185.966 307.622 186.868 304.341 187.027C308.52 187.299 312.691 186.385 316.375 184.391L381.795 146.619C387.376 143.355 387.987 138.468 383.138 135.675Z" fill="#6EE8FC"/>
<path d="M305.823 175.804C303.598 175.867 301.393 175.357 299.422 174.32L248.687 145.013C247.902 144.658 247.228 144.095 246.739 143.384C246.25 142.674 245.965 141.843 245.914 140.981C246.038 139.88 246.448 138.83 247.102 137.936C247.757 137.042 248.634 136.335 249.646 135.885L298.411 107.73C302.719 105.234 309.294 104.972 313.061 107.154L363.779 136.461C364.557 136.822 365.222 137.388 365.704 138.098C366.186 138.808 366.467 139.636 366.517 140.493C366.393 141.599 365.981 142.653 365.323 143.55C364.665 144.447 363.784 145.157 362.767 145.607L314.073 173.744C311.542 175.12 308.703 175.829 305.823 175.804ZM299.98 173.325C303.469 175.297 309.468 175.07 313.462 172.731L362.174 144.595C363.01 144.243 363.741 143.681 364.294 142.961C364.848 142.242 365.205 141.392 365.331 140.493C365.273 139.844 365.045 139.222 364.667 138.692C364.29 138.161 363.779 137.74 363.186 137.473L312.468 108.219C308.98 106.229 302.98 106.474 298.986 108.795L250.274 136.88C249.438 137.231 248.707 137.794 248.154 138.513C247.601 139.232 247.243 140.083 247.118 140.981C247.173 141.631 247.401 142.253 247.779 142.784C248.156 143.315 248.668 143.735 249.263 144.001L299.98 173.325Z" fill="url(#paint11_linear_1_296)"/>
<path d="M300.521 185.177L232.38 145.799C227.532 143.006 228.142 138.119 233.741 134.89L299.161 97.0829C301.995 95.5293 305.142 94.6344 308.369 94.4647C304.134 94.1517 299.897 95.0603 296.161 97.0829L230.688 134.89C225.09 138.119 224.48 143.006 229.328 145.799L297.469 185.177C300.466 186.661 303.822 187.266 307.149 186.922C304.837 186.839 302.574 186.243 300.521 185.177Z" fill="#25BFEC"/>
<g opacity="0.4">
<path d="M495.805 303.013H462.022L424.403 281.282C419.554 278.489 411.095 278.838 405.497 282.067L369.238 303.013H335.455V325.704C335.444 326.772 335.745 327.821 336.321 328.72C336.898 329.619 337.724 330.33 338.699 330.766L406.84 370.144C411.688 372.936 420.147 372.587 425.745 369.358L491.183 331.639C494.078 329.893 495.63 327.834 495.787 325.791L495.805 303.013Z" fill="url(#paint12_linear_1_296)"/>
<path d="M337.6 327.293V304.602H371.365L407.625 283.656C413.223 280.409 421.682 280.06 426.53 282.87L464.15 304.602H495.805V303.031H462.022L424.403 281.3C419.554 278.507 411.095 278.856 405.497 282.085L369.238 303.031H335.455V325.722C335.444 326.79 335.745 327.838 336.321 328.738C336.898 329.637 337.724 330.348 338.699 330.784L339.082 331.01C338.582 330.535 338.19 329.956 337.934 329.314C337.678 328.672 337.564 327.983 337.6 327.293Z" fill="#D4088C"/>
<path d="M406.857 347.452L338.716 308.092C333.868 305.282 334.478 300.395 340.077 297.166L405.497 259.359C411.095 256.13 419.554 255.78 424.403 258.573L492.543 297.951C497.375 300.744 496.764 305.631 491.183 308.878L425.763 346.667C420.164 349.914 411.706 350.263 406.857 347.452Z" fill="url(#paint13_linear_1_296)"/>
<path d="M492.543 297.951L424.403 258.574C421.449 257.107 418.143 256.502 414.862 256.828C417.255 256.885 419.604 257.481 421.734 258.574L489.875 297.951C494.706 300.744 494.113 305.631 488.515 308.878L423.094 346.667C420.215 348.251 417.011 349.153 413.729 349.303C417.908 349.577 422.08 348.663 425.763 346.667L491.183 308.948C496.764 305.631 497.374 300.744 492.543 297.951Z" fill="#6EE8FC"/>
<path d="M415.211 338.08C412.988 338.14 410.786 337.636 408.811 336.613L358.075 307.29C357.3 306.927 356.637 306.361 356.157 305.651C355.678 304.94 355.401 304.113 355.355 303.258C355.478 302.156 355.888 301.106 356.543 300.212C357.198 299.318 358.075 298.611 359.087 298.161L407.799 270.006C412.107 267.51 418.682 267.249 422.449 269.43L473.184 298.737C473.958 299.107 474.619 299.678 475.097 300.39C475.576 301.102 475.855 301.93 475.905 302.786C475.779 303.887 475.369 304.937 474.715 305.83C474.06 306.724 473.184 307.432 472.173 307.883L423.461 336.02C420.93 337.396 418.091 338.105 415.211 338.08ZM416.048 269.099C413.37 269.082 410.73 269.742 408.374 271.019L359.663 299.173C358.829 299.523 358.099 300.083 357.546 300.799C356.993 301.515 356.634 302.362 356.506 303.258C356.562 303.909 356.79 304.533 357.167 305.067C357.544 305.601 358.056 306.025 358.651 306.295L409.386 335.601C412.874 337.591 418.874 337.347 422.868 335.008L471.58 306.871C472.414 306.521 473.143 305.961 473.696 305.245C474.249 304.529 474.608 303.682 474.736 302.786C474.682 302.135 474.455 301.509 474.077 300.975C473.7 300.441 473.187 300.018 472.591 299.749L421.856 270.443C420.068 269.501 418.068 269.038 416.048 269.099Z" fill="#480689"/>
<path d="M409.857 347.453L341.838 308.092C336.989 305.282 337.6 300.395 343.198 297.166L408.618 259.359C411.453 257.805 414.6 256.911 417.827 256.741C413.591 256.428 409.355 257.336 405.619 259.359L340.094 297.166C334.495 300.395 333.885 305.282 338.734 308.092L406.874 347.453C409.86 348.975 413.219 349.611 416.554 349.285C414.213 349.183 411.925 348.556 409.857 347.453Z" fill="#D4088C"/>
</g>
<g opacity="0.5">
<path d="M495.805 271.752H462.022L424.403 250.003C419.554 247.21 411.095 247.559 405.497 250.789L369.238 271.734H335.455V294.425C335.443 295.496 335.743 296.547 336.319 297.45C336.896 298.352 337.723 299.066 338.699 299.505L406.84 338.865C411.688 341.675 420.147 341.326 425.745 338.079L491.166 300.29C494.061 298.545 495.613 296.485 495.77 294.425L495.805 271.752Z" fill="url(#paint14_linear_1_296)"/>
<path d="M337.6 296.014V273.323H371.365L407.625 252.377C413.223 249.148 421.682 248.799 426.53 251.592L464.15 273.323H495.805V271.769H462.022L424.403 250.021C419.554 247.228 411.095 247.577 405.497 250.806L369.238 271.752H335.455V294.443C335.443 295.514 335.743 296.565 336.319 297.467C336.896 298.369 337.723 299.084 338.699 299.522L339.083 299.732C338.581 299.257 338.188 298.678 337.932 298.036C337.676 297.394 337.563 296.704 337.6 296.014Z" fill="#D4088C"/>
<path d="M406.857 316.191L338.716 276.813C333.868 274.021 334.478 269.116 340.077 265.887L405.497 228.097C411.095 224.851 419.554 224.502 424.403 227.312L492.543 266.672C497.375 269.483 496.764 274.37 491.183 277.599L425.763 315.406C420.164 318.635 411.706 318.984 406.857 316.191Z" fill="url(#paint15_linear_1_296)"/>
<path d="M492.543 266.672L424.403 227.312C421.46 225.81 418.153 225.168 414.862 225.462C417.263 225.551 419.613 226.183 421.734 227.312L489.875 266.672C494.706 269.483 494.113 274.37 488.515 277.599L423.094 315.406C420.21 316.976 417.008 317.871 413.729 318.024C417.906 318.296 422.075 317.389 425.763 315.406L491.183 277.529C496.764 274.37 497.374 269.483 492.543 266.672Z" fill="#6EE8FC"/>
<path d="M415.211 306.801C412.987 306.87 410.783 306.365 408.811 305.334L358.075 276.028C357.3 275.66 356.639 275.089 356.16 274.377C355.681 273.664 355.403 272.836 355.355 271.979C355.48 270.878 355.89 269.828 356.545 268.934C357.2 268.041 358.076 267.333 359.087 266.882L407.799 238.745C412.107 236.249 418.682 235.987 422.449 238.151L473.184 267.475C473.958 267.841 474.619 268.408 475.098 269.118C475.576 269.827 475.855 270.653 475.905 271.507C475.781 272.609 475.372 273.659 474.717 274.553C474.062 275.447 473.185 276.154 472.173 276.604L423.461 304.741C420.93 306.117 418.091 306.826 415.211 306.801ZM409.386 304.322C412.874 306.312 418.874 306.068 422.868 303.746L471.58 275.592C472.414 275.242 473.143 274.682 473.696 273.966C474.249 273.25 474.608 272.403 474.736 271.507C474.68 270.856 474.452 270.232 474.075 269.698C473.698 269.164 473.186 268.74 472.591 268.47L421.856 239.129C418.368 237.139 412.368 237.383 408.374 239.705L359.663 267.859C358.829 268.209 358.099 268.769 357.546 269.485C356.993 270.201 356.634 271.048 356.506 271.944C356.562 272.595 356.79 273.219 357.167 273.753C357.544 274.287 358.056 274.711 358.651 274.981L409.386 304.322Z" fill="#480689"/>
<path d="M409.857 316.191L341.838 276.813C336.989 274.021 337.6 269.116 343.198 265.887L408.618 228.097C411.449 226.536 414.599 225.64 417.827 225.479C413.591 225.166 409.354 226.075 405.619 228.097L340.094 265.887C334.495 269.116 333.885 274.021 338.733 276.813L406.874 316.191C409.872 317.675 413.227 318.28 416.554 317.936C414.221 317.854 411.934 317.258 409.857 316.191Z" fill="#D4088C"/>
</g>
<g opacity="0.7">
<path d="M495.805 240.473H462.022L424.403 218.742C419.554 215.932 411.095 216.281 405.497 219.527L369.238 240.473H335.455V263.164C335.446 264.232 335.748 265.279 336.324 266.178C336.9 267.077 337.725 267.789 338.699 268.226L406.84 307.604C411.688 310.396 420.147 310.047 425.745 306.818L491.166 269.011C494.061 267.266 495.613 265.206 495.77 263.164L495.805 240.473Z" fill="url(#paint16_linear_1_296)"/>
<path d="M337.6 264.735V242.044H371.365L407.625 221.098C413.223 217.869 421.682 217.608 426.53 220.313L464.15 242.062H495.805V240.491H462.022L424.403 218.76C419.554 215.949 411.095 216.298 405.497 219.545L369.238 240.491H335.455V263.182C335.446 264.25 335.748 265.297 336.324 266.196C336.9 267.095 337.725 267.806 338.699 268.244L339.083 268.47C338.58 267.992 338.188 267.41 337.932 266.766C337.676 266.121 337.563 265.428 337.6 264.735Z" fill="#D4088C"/>
<path d="M406.857 284.912L338.716 245.534C333.868 242.742 334.478 237.854 340.077 234.625L405.497 196.818C411.095 193.589 419.554 193.24 424.403 196.033L492.543 235.411C497.375 238.203 496.764 243.091 491.183 246.32L425.763 284.127C420.164 287.356 411.706 287.705 406.857 284.912Z" fill="url(#paint17_linear_1_296)"/>
<path d="M492.543 235.411L424.403 196.033C421.457 194.539 418.153 193.898 414.862 194.183C417.263 194.272 419.613 194.905 421.734 196.033L489.875 235.411C494.706 238.204 494.113 243.091 488.515 246.32L423.094 284.127C420.212 285.703 417.01 286.604 413.729 286.763C417.908 287.028 422.077 286.115 425.763 284.127L491.183 246.32C496.764 243.091 497.374 238.204 492.543 235.411Z" fill="#6EE8FC"/>
<path d="M415.211 275.54C412.986 275.603 410.781 275.093 408.811 274.056L358.075 244.749C357.3 244.387 356.637 243.821 356.157 243.11C355.678 242.4 355.401 241.573 355.355 240.717C355.477 239.613 355.886 238.56 356.541 237.663C357.196 236.766 358.073 236.056 359.087 235.603L407.799 207.466C412.107 204.97 418.682 204.708 422.449 206.873L473.184 236.197C473.958 236.562 474.619 237.129 475.098 237.839C475.576 238.549 475.855 239.374 475.905 240.229C475.781 241.33 475.372 242.38 474.717 243.274C474.062 244.169 473.185 244.876 472.173 245.325L423.461 273.48C420.93 274.856 418.091 275.565 415.211 275.54ZM409.386 273.043C412.874 275.033 418.874 274.789 422.868 272.468L471.58 244.365C472.416 244.014 473.147 243.451 473.7 242.732C474.253 242.013 474.611 241.163 474.736 240.264C474.692 239.614 474.474 238.988 474.106 238.451C473.738 237.914 473.233 237.485 472.644 237.209L421.909 207.885C418.42 205.913 412.421 206.14 408.427 208.479L359.715 236.616C358.879 236.967 358.148 237.53 357.595 238.249C357.041 238.968 356.684 239.819 356.558 240.717C356.615 241.366 356.844 241.988 357.221 242.519C357.598 243.049 358.11 243.47 358.703 243.737L409.386 273.043Z" fill="#480689"/>
<path d="M409.857 284.912L341.838 245.535C336.99 242.742 337.6 237.855 343.198 234.626L408.619 196.819C411.453 195.265 414.6 194.37 417.827 194.201C413.591 193.888 409.355 194.796 405.619 196.819L340.094 234.626C334.496 237.855 333.885 242.742 338.734 245.535L406.874 284.912C409.863 286.427 413.219 287.062 416.554 286.745C414.213 286.642 411.925 286.016 409.857 284.912Z" fill="#D4088C"/>
</g>
<path d="M495.805 209.194H462.022L424.403 187.463C419.554 184.67 411.095 185.019 405.497 188.249L369.238 209.194H335.455V231.885C335.446 232.953 335.748 234 336.324 234.899C336.9 235.798 337.725 236.51 338.699 236.947L406.84 276.325C411.688 279.118 420.147 278.768 425.745 275.539L491.166 237.733C494.061 235.987 495.613 233.927 495.77 231.885L495.805 209.194Z" fill="url(#paint18_linear_1_296)"/>
<path d="M337.6 233.474V210.783H371.365L407.625 189.837C413.223 186.608 421.682 186.346 426.53 189.069L464.15 210.8H495.805V209.229H462.022L424.403 187.463C419.554 184.67 411.095 185.019 405.497 188.249L369.238 209.194H335.455V231.885C335.446 232.953 335.748 234 336.324 234.899C336.9 235.798 337.725 236.51 338.699 236.947L339.083 237.174C338.584 236.7 338.193 236.124 337.938 235.486C337.682 234.847 337.567 234.161 337.6 233.474Z" fill="#D4088C"/>
<path d="M406.857 253.634L338.716 214.256C333.868 211.463 334.478 206.576 340.077 203.347L405.497 165.54C411.095 162.311 419.554 162.049 424.403 164.755L492.543 204.22C497.375 207.012 496.764 211.9 491.183 215.129L425.763 252.936C420.164 256.077 411.706 256.427 406.857 253.634Z" fill="url(#paint19_linear_1_296)"/>
<path d="M492.544 204.22L424.403 164.755C421.457 163.26 418.153 162.619 414.863 162.904C417.264 162.993 419.613 163.626 421.734 164.755L489.875 204.22C494.706 207.012 494.113 211.9 488.515 215.129L423.095 252.936C420.212 254.511 417.01 255.412 413.729 255.571C417.908 255.845 422.08 254.932 425.763 252.936L491.183 215.129C496.764 211.812 497.375 206.925 492.544 204.22Z" fill="#6EE8FC"/>
<path d="M415.211 244.261C412.988 244.322 410.786 243.817 408.81 242.795L358.075 213.471C357.299 213.108 356.636 212.542 356.157 211.832C355.678 211.122 355.401 210.294 355.354 209.439C355.478 208.337 355.888 207.287 356.543 206.393C357.197 205.499 358.074 204.792 359.087 204.342L407.799 176.188C412.107 173.692 418.682 173.43 422.449 175.612L473.184 204.918C473.958 205.283 474.619 205.851 475.097 206.56C475.576 207.27 475.855 208.095 475.905 208.95C475.782 210.054 475.373 211.107 474.719 212.004C474.064 212.901 473.186 213.611 472.172 214.064L423.461 242.201C420.93 243.577 418.091 244.286 415.211 244.261ZM409.386 241.782C412.874 243.772 418.874 243.528 422.868 241.189L471.579 213.052C472.416 212.701 473.146 212.138 473.7 211.419C474.253 210.7 474.61 209.849 474.736 208.95C474.678 208.313 474.454 207.702 474.087 207.179C473.72 206.655 473.222 206.237 472.643 205.965L421.908 176.659C418.42 174.669 412.421 174.913 408.427 177.235L359.715 205.372C358.878 205.723 358.148 206.286 357.594 207.005C357.041 207.724 356.684 208.575 356.558 209.474C356.613 210.123 356.842 210.745 357.219 211.276C357.596 211.807 358.109 212.228 358.703 212.493L409.386 241.782Z" fill="url(#paint20_linear_1_296)"/>
<path d="M409.857 253.634L341.838 214.256C336.99 211.463 337.6 206.576 343.198 203.347L408.619 165.54C411.453 163.987 414.6 163.092 417.827 162.922C413.591 162.609 409.355 163.518 405.619 165.54L340.094 203.347C334.496 206.576 333.885 211.463 338.734 214.256L406.875 253.634C409.863 255.148 413.219 255.784 416.554 255.467C414.213 255.364 411.925 254.737 409.857 253.634Z" fill="#25BFEC"/>
<path d="M427.699 266.271L485.253 232.915C485.544 232.705 485.781 232.43 485.948 232.112C486.114 231.794 486.205 231.441 486.212 231.082V228.359C486.212 227.661 485.776 227.33 485.253 227.626L427.699 261C427.406 261.208 427.167 261.483 427 261.801C426.833 262.12 426.744 262.473 426.739 262.832V265.555C426.739 266.254 427.175 266.585 427.699 266.271Z" fill="#6DE0F6"/>
<path d="M484.085 232.147C484.363 231.947 484.593 231.685 484.756 231.383C484.919 231.08 485.012 230.745 485.026 230.402V227.853L485.34 227.661C485.864 227.364 486.3 227.661 486.3 228.394V231.117C486.292 231.476 486.202 231.828 486.035 232.146C485.869 232.465 485.631 232.74 485.34 232.95L427.786 266.306C427.263 266.62 426.827 266.306 426.827 265.59V265.311L484.085 232.147Z" fill="#267FE5"/>
<g opacity="0.4">
<path d="M276.383 297.41H242.6L204.981 275.679C200.132 272.869 191.674 273.235 186.075 276.464L149.816 297.41H116.033V320.101C116.024 321.169 116.326 322.216 116.902 323.115C117.478 324.014 118.304 324.726 119.277 325.163L187.418 364.541C192.267 367.333 200.725 366.984 206.324 363.755L271.744 325.948C274.639 324.203 276.191 322.143 276.348 320.101L276.383 297.41Z" fill="url(#paint21_linear_1_296)"/>
<path d="M118.178 321.672V298.981H151.944L188.203 278.035C193.801 274.806 202.26 274.457 207.109 277.25L244.728 298.999H276.383V297.428H242.6L204.981 275.697C200.132 272.886 191.674 273.253 186.075 276.482L149.816 297.428H116.033V320.119C116.024 321.187 116.326 322.234 116.902 323.133C117.478 324.032 118.304 324.743 119.277 325.181L119.661 325.407C119.159 324.929 118.766 324.347 118.51 323.703C118.254 323.058 118.141 322.365 118.178 321.672Z" fill="#D4088C"/>
<path d="M187.435 341.85L119.295 302.472C114.446 299.679 115.056 294.792 120.655 291.563L186.075 253.756C191.674 250.527 200.132 250.265 204.981 252.97L273.122 292.348C277.953 295.141 277.36 300.028 271.761 303.257L206.341 341.064C200.743 344.293 192.284 344.642 187.435 341.85Z" fill="url(#paint22_linear_1_296)"/>
<path d="M273.122 292.348L204.981 252.97C202.035 251.476 198.731 250.835 195.441 251.12C197.842 251.209 200.191 251.842 202.312 252.97L270.453 292.348C275.302 295.141 274.691 300.028 269.093 303.257L203.673 341.064C200.79 342.64 197.588 343.541 194.307 343.7C198.487 343.974 202.658 343.06 206.341 341.064L271.761 303.257C277.308 300.028 277.953 295.141 273.122 292.348Z" fill="#6EE8FC"/>
<path d="M195.79 332.477C193.566 332.537 191.364 332.033 189.389 331.01L138.654 301.687C137.878 301.324 137.215 300.758 136.736 300.048C136.257 299.337 135.979 298.51 135.933 297.655C136.059 296.552 136.469 295.5 137.124 294.604C137.778 293.707 138.654 292.996 139.665 292.54L188.36 264.403C192.668 261.907 199.243 261.646 203.01 263.827L253.745 293.134C254.519 293.499 255.18 294.067 255.658 294.776C256.137 295.486 256.416 296.311 256.466 297.166C256.343 298.27 255.934 299.323 255.28 300.22C254.625 301.117 253.747 301.827 252.734 302.28L204.056 330.417C201.522 331.798 198.676 332.507 195.79 332.477ZM189.964 329.998C193.453 331.97 199.47 331.744 203.464 329.405L252.158 301.268C252.994 300.916 253.725 300.354 254.278 299.635C254.832 298.915 255.189 298.065 255.315 297.166C255.257 296.517 255.028 295.896 254.651 295.365C254.274 294.834 253.763 294.413 253.17 294.146L202.452 264.84C198.964 262.85 192.947 263.094 188.953 265.416L140.241 293.553C139.408 293.906 138.681 294.47 138.131 295.189C137.58 295.908 137.226 296.758 137.102 297.655C137.155 298.302 137.381 298.923 137.755 299.454C138.129 299.985 138.638 300.406 139.229 300.674L189.964 329.998Z" fill="#480689"/>
<path d="M190.488 341.849L122.347 302.472C117.516 299.679 118.109 294.792 123.707 291.563L189.127 253.756C191.968 252.202 195.121 251.307 198.353 251.138C194.118 250.827 189.882 251.736 186.145 253.756L120.655 291.493C115.056 294.722 114.446 299.609 119.295 302.402L187.435 341.78C190.407 343.311 193.75 343.971 197.08 343.682C194.775 343.564 192.524 342.938 190.488 341.849Z" fill="#D4088C"/>
</g>
<g opacity="0.5">
<path d="M276.383 266.131H242.6L204.981 244.365C200.132 241.573 191.674 241.922 186.075 245.151L149.816 266.097H116.033V288.788C116.022 289.856 116.323 290.904 116.9 291.804C117.476 292.703 118.302 293.414 119.277 293.849L187.418 333.227C192.267 336.02 200.725 335.671 206.324 332.442L271.744 294.635C274.639 292.889 276.191 290.83 276.348 288.788L276.383 266.131Z" fill="url(#paint23_linear_1_296)"/>
<path d="M118.178 290.411V267.72H151.944L188.203 246.774C193.801 243.545 202.26 243.179 207.109 245.989L244.728 267.72H276.383V266.149H242.6L204.981 244.365C200.132 241.573 191.674 241.922 186.075 245.151L149.816 266.097H116.033V288.788C116.022 289.856 116.323 290.904 116.9 291.804C117.476 292.703 118.302 293.414 119.277 293.849L119.661 294.076C119.166 293.607 118.778 293.037 118.522 292.405C118.266 291.772 118.149 291.092 118.178 290.411Z" fill="#D4088C"/>
<path d="M187.435 310.571L119.295 271.211C114.446 268.4 115.056 263.513 120.655 260.284L186.075 222.477C191.674 219.248 200.132 218.986 204.981 221.692L273.122 261.069C277.953 263.862 277.36 268.767 271.761 271.996L206.341 309.785C200.743 313.032 192.284 313.381 187.435 310.571Z" fill="url(#paint24_linear_1_296)"/>
<path d="M273.122 261.07L204.981 221.674C202.036 220.178 198.73 219.543 195.441 219.842C197.84 219.925 200.19 220.552 202.312 221.674L270.453 261.052C275.302 263.845 274.691 268.75 269.093 271.979L203.673 309.768C200.793 311.352 197.589 312.253 194.307 312.404C198.487 312.678 202.658 311.764 206.341 309.768L271.761 271.979C277.308 268.802 277.953 263.862 273.122 261.07Z" fill="#6EE8FC"/>
<path d="M195.79 301.198C193.566 301.259 191.364 300.754 189.389 299.732L138.654 270.408C137.878 270.045 137.215 269.479 136.736 268.769C136.257 268.059 135.979 267.231 135.933 266.376C136.057 265.274 136.466 264.224 137.121 263.33C137.776 262.436 138.653 261.729 139.665 261.279L188.36 233.125C192.668 230.629 199.243 230.384 203.01 232.549L253.763 261.82C254.536 262.19 255.197 262.761 255.675 263.473C256.154 264.185 256.433 265.013 256.483 265.87C256.358 266.971 255.948 268.02 255.293 268.914C254.638 269.808 253.762 270.515 252.751 270.966L204.056 299.138C201.522 300.519 198.676 301.228 195.79 301.198ZM196.627 232.217C193.948 232.2 191.308 232.86 188.953 234.137L140.241 262.291C139.41 262.644 138.685 263.205 138.134 263.92C137.584 264.636 137.229 265.482 137.102 266.376C137.154 267.026 137.379 267.65 137.753 268.184C138.127 268.717 138.637 269.142 139.229 269.413L189.964 298.719C193.453 300.709 199.452 300.465 203.464 298.126L252.158 269.989C252.992 269.639 253.721 269.079 254.274 268.363C254.828 267.647 255.186 266.8 255.315 265.904C255.259 265.253 255.03 264.629 254.653 264.095C254.276 263.561 253.764 263.138 253.17 262.867L202.452 233.561C200.664 232.595 198.658 232.108 196.627 232.147V232.217Z" fill="#480689"/>
<path d="M190.488 310.571L122.347 271.21C117.516 268.4 118.109 263.513 123.707 260.284L189.127 222.477C191.968 220.923 195.121 220.028 198.353 219.859C194.118 219.557 189.885 220.465 186.145 222.477L120.655 260.284C115.056 263.513 114.446 268.4 119.295 271.21L187.435 310.571C190.428 312.07 193.788 312.676 197.115 312.316C194.804 312.23 192.541 311.634 190.488 310.571Z" fill="#D4088C"/>
</g>
<g opacity="0.7">
<path d="M276.383 234.87H242.6L204.981 213.121C200.132 210.329 191.674 210.678 186.075 213.907L149.816 234.852H116.033V257.543C116.021 258.614 116.321 259.665 116.898 260.568C117.474 261.47 118.301 262.184 119.277 262.623L187.435 301.966C192.284 304.776 200.743 304.427 206.341 301.18L271.761 263.391C274.657 261.645 276.209 259.586 276.366 257.526L276.383 234.87Z" fill="url(#paint25_linear_1_296)"/>
<path d="M118.178 259.132V236.441H151.944L188.203 215.495C193.801 212.266 202.26 212.004 207.109 214.71L244.728 236.441H276.383V234.887H242.6L204.981 213.121C200.132 210.329 191.674 210.678 186.075 213.907L149.816 234.852H116.033V257.543C116.021 258.614 116.321 259.665 116.898 260.568C117.474 261.47 118.301 262.184 119.277 262.623L119.661 262.832C119.161 262.359 118.77 261.783 118.514 261.145C118.258 260.506 118.144 259.819 118.178 259.132Z" fill="#D4088C"/>
<path d="M187.435 279.274L119.295 239.932C114.446 237.139 115.056 232.234 120.655 229.005L186.075 191.216C191.674 187.969 200.132 187.62 204.981 190.43L273.122 229.79C277.953 232.601 277.36 237.488 271.761 240.717L206.341 278.524C200.743 281.753 192.284 282.102 187.435 279.274Z" fill="url(#paint26_linear_1_296)"/>
<path d="M273.122 229.791L204.981 190.43C202.038 188.928 198.731 188.287 195.441 188.58C197.842 188.669 200.191 189.302 202.312 190.43L270.453 229.791C275.302 232.601 274.691 237.488 269.093 240.717L203.673 278.524C200.789 280.094 197.587 280.989 194.307 281.142C198.484 281.414 202.654 280.507 206.341 278.524L271.761 240.717C277.308 237.488 277.953 232.601 273.122 229.791Z" fill="#6EE8FC"/>
<path d="M195.79 269.919C193.566 269.988 191.361 269.483 189.389 268.453L138.654 239.129C137.878 238.762 137.215 238.192 136.736 237.479C136.257 236.766 135.98 235.937 135.933 235.079C136.058 233.978 136.469 232.929 137.123 232.035C137.778 231.142 138.654 230.434 139.665 229.983L188.36 201.863C192.668 199.367 199.243 199.105 203.01 201.27L253.745 230.594C254.519 230.959 255.18 231.526 255.658 232.236C256.137 232.945 256.416 233.771 256.466 234.626C256.342 235.727 255.932 236.777 255.278 237.671C254.623 238.565 253.746 239.273 252.734 239.722L204.056 267.877C201.52 269.252 198.674 269.955 195.79 269.919ZM196.627 200.956C193.949 200.933 191.31 201.587 188.953 202.858L140.241 231.013C139.41 231.365 138.685 231.926 138.134 232.642C137.584 233.357 137.229 234.203 137.102 235.097C137.152 235.747 137.377 236.372 137.751 236.906C138.125 237.441 138.636 237.864 139.229 238.134L189.964 267.44C193.453 269.43 199.452 269.186 203.464 266.864L252.158 238.71C252.992 238.36 253.721 237.8 254.274 237.084C254.828 236.369 255.186 235.521 255.315 234.626C255.259 233.974 255.03 233.35 254.653 232.816C254.276 232.282 253.764 231.859 253.17 231.589L202.452 202.282C200.653 201.355 198.649 200.898 196.627 200.956Z" fill="#480689"/>
<path d="M190.488 279.274L122.347 239.931C117.516 237.139 118.109 232.234 123.707 229.005L189.127 191.215C191.964 189.654 195.119 188.758 198.353 188.597C194.118 188.287 189.882 189.196 186.145 191.215L120.655 229.005C115.056 232.234 114.446 237.139 119.295 239.931L187.435 279.274C190.433 280.759 193.789 281.364 197.115 281.02C194.805 280.927 192.544 280.331 190.488 279.274Z" fill="#D4088C"/>
</g>
<path d="M276.383 203.591H242.601L204.981 181.86C200.133 179.05 191.674 179.399 186.075 182.646L149.816 203.591H116.033V226.283C116.025 227.35 116.327 228.398 116.903 229.297C117.479 230.196 118.304 230.907 119.277 231.344L187.418 270.722C192.267 273.515 200.726 273.166 206.324 269.937L271.762 232.147C274.657 230.402 276.209 228.342 276.366 226.3L276.383 203.591Z" fill="url(#paint27_linear_1_296)"/>
<path d="M118.179 227.854V205.162H151.944L188.203 184.217C193.802 180.988 202.26 180.726 207.109 183.431L244.728 205.18H276.383V203.609H242.601L204.981 181.878C200.133 179.068 191.674 179.417 186.075 182.663L149.816 203.609H116.033V226.3C116.025 227.368 116.327 228.415 116.903 229.314C117.479 230.213 118.304 230.925 119.277 231.362L119.661 231.589C119.159 231.11 118.766 230.529 118.51 229.884C118.254 229.239 118.141 228.546 118.179 227.854Z" fill="#D4088C"/>
<path d="M187.435 248.031L119.295 208.653C114.446 205.86 115.056 200.973 120.655 197.744L186.075 159.937C191.674 156.708 200.132 156.446 204.981 159.152L273.122 198.529C277.953 201.322 277.36 206.209 271.761 209.438L206.341 247.245C200.743 250.474 192.284 250.824 187.435 248.031Z" fill="url(#paint28_linear_1_296)"/>
<path d="M273.122 198.529L204.981 159.152C202.035 157.657 198.731 157.016 195.441 157.301C197.842 157.39 200.191 158.023 202.312 159.152L270.453 198.529C275.302 201.322 274.691 206.209 269.093 209.439L203.673 247.245C200.79 248.821 197.588 249.722 194.307 249.881C198.486 250.155 202.658 249.241 206.341 247.245L271.761 209.456C277.307 206.209 277.953 201.322 273.122 198.529Z" fill="#6EE8FC"/>
<path d="M195.79 238.658C193.564 238.722 191.36 238.211 189.389 237.174L138.654 207.868C137.878 207.505 137.215 206.939 136.736 206.229C136.256 205.518 135.979 204.691 135.933 203.836C136.059 202.733 136.469 201.681 137.123 200.785C137.778 199.888 138.654 199.177 139.665 198.721L188.36 170.585C192.668 168.089 199.243 167.827 203.01 170.009L253.745 199.315C254.519 199.68 255.18 200.248 255.658 200.957C256.137 201.667 256.416 202.492 256.466 203.347C256.34 204.45 255.93 205.501 255.275 206.398C254.621 207.295 253.745 208.006 252.734 208.461L204.056 236.598C201.521 237.979 198.676 238.688 195.79 238.658ZM189.964 236.162C193.452 238.152 199.452 237.907 203.463 235.586L252.158 207.449C252.994 207.098 253.725 206.535 254.278 205.816C254.832 205.097 255.189 204.246 255.315 203.347C255.259 202.698 255.031 202.075 254.654 201.544C254.276 201.013 253.764 200.593 253.17 200.327L202.452 171.056C198.964 169.083 192.947 169.31 188.953 171.649L140.241 199.734C139.408 200.088 138.681 200.651 138.13 201.37C137.58 202.089 137.226 202.939 137.102 203.836C137.155 204.483 137.381 205.104 137.755 205.635C138.129 206.166 138.638 206.587 139.229 206.855L189.964 236.162Z" fill="url(#paint29_linear_1_296)"/>
<path d="M190.488 248.031L122.347 208.653C117.516 205.86 118.109 200.973 123.707 197.744L189.127 159.937C191.968 158.383 195.121 157.488 198.353 157.319C194.118 157.009 189.882 157.917 186.145 159.937L120.655 197.744C115.056 200.973 114.446 205.86 119.295 208.653L187.435 248.031C190.424 249.545 193.78 250.181 197.115 249.864C194.798 249.75 192.534 249.124 190.488 248.031Z" fill="#25BFEC"/>
<path d="M184.418 260.668L126.864 227.312C126.585 227.11 126.355 226.849 126.189 226.547C126.023 226.245 125.926 225.91 125.904 225.567V222.844C125.904 222.128 126.34 221.814 126.864 222.111L184.505 255.484C184.786 255.684 185.019 255.945 185.185 256.247C185.351 256.549 185.446 256.885 185.464 257.23V259.97C185.377 260.651 184.871 260.982 184.418 260.668Z" fill="#6DE0F6"/>
<path d="M128.032 226.579C127.754 226.378 127.524 226.117 127.361 225.815C127.198 225.512 127.105 225.177 127.091 224.833V222.198L126.777 222.023C126.253 221.727 125.817 222.023 125.817 222.756V225.479C125.839 225.823 125.936 226.158 126.102 226.459C126.268 226.761 126.498 227.022 126.777 227.225L184.418 260.581C184.941 260.895 185.377 260.581 185.377 259.865V259.69L128.032 226.579Z" fill="#267FE5"/>
<g opacity="0.4">
<path d="M385.771 365.868H351.989L314.369 344.136C309.521 341.344 301.062 341.693 295.463 344.922L259.204 365.868H225.421V388.559C225.413 389.626 225.715 390.674 226.291 391.573C226.867 392.472 227.692 393.183 228.665 393.62L296.806 432.998C301.655 435.791 310.114 435.442 315.712 432.213L381.15 394.476C384.062 392.73 385.597 390.671 385.754 388.628L385.771 365.868Z" fill="url(#paint30_linear_1_296)"/>
<path d="M227.567 390.147V367.456H261.332L297.591 346.51C303.19 343.281 311.648 342.932 316.497 345.742L354.047 367.438H385.702V365.868H351.989L314.369 344.136C309.521 341.344 301.062 341.693 295.463 344.922L259.204 365.868H225.421V388.559C225.413 389.626 225.715 390.674 226.291 391.573C226.867 392.472 227.692 393.183 228.665 393.62L229.049 393.847C228.553 393.371 228.165 392.795 227.909 392.157C227.653 391.519 227.537 390.834 227.567 390.147Z" fill="#D4088C"/>
<path d="M296.824 410.307L228.683 370.929C223.834 368.137 224.445 363.249 230.043 360.02L295.463 322.213C301.062 318.984 309.521 318.722 314.369 321.428L382.51 360.806C387.359 363.598 386.748 368.486 381.15 371.732L315.677 409.522C310.131 412.751 301.725 413.117 296.824 410.307Z" fill="url(#paint31_linear_1_296)"/>
<path d="M382.51 360.806L314.369 321.428C311.424 319.934 308.119 319.293 304.829 319.578C307.23 319.664 309.58 320.297 311.701 321.428L379.842 360.806C384.69 363.598 384.08 368.486 378.481 371.732L313.061 409.522C310.179 411.1 306.977 412.001 303.695 412.157C307.875 412.432 312.047 411.518 315.73 409.522L381.15 371.785C386.748 368.486 387.359 363.598 382.51 360.806Z" fill="#6EE8FC"/>
<path d="M305.213 400.934C302.99 400.995 300.787 400.49 298.812 399.468L248.077 370.144C247.301 369.781 246.638 369.215 246.159 368.505C245.68 367.795 245.402 366.968 245.356 366.112C245.48 365.01 245.89 363.96 246.544 363.066C247.199 362.172 248.076 361.465 249.089 361.015L297.8 332.861C302.108 330.365 308.683 330.103 312.451 332.285L363.186 361.591C363.962 361.953 364.625 362.52 365.104 363.23C365.583 363.94 365.86 364.767 365.906 365.623C365.784 366.727 365.375 367.78 364.72 368.677C364.066 369.574 363.188 370.285 362.174 370.737L313.462 398.874C310.932 400.252 308.093 400.961 305.213 400.934ZM299.388 398.455C302.876 400.445 308.875 400.201 312.887 397.862L361.581 369.725C362.417 369.374 363.148 368.811 363.702 368.092C364.255 367.373 364.612 366.522 364.738 365.623C364.684 364.973 364.457 364.35 364.079 363.819C363.702 363.287 363.188 362.868 362.593 362.603L311.84 333.384C308.352 331.395 302.335 331.639 298.341 333.96L249.647 362.01C248.81 362.361 248.08 362.924 247.526 363.643C246.973 364.362 246.616 365.213 246.49 366.112C246.542 366.762 246.769 367.386 247.146 367.918C247.524 368.449 248.038 368.869 248.635 369.131L299.388 398.455Z" fill="#480689"/>
<path d="M299.876 410.307L231.735 370.929C226.904 368.136 227.514 363.249 233.095 360.02L298.516 322.213C301.356 320.659 304.509 319.765 307.742 319.595C303.506 319.285 299.27 320.193 295.533 322.213L230.043 360.02C224.445 363.249 223.834 368.136 228.683 370.929L296.824 410.307C299.818 411.823 303.18 412.458 306.521 412.14C304.198 412.029 301.928 411.403 299.876 410.307Z" fill="#D4088C"/>
</g>
<g opacity="0.5">
<path d="M385.771 334.589H351.989L314.369 312.858C309.521 310.065 301.062 310.414 295.463 313.643L259.204 334.589H225.421V357.28C225.41 358.348 225.711 359.396 226.288 360.296C226.864 361.195 227.69 361.906 228.665 362.342L296.806 401.719C301.655 404.53 310.113 404.163 315.712 400.934L381.132 363.145C384.045 361.399 385.579 359.339 385.736 357.28L385.771 334.589Z" fill="url(#paint32_linear_1_296)"/>
<path d="M227.567 358.868V336.177H261.332L297.591 315.231C303.19 312.002 311.648 311.636 316.497 314.446L354.047 336.16H385.702V334.589H351.989L314.369 312.858C309.521 310.065 301.062 310.414 295.463 313.643L259.204 334.589H225.421V357.28C225.41 358.348 225.711 359.396 226.288 360.296C226.864 361.195 227.69 361.906 228.665 362.342L229.049 362.569C228.552 362.093 228.163 361.517 227.907 360.879C227.652 360.241 227.535 359.555 227.567 358.868Z" fill="#D4088C"/>
<path d="M296.824 379.028L228.683 339.668C223.834 336.858 224.445 331.97 230.043 328.741L295.463 290.934C301.062 287.705 309.521 287.356 314.369 290.149L382.51 329.527C387.358 332.319 386.748 337.224 381.15 340.453L315.677 378.243C310.131 381.489 301.725 381.838 296.824 379.028Z" fill="url(#paint33_linear_1_296)"/>
<path d="M382.51 329.527L314.369 290.149C311.416 288.683 308.11 288.078 304.829 288.404C307.222 288.458 309.572 289.054 311.701 290.149L379.841 329.527C384.69 332.319 384.08 337.224 378.481 340.453L313.061 378.243C310.182 379.829 306.978 380.731 303.695 380.878C307.875 381.153 312.046 380.239 315.729 378.243L381.15 340.453C386.748 337.224 387.358 332.319 382.51 329.527Z" fill="#6EE8FC"/>
<path d="M305.213 369.655C302.99 369.716 300.787 369.211 298.812 368.189L248.077 338.865C247.301 338.503 246.638 337.936 246.159 337.226C245.68 336.516 245.402 335.689 245.356 334.833C245.48 333.731 245.889 332.681 246.544 331.787C247.199 330.893 248.076 330.186 249.088 329.736L297.8 301.582C302.108 299.086 308.701 298.842 312.451 301.006L363.186 330.312C363.961 330.681 364.622 331.251 365.101 331.964C365.58 332.676 365.858 333.505 365.906 334.362C365.781 335.463 365.371 336.512 364.716 337.406C364.062 338.3 363.185 339.007 362.174 339.459L313.427 367.595C310.908 368.968 308.081 369.677 305.213 369.655ZM306.05 300.674C303.371 300.657 300.732 301.318 298.376 302.594L249.681 330.749C248.847 331.098 248.118 331.659 247.565 332.374C247.012 333.09 246.653 333.937 246.525 334.833C246.577 335.485 246.804 336.111 247.181 336.646C247.559 337.18 248.073 337.603 248.67 337.87L299.387 367.177C302.876 369.166 308.875 368.922 312.887 366.601L361.546 338.446C362.38 338.096 363.109 337.536 363.663 336.82C364.216 336.105 364.574 335.258 364.703 334.362C364.65 333.71 364.424 333.083 364.046 332.549C363.669 332.015 363.155 331.592 362.558 331.325L311.84 301.966C310.041 301.043 308.035 300.598 306.015 300.674H306.05Z" fill="#480689"/>
<path d="M299.876 379.028L231.735 339.668C226.904 336.858 227.514 331.97 233.095 328.741L298.515 290.934C301.356 289.381 304.509 288.486 307.742 288.316C303.506 288.015 299.273 288.923 295.533 290.934L230.043 328.741C224.445 331.97 223.834 336.858 228.683 339.668L296.824 379.028C299.821 380.531 303.188 381.137 306.521 380.774C304.203 380.699 301.931 380.103 299.876 379.028Z" fill="#D4088C"/>
</g>
<g opacity="0.7">
<path d="M385.771 303.327H351.989L314.369 281.579C309.52 278.786 301.062 279.135 295.463 282.364L259.204 303.31H225.421V326.001C225.409 327.072 225.709 328.123 226.286 329.025C226.862 329.927 227.689 330.642 228.665 331.08L296.806 370.44C301.655 373.251 310.113 372.901 315.712 369.655L381.132 331.866C384.045 330.12 385.579 328.06 385.736 326.001L385.771 303.327Z" fill="url(#paint34_linear_1_296)"/>
<path d="M227.567 327.589V304.898H261.332L297.591 283.952C303.19 280.723 311.648 280.461 316.497 283.167L354.047 304.881H385.702V303.327H351.989L314.369 281.579C309.52 278.786 301.062 279.135 295.463 282.364L259.204 303.31H225.421V326.001C225.409 327.072 225.709 328.123 226.286 329.025C226.862 329.927 227.689 330.642 228.665 331.08L229.049 331.289C228.551 330.815 228.162 330.239 227.906 329.601C227.65 328.962 227.534 328.276 227.567 327.589Z" fill="#D4088C"/>
<path d="M296.824 347.767L228.683 308.389C223.834 305.596 224.445 300.709 230.043 297.462L295.463 259.673C301.062 256.426 309.521 256.077 314.369 258.887L382.51 298.248C387.358 301.058 386.748 305.945 381.15 309.174L315.677 346.981C310.131 350.21 301.725 350.559 296.824 347.767Z" fill="url(#paint35_linear_1_296)"/>
<path d="M382.51 298.248L314.369 258.888C311.426 257.385 308.12 256.744 304.829 257.037C307.23 257.124 309.58 257.757 311.701 258.888L379.841 298.248C384.69 301.058 384.08 305.945 378.481 309.175L313.061 346.981C310.181 348.561 306.976 349.457 303.695 349.6C307.872 349.871 312.042 348.964 315.729 346.981L381.15 309.175C386.748 305.945 387.358 301.058 382.51 298.248Z" fill="#6EE8FC"/>
<path d="M305.213 338.394C302.987 338.458 300.783 337.947 298.812 336.91L248.077 307.604C247.303 307.238 246.642 306.671 246.164 305.961C245.685 305.252 245.406 304.426 245.356 303.572C245.478 302.474 245.883 301.427 246.531 300.534C247.18 299.64 248.049 298.931 249.054 298.475L297.765 270.338C302.073 267.842 308.648 267.58 312.416 269.744L363.151 299.068C363.927 299.431 364.59 299.997 365.069 300.707C365.548 301.418 365.825 302.245 365.871 303.1C365.748 304.202 365.338 305.252 364.683 306.146C364.029 307.04 363.151 307.747 362.139 308.197L313.427 336.351C310.903 337.709 308.078 338.411 305.213 338.394ZM306.05 269.413C303.37 269.387 300.728 270.048 298.376 271.333L249.681 299.47C248.845 299.821 248.114 300.384 247.561 301.103C247.008 301.822 246.65 302.673 246.525 303.572C246.578 304.221 246.806 304.845 247.183 305.376C247.561 305.907 248.074 306.327 248.67 306.591L299.387 335.898C302.876 337.887 308.875 337.643 312.887 335.322L361.546 307.202C362.38 306.852 363.109 306.292 363.663 305.576C364.216 304.861 364.574 304.014 364.703 303.118C364.65 302.466 364.424 301.839 364.046 301.305C363.669 300.771 363.155 300.348 362.558 300.081L311.84 270.739C310.041 269.812 308.037 269.356 306.015 269.413H306.05Z" fill="#480689"/>
<path d="M299.876 347.766L231.735 308.389C226.904 305.596 227.514 300.709 233.095 297.462L298.515 259.673C301.353 258.111 304.508 257.216 307.742 257.055C303.506 256.744 299.27 257.653 295.533 259.673L230.043 297.462C224.445 300.709 223.834 305.596 228.683 308.389L296.824 347.766C299.827 349.252 303.189 349.857 306.521 349.512C304.204 349.428 301.935 348.832 299.876 347.766Z" fill="#D4088C"/>
</g>
<path d="M385.771 272.048H351.988L314.369 250.317C309.52 247.507 301.062 247.856 295.463 251.103L259.204 272.048H225.421V294.74C225.412 295.807 225.714 296.855 226.29 297.754C226.866 298.653 227.692 299.364 228.665 299.801L296.806 339.179C301.654 341.972 310.113 341.623 315.712 338.394L381.132 300.587C384.044 298.841 385.579 296.782 385.736 294.74L385.771 272.048Z" fill="url(#paint36_linear_1_296)"/>
<path d="M227.566 296.31V273.619H261.332L297.591 252.674C303.189 249.445 311.648 249.096 316.497 251.888L354.046 273.619H385.701V272.048H351.988L314.369 250.317C309.52 247.507 301.062 247.856 295.463 251.103L259.204 272.048H225.421V294.74C225.412 295.807 225.714 296.855 226.29 297.754C226.866 298.653 227.692 299.364 228.665 299.801L229.049 300.028C228.552 299.55 228.162 298.971 227.907 298.329C227.651 297.688 227.535 297 227.566 296.31Z" fill="#D4088C"/>
<path d="M296.824 316.488L228.683 277.11C223.834 274.318 224.445 269.43 230.043 266.201L295.463 228.394C301.062 225.165 309.521 224.903 314.369 227.609L382.51 267.056C387.358 269.849 386.748 274.736 381.15 277.966L315.677 315.703C310.131 318.932 301.725 319.281 296.824 316.488Z" fill="url(#paint37_linear_1_296)"/>
<path d="M382.51 267.056L314.369 227.609C311.423 226.115 308.119 225.474 304.829 225.759C307.23 225.845 309.58 226.478 311.701 227.609L379.841 267.056C384.69 269.849 384.08 274.737 378.481 277.966L313.061 315.703C310.179 317.281 306.977 318.182 303.695 318.338C307.875 318.612 312.046 317.699 315.729 315.703L381.15 277.896C386.748 274.667 387.358 269.779 382.51 267.056Z" fill="#6EE8FC"/>
<path d="M305.213 306.888C303.025 306.951 300.857 306.452 298.917 305.439L248.164 276.133C247.423 275.788 246.788 275.249 246.328 274.573C245.867 273.897 245.598 273.109 245.548 272.293C245.673 271.23 246.074 270.218 246.71 269.358C247.347 268.498 248.196 267.819 249.176 267.388L297.87 239.251C302.126 236.79 308.614 236.528 312.294 238.658L363.029 267.964C363.77 268.309 364.405 268.847 364.865 269.523C365.326 270.199 365.595 270.987 365.645 271.804C365.518 272.866 365.116 273.877 364.48 274.737C363.844 275.598 362.995 276.277 362.017 276.709L313.305 304.846C310.824 306.202 308.039 306.905 305.213 306.888ZM306.05 237.907C303.335 237.885 300.659 238.552 298.271 239.845L249.559 267.999C248.691 268.373 247.933 268.964 247.358 269.716C246.784 270.468 246.413 271.356 246.28 272.293C246.343 272.982 246.586 273.643 246.984 274.21C247.382 274.777 247.921 275.229 248.548 275.522L299.283 304.828C302.771 306.853 308.928 306.574 312.991 304.235L361.703 276.098C362.572 275.724 363.33 275.132 363.904 274.38C364.478 273.628 364.849 272.741 364.982 271.804C364.924 271.113 364.684 270.45 364.285 269.882C363.887 269.315 363.345 268.864 362.715 268.575L311.98 239.269C310.139 238.315 308.086 237.847 306.015 237.907H306.05Z" fill="url(#paint38_linear_1_296)"/>
<path d="M299.876 316.488L231.735 277.11C226.904 274.318 227.514 269.43 233.095 266.201L298.515 228.394C301.356 226.841 304.509 225.946 307.742 225.776C303.506 225.466 299.27 226.375 295.533 228.394L230.043 266.201C224.445 269.43 223.834 274.318 228.683 277.11L296.824 316.488C299.818 318.004 303.18 318.639 306.521 318.321C304.197 318.21 301.928 317.584 299.876 316.488Z" fill="#25BFEC"/>
<path d="M317.665 329.125L375.307 295.769C375.585 295.567 375.816 295.306 375.981 295.004C376.147 294.702 376.244 294.368 376.266 294.024V291.301C376.266 290.585 375.83 290.271 375.307 290.568L317.665 323.941C317.387 324.142 317.157 324.403 316.994 324.705C316.831 325.008 316.738 325.343 316.724 325.687V328.427C316.724 329.108 317.142 329.439 317.665 329.125Z" fill="#6DE0F6"/>
<path d="M374.051 294.984C374.33 294.783 374.56 294.522 374.723 294.22C374.886 293.917 374.978 293.582 374.993 293.239V290.673L375.307 290.498C375.83 290.201 376.266 290.498 376.266 291.231V293.954C376.244 294.298 376.147 294.632 375.981 294.934C375.816 295.236 375.585 295.497 375.307 295.7L317.665 329.056C317.142 329.37 316.724 329.056 316.724 328.34V328.165L374.051 294.984Z" fill="#267FE5"/>
<path d="M293.946 329.125L236.392 295.769C236.113 295.567 235.883 295.306 235.717 295.004C235.551 294.702 235.454 294.368 235.432 294.024V291.301C235.432 290.585 235.868 290.271 236.392 290.568L293.946 323.941C294.225 324.142 294.454 324.403 294.618 324.705C294.781 325.008 294.873 325.343 294.888 325.687V328.427C294.888 329.108 294.469 329.439 293.946 329.125Z" fill="#6DE0F6"/>
<path d="M237.56 294.984C237.279 294.784 237.047 294.524 236.881 294.221C236.714 293.919 236.619 293.583 236.601 293.239V290.673L236.304 290.498C235.781 290.201 235.345 290.498 235.345 291.231V293.954C235.367 294.298 235.464 294.632 235.63 294.934C235.796 295.236 236.026 295.497 236.304 295.7L293.859 329.056C294.382 329.37 294.801 329.056 294.801 328.34V328.165L237.56 294.984Z" fill="#267FE5"/>
<path d="M297.469 185.177L229.328 145.799C224.48 143.006 225.09 138.119 230.688 134.89L296.109 97.0828C301.707 93.8537 310.166 93.5919 315.014 96.2973L383.138 135.675C387.986 138.468 387.376 143.355 381.795 146.584L316.375 184.391C310.776 187.62 302.317 187.969 297.469 185.177Z" fill="url(#paint39_linear_1_296)"/>
<path d="M300.329 170.689L254.408 144.158C251.146 142.273 251.548 138.922 255.315 136.792L299.405 111.326C301.34 110.245 303.501 109.633 305.715 109.539C307.929 109.445 310.135 109.872 312.154 110.785L358.058 137.316C361.319 139.201 360.918 142.552 357.151 144.682L313.061 170.148C311.129 171.229 308.971 171.841 306.759 171.935C304.548 172.029 302.346 171.602 300.329 170.689Z" fill="url(#paint40_linear_1_296)"/>
<path d="M406.857 253.634L338.716 214.256C333.868 211.463 334.478 206.576 340.077 203.347L405.497 165.54C411.095 162.311 419.554 162.049 424.403 164.755L492.543 204.22C497.375 207.012 496.764 211.9 491.183 215.129L425.763 252.936C420.164 256.077 411.706 256.427 406.857 253.634Z" fill="url(#paint41_linear_1_296)"/>
<path d="M187.435 248.031L119.295 208.653C114.446 205.86 115.056 200.973 120.655 197.744L186.075 159.937C191.674 156.708 200.132 156.446 204.981 159.152L273.122 198.529C277.953 201.322 277.36 206.209 271.761 209.438L206.341 247.245C200.743 250.474 192.284 250.824 187.435 248.031Z" fill="url(#paint42_linear_1_296)"/>
<path d="M296.824 316.488L228.683 277.11C223.834 274.318 224.445 269.43 230.043 266.201L295.463 228.394C301.062 225.165 309.521 224.903 314.369 227.609L382.51 267.056C387.358 269.849 386.748 274.736 381.15 277.966L315.677 315.703C310.131 318.932 301.725 319.281 296.824 316.488Z" fill="url(#paint43_linear_1_296)"/>
<path d="M300.382 298.475L259.867 275.068C256.989 273.323 257.355 270.495 260.687 268.575L299.579 246.111C301.282 245.152 303.187 244.61 305.139 244.528C307.091 244.446 309.034 244.827 310.811 245.64L351.343 269.046C354.221 270.792 353.855 273.619 350.524 275.539L311.613 298.021C309.909 298.977 308.004 299.516 306.052 299.595C304.1 299.674 302.157 299.29 300.382 298.475Z" fill="url(#paint44_linear_1_296)"/>
<path opacity="0.8" d="M540.418 342.845L623 295.141L481.695 230.594L428.71 261.209L540.418 342.845Z" fill="url(#paint45_linear_1_296)" style="mix-blend-mode:lighten"/>
<path d="M415.734 181.092L412.49 179.225L415.734 177.357L418.961 179.225L415.734 181.092Z" fill="#6DE0F6"/>
<path opacity="0.1" d="M422.205 184.828L418.961 182.96L422.205 181.092L425.431 182.96L422.205 184.828Z" fill="#6DE0F6"/>
<path opacity="0.4" d="M428.675 188.58L425.432 186.712L428.675 184.827L431.902 186.712L428.675 188.58Z" fill="#6DE0F6"/>
<path d="M435.146 192.315L431.902 190.448L435.146 188.58L438.373 190.448L435.146 192.315Z" fill="#6DE0F6"/>
<path opacity="0.4" d="M441.617 196.051L438.373 194.183L441.617 192.315L444.843 194.183L441.617 196.051Z" fill="#6DE0F6"/>
<path d="M448.087 199.786L444.843 197.918L448.087 196.051L451.313 197.918L448.087 199.786Z" fill="#6DE0F6"/>
<path d="M454.557 203.521L451.313 201.654L454.557 199.786L457.784 201.654L454.557 203.521Z" fill="#6DE0F6"/>
<path d="M461.028 207.274L457.784 205.389L461.028 203.521L464.255 205.389L461.028 207.274Z" fill="#6DE0F6"/>
<path opacity="0.1" d="M467.499 211.01L464.255 209.142L467.499 207.274L470.725 209.142L467.499 211.01Z" fill="#6DE0F6"/>
<path d="M409.229 184.845L406.003 182.977L409.229 181.11L412.473 182.977L409.229 184.845Z" fill="#6DE0F6"/>
<path d="M415.7 188.598L412.473 186.713L415.7 184.845L418.944 186.713L415.7 188.598Z" fill="#6DE0F6"/>
<path d="M422.17 192.333L418.943 190.465L422.17 188.598L425.414 190.465L422.17 192.333Z" fill="#6DE0F6"/>
<path d="M428.641 196.068L425.414 194.201L428.641 192.333L431.885 194.201L428.641 196.068Z" fill="#6DE0F6"/>
<path d="M435.111 199.804L431.885 197.936L435.111 196.068L438.355 197.936L435.111 199.804Z" fill="#6DE0F6"/>
<path d="M441.582 203.539L438.355 201.671L441.582 199.804L444.826 201.671L441.582 203.539Z" fill="#6DE0F6"/>
<path d="M448.052 207.274L444.826 205.406L448.052 203.539L451.296 205.406L448.052 207.274Z" fill="#6DE0F6"/>
<path d="M454.522 211.027L451.296 209.16L454.522 207.274L457.766 209.16L454.522 211.027Z" fill="#6DE0F6"/>
<path d="M460.993 214.762L457.767 212.895L460.993 211.027L464.237 212.895L460.993 214.762Z" fill="#6DE0F6"/>
<path d="M402.741 188.598L399.497 186.73L402.741 184.862L405.968 186.73L402.741 188.598Z" fill="#6DE0F6"/>
<path d="M409.212 192.35L405.968 190.483L409.212 188.598L412.438 190.483L409.212 192.35Z" fill="#6DE0F6"/>
<path d="M415.682 196.086L412.438 194.218L415.682 192.351L418.909 194.218L415.682 196.086Z" fill="#6DE0F6"/>
<path opacity="0.1" d="M422.153 199.821L418.909 197.953L422.153 196.086L425.379 197.953L422.153 199.821Z" fill="#6DE0F6"/>
<path opacity="0.4" d="M428.623 203.557L425.379 201.689L428.623 199.821L431.849 201.689L428.623 203.557Z" fill="#6DE0F6"/>
<path opacity="0.4" d="M435.094 207.292L431.85 205.424L435.094 203.556L438.32 205.424L435.094 207.292Z" fill="#6DE0F6"/>
<path d="M441.564 211.045L438.32 209.159L441.564 207.292L444.791 209.159L441.564 211.045Z" fill="#6DE0F6"/>
<path d="M448.035 214.78L444.791 212.912L448.035 211.044L451.262 212.912L448.035 214.78Z" fill="#6DE0F6"/>
<path d="M454.505 218.515L451.261 216.647L454.505 214.78L457.732 216.647L454.505 218.515Z" fill="#6DE0F6"/>
<path opacity="0.4" d="M396.236 192.351L393.009 190.483L396.236 188.615L399.48 190.483L396.236 192.351Z" fill="#6DE0F6"/>
<path opacity="0.4" d="M402.706 196.103L399.479 194.236L402.706 192.351L405.95 194.236L402.706 196.103Z" fill="#6DE0F6"/>
<path opacity="0.1" d="M409.177 199.839L405.95 197.971L409.177 196.103L412.421 197.971L409.177 199.839Z" fill="#6DE0F6"/>
<path d="M415.647 203.574L412.421 201.706L415.647 199.838L418.891 201.706L415.647 203.574Z" fill="#6DE0F6"/>
<path d="M422.118 207.309L418.891 205.441L422.118 203.574L425.362 205.441L422.118 207.309Z" fill="#6DE0F6"/>
<path d="M428.588 211.044L425.362 209.177L428.588 207.309L431.832 209.177L428.588 211.044Z" fill="#6DE0F6"/>
<path opacity="0.4" d="M435.059 214.797L431.832 212.912L435.059 211.044L438.303 212.912L435.059 214.797Z" fill="#6DE0F6"/>
<path d="M441.529 218.532L438.303 216.665L441.529 214.797L444.773 216.665L441.529 218.532Z" fill="#6DE0F6"/>
<path d="M448 222.268L444.773 220.4L448 218.532L451.244 220.4L448 222.268Z" fill="#6DE0F6"/>
<path d="M389.748 196.121L386.504 194.236L389.748 192.368L392.974 194.236L389.748 196.121Z" fill="#6DE0F6"/>
<path d="M396.219 199.856L392.975 197.988L396.219 196.121L399.445 197.988L396.219 199.856Z" fill="#6DE0F6"/>
<path d="M402.689 203.591L399.445 201.724L402.689 199.856L405.915 201.724L402.689 203.591Z" fill="#6DE0F6"/>
<path d="M409.159 207.327L405.915 205.459L409.159 203.591L412.386 205.459L409.159 207.327Z" fill="#6DE0F6"/>
<path d="M415.63 211.062L412.386 209.194L415.63 207.327L418.856 209.194L415.63 211.062Z" fill="#6DE0F6"/>
<path d="M422.1 214.797L418.856 212.929L422.1 211.062L425.327 212.929L422.1 214.797Z" fill="#6DE0F6"/>
<path d="M428.571 218.55L425.327 216.682L428.571 214.797L431.798 216.682L428.571 218.55Z" fill="#6DE0F6"/>
<path d="M435.041 222.285L431.797 220.417L435.041 218.55L438.268 220.417L435.041 222.285Z" fill="#6DE0F6"/>
<path d="M441.512 226.02L438.268 224.153L441.512 222.285L444.738 224.153L441.512 226.02Z" fill="#6DE0F6"/>
<path d="M383.242 199.856L380.016 198.006L383.242 196.121L386.486 198.006L383.242 199.856Z" fill="#6DE0F6"/>
<path d="M389.713 203.609L386.486 201.741L389.713 199.874L392.957 201.741L389.713 203.609Z" fill="#6DE0F6"/>
<path opacity="0.4" d="M396.183 207.344L392.957 205.476L396.183 203.609L399.427 205.476L396.183 207.344Z" fill="#6DE0F6"/>
<path d="M402.654 211.079L399.427 209.212L402.654 207.344L405.898 209.212L402.654 211.079Z" fill="#6DE0F6"/>
<path opacity="0.1" d="M409.124 214.815L405.898 212.947L409.124 211.079L412.368 212.947L409.124 214.815Z" fill="#6DE0F6"/>
<path d="M415.595 218.567L412.368 216.682L415.595 214.814L418.839 216.682L415.595 218.567Z" fill="#6DE0F6"/>
<path d="M422.065 222.303L418.839 220.435L422.065 218.567L425.309 220.435L422.065 222.303Z" fill="#6DE0F6"/>
<path d="M428.536 226.038L425.309 224.17L428.536 222.303L431.78 224.17L428.536 226.038Z" fill="#6DE0F6"/>
<path d="M435.006 229.773L431.78 227.906L435.006 226.038L438.25 227.906L435.006 229.773Z" fill="#6DE0F6"/>
<path d="M376.755 203.626L373.511 201.741L376.755 199.874L379.981 201.741L376.755 203.626Z" fill="#6DE0F6"/>
<path d="M383.225 207.362L379.981 205.494L383.225 203.626L386.451 205.494L383.225 207.362Z" fill="#6DE0F6"/>
<path opacity="0.4" d="M389.696 211.097L386.452 209.229L389.696 207.362L392.922 209.229L389.696 211.097Z" fill="#6DE0F6"/>
<path d="M396.166 214.832L392.922 212.964L396.166 211.097L399.393 212.964L396.166 214.832Z" fill="#6DE0F6"/>
<path d="M402.637 218.567L399.393 216.7L402.637 214.832L405.863 216.7L402.637 218.567Z" fill="#6DE0F6"/>
<path opacity="0.1" d="M409.107 222.303L405.863 220.435L409.107 218.567L412.334 220.435L409.107 222.303Z" fill="#6DE0F6"/>
<path opacity="0.4" d="M415.577 226.055L412.333 224.188L415.577 222.303L418.804 224.188L415.577 226.055Z" fill="#6DE0F6"/>
<path d="M422.048 229.791L418.804 227.923L422.048 226.055L425.275 227.923L422.048 229.791Z" fill="#6DE0F6"/>
<path opacity="0.1" d="M428.519 233.526L425.275 231.658L428.519 229.791L431.745 231.658L428.519 233.526Z" fill="#6DE0F6"/>
<path d="M370.249 207.379L367.023 205.511L370.249 203.644L373.493 205.511L370.249 207.379Z" fill="#6DE0F6"/>
<path opacity="0.4" d="M376.72 211.114L373.493 209.247L376.72 207.379L379.964 209.247L376.72 211.114Z" fill="#6DE0F6"/>
<path d="M383.19 214.85L379.964 212.982L383.19 211.114L386.434 212.982L383.19 214.85Z" fill="#6DE0F6"/>
<path d="M389.661 218.585L386.434 216.717L389.661 214.85L392.905 216.717L389.661 218.585Z" fill="#6DE0F6"/>
<path d="M396.131 222.32L392.904 220.453L396.131 218.585L399.375 220.453L396.131 222.32Z" fill="#6DE0F6"/>
<path d="M402.602 226.073L399.375 224.188L402.602 222.32L405.846 224.188L402.602 226.073Z" fill="#6DE0F6"/>
<path d="M409.072 229.808L405.846 227.94L409.072 226.073L412.316 227.94L409.072 229.808Z" fill="#6DE0F6"/>
<path opacity="0.4" d="M415.543 233.543L412.316 231.676L415.543 229.808L418.787 231.676L415.543 233.543Z" fill="#6DE0F6"/>
<path d="M422.013 237.279L418.786 235.411L422.013 233.543L425.257 235.411L422.013 237.279Z" fill="#6DE0F6"/>
<path d="M363.761 211.132L360.517 209.264L363.761 207.379L366.988 209.264L363.761 211.132Z" fill="#6DE0F6"/>
<path opacity="0.1" d="M370.232 214.867L366.988 212.999L370.232 211.132L373.458 212.999L370.232 214.867Z" fill="#6DE0F6"/>
<path d="M376.702 218.602L373.458 216.735L376.702 214.867L379.929 216.735L376.702 218.602Z" fill="#6DE0F6"/>
<path d="M383.173 222.338L379.929 220.47L383.173 218.602L386.399 220.47L383.173 222.338Z" fill="#6DE0F6"/>
<path d="M389.643 226.091L386.399 224.206L389.643 222.338L392.87 224.206L389.643 226.091Z" fill="#6DE0F6"/>
<path d="M396.114 229.826L392.87 227.941L396.114 226.09L399.34 227.941L396.114 229.826Z" fill="#6DE0F6"/>
<path opacity="0.4" d="M402.584 233.561L399.34 231.693L402.584 229.826L405.811 231.693L402.584 233.561Z" fill="#6DE0F6"/>
<path d="M409.055 237.296L405.811 235.429L409.055 233.561L412.281 235.429L409.055 237.296Z" fill="#6DE0F6"/>
<path d="M415.525 241.031L412.281 239.164L415.525 237.296L418.752 239.164L415.525 241.031Z" fill="#6DE0F6"/>
<path d="M415.194 244.366C413.004 244.425 410.836 243.92 408.898 242.899L357.5 213.226C356.766 212.888 356.137 212.358 355.679 211.691C355.222 211.024 354.953 210.246 354.901 209.439C355.032 208.384 355.434 207.382 356.066 206.529C356.699 205.675 357.541 205 358.511 204.569L407.869 176.065C412.142 173.587 418.647 173.325 422.362 175.472L473.76 205.145C474.488 205.489 475.112 206.021 475.566 206.687C476.02 207.353 476.287 208.128 476.341 208.933C476.213 209.988 475.813 210.992 475.18 211.846C474.547 212.7 473.703 213.374 472.731 213.802L423.391 242.306C420.88 243.683 418.057 244.393 415.194 244.366ZM416.048 174.547C413.284 174.509 410.555 175.169 408.113 176.467L358.756 204.988C357.859 205.376 357.078 205.99 356.488 206.77C355.898 207.55 355.52 208.469 355.39 209.439C355.439 210.159 355.682 210.853 356.094 211.446C356.505 212.039 357.069 212.51 357.727 212.807L409.124 242.48C412.717 244.54 418.996 244.226 423.077 241.887L472.417 213.366C473.315 212.977 474.098 212.363 474.691 211.584C475.283 210.804 475.665 209.885 475.8 208.915C475.744 208.194 475.496 207.502 475.082 206.909C474.668 206.317 474.103 205.846 473.446 205.546L422.048 175.873C420.194 174.927 418.129 174.47 416.048 174.547Z" fill="#480689"/>
</g>
<defs>
<linearGradient id="paint0_linear_1_296" x1="69.9958" y1="347.398" x2="11.9499" y2="405.397" gradientUnits="userSpaceOnUse">
<stop stop-color="#D4088C"/>
<stop offset="0.04" stop-color="#CC088C"/>
<stop offset="0.46" stop-color="#85078A"/>
<stop offset="0.76" stop-color="#590689"/>
<stop offset="0.91" stop-color="#480689"/>
</linearGradient>
<linearGradient id="paint1_linear_1_296" x1="111.063" y1="86.453" x2="77.088" y2="86.453" gradientUnits="userSpaceOnUse">
<stop stop-color="#6EE8FC"/>
<stop offset="0.16" stop-color="#6AE2FB"/>
<stop offset="0.37" stop-color="#5ED1F7"/>
<stop offset="0.61" stop-color="#4BB5F1"/>
<stop offset="0.87" stop-color="#308EE8"/>
<stop offset="0.96" stop-color="#267FE5"/>
</linearGradient>
<linearGradient id="paint2_linear_1_296" x1="549.7" y1="236.698" x2="618.102" y2="270.656" gradientUnits="userSpaceOnUse">
<stop stop-color="#6EE8FC"/>
<stop offset="0.16" stop-color="#6AE2FB"/>
<stop offset="0.37" stop-color="#5ED1F7"/>
<stop offset="0.61" stop-color="#4BB5F1"/>
<stop offset="0.87" stop-color="#308EE8"/>
<stop offset="0.96" stop-color="#267FE5"/>
</linearGradient>
<linearGradient id="paint3_linear_1_296" x1="210.893" y1="257.264" x2="406.264" y2="257.264" gradientUnits="userSpaceOnUse">
<stop stop-color="#A31FA9"/>
<stop offset="0.07" stop-color="#8B17A0"/>
<stop offset="0.15" stop-color="#740F98"/>
<stop offset="0.24" stop-color="#640A92"/>
<stop offset="0.34" stop-color="#5B078F"/>
<stop offset="0.48" stop-color="#58068E"/>
<stop offset="0.63" stop-color="#4D22A3"/>
<stop offset="0.94" stop-color="#3168DA"/>
<stop offset="1" stop-color="#2C75E4"/>
</linearGradient>
<linearGradient id="paint4_linear_1_296" x1="227.769" y1="237.713" x2="378.771" y2="274.438" gradientUnits="userSpaceOnUse">
<stop stop-color="#8D139B"/>
<stop offset="0.17" stop-color="#851BA1"/>
<stop offset="0.43" stop-color="#6E33B2"/>
<stop offset="0.76" stop-color="#4958CD"/>
<stop offset="1" stop-color="#2979E4"/>
</linearGradient>
<linearGradient id="paint5_linear_1_296" x1="210.893" y1="225.986" x2="406.264" y2="225.986" gradientUnits="userSpaceOnUse">
<stop stop-color="#A31FA9"/>
<stop offset="0.07" stop-color="#8B17A0"/>
<stop offset="0.15" stop-color="#740F98"/>
<stop offset="0.24" stop-color="#640A92"/>
<stop offset="0.34" stop-color="#5B078F"/>
<stop offset="0.48" stop-color="#58068E"/>
<stop offset="0.63" stop-color="#4D22A3"/>
<stop offset="0.94" stop-color="#3168DA"/>
<stop offset="1" stop-color="#2C75E4"/>
</linearGradient>
<linearGradient id="paint6_linear_1_296" x1="227.628" y1="206.371" x2="378.63" y2="243.097" gradientUnits="userSpaceOnUse">
<stop stop-color="#8D139B"/>
<stop offset="0.17" stop-color="#851BA1"/>
<stop offset="0.43" stop-color="#6E33B2"/>
<stop offset="0.76" stop-color="#4958CD"/>
<stop offset="1" stop-color="#2979E4"/>
</linearGradient>
<linearGradient id="paint7_linear_1_296" x1="210.893" y1="194.724" x2="406.264" y2="194.724" gradientUnits="userSpaceOnUse">
<stop stop-color="#A31FA9"/>
<stop offset="0.07" stop-color="#8B17A0"/>
<stop offset="0.15" stop-color="#740F98"/>
<stop offset="0.24" stop-color="#640A92"/>
<stop offset="0.34" stop-color="#5B078F"/>
<stop offset="0.48" stop-color="#58068E"/>
<stop offset="0.63" stop-color="#4D22A3"/>
<stop offset="0.94" stop-color="#3168DA"/>
<stop offset="1" stop-color="#2C75E4"/>
</linearGradient>
<linearGradient id="paint8_linear_1_296" x1="227.506" y1="175.02" x2="378.508" y2="211.745" gradientUnits="userSpaceOnUse">
<stop stop-color="#8D139B"/>
<stop offset="0.17" stop-color="#851BA1"/>
<stop offset="0.43" stop-color="#6E33B2"/>
<stop offset="0.76" stop-color="#4958CD"/>
<stop offset="1" stop-color="#2979E4"/>
</linearGradient>
<linearGradient id="paint9_linear_1_296" x1="210.893" y1="163.445" x2="406.264" y2="163.445" gradientUnits="userSpaceOnUse">
<stop stop-color="#A31FA9"/>
<stop offset="0.07" stop-color="#8B17A0"/>
<stop offset="0.15" stop-color="#740F98"/>
<stop offset="0.24" stop-color="#640A92"/>
<stop offset="0.34" stop-color="#5B078F"/>
<stop offset="0.48" stop-color="#58068E"/>
<stop offset="0.63" stop-color="#4D22A3"/>
<stop offset="0.94" stop-color="#3168DA"/>
<stop offset="1" stop-color="#2C75E4"/>
</linearGradient>
<linearGradient id="paint10_linear_1_296" x1="227.381" y1="143.687" x2="378.383" y2="180.413" gradientUnits="userSpaceOnUse">
<stop stop-color="#267FE5"/>
<stop offset="0.17" stop-color="#2C87E7"/>
<stop offset="0.44" stop-color="#3D9FEB"/>
<stop offset="0.78" stop-color="#59C4F2"/>
<stop offset="1" stop-color="#6EE1F8"/>
</linearGradient>
<linearGradient id="paint11_linear_1_296" x1="245.967" y1="140.737" x2="366.517" y2="140.737" gradientUnits="userSpaceOnUse">
<stop stop-color="#6DE0F6"/>
<stop offset="0.16" stop-color="#68D8F5"/>
<stop offset="0.41" stop-color="#5AC0F1"/>
<stop offset="0.73" stop-color="#439BEA"/>
<stop offset="1" stop-color="#2C75E4"/>
</linearGradient>
<linearGradient id="paint12_linear_1_296" x1="320.281" y1="325.722" x2="515.652" y2="325.722" gradientUnits="userSpaceOnUse">
<stop stop-color="#A31FA9"/>
<stop offset="0.07" stop-color="#8B17A0"/>
<stop offset="0.15" stop-color="#740F98"/>
<stop offset="0.24" stop-color="#640A92"/>
<stop offset="0.34" stop-color="#5B078F"/>
<stop offset="0.48" stop-color="#58068E"/>
<stop offset="0.63" stop-color="#4D22A3"/>
<stop offset="0.94" stop-color="#3168DA"/>
<stop offset="1" stop-color="#2C75E4"/>
</linearGradient>
<linearGradient id="paint13_linear_1_296" x1="337.67" y1="306.185" x2="488.672" y2="342.91" gradientUnits="userSpaceOnUse">
<stop stop-color="#8D139B"/>
<stop offset="0.17" stop-color="#851BA1"/>
<stop offset="0.43" stop-color="#6E33B2"/>
<stop offset="0.76" stop-color="#4958CD"/>
<stop offset="1" stop-color="#2979E4"/>
</linearGradient>
<linearGradient id="paint14_linear_1_296" x1="320.281" y1="294.443" x2="515.652" y2="294.443" gradientUnits="userSpaceOnUse">
<stop stop-color="#A31FA9"/>
<stop offset="0.07" stop-color="#8B17A0"/>
<stop offset="0.15" stop-color="#740F98"/>
<stop offset="0.24" stop-color="#640A92"/>
<stop offset="0.34" stop-color="#5B078F"/>
<stop offset="0.48" stop-color="#58068E"/>
<stop offset="0.63" stop-color="#4D22A3"/>
<stop offset="0.94" stop-color="#3168DA"/>
<stop offset="1" stop-color="#2C75E4"/>
</linearGradient>
<linearGradient id="paint15_linear_1_296" x1="337.562" y1="274.842" x2="488.559" y2="311.542" gradientUnits="userSpaceOnUse">
<stop stop-color="#8D139B"/>
<stop offset="0.17" stop-color="#851BA1"/>
<stop offset="0.43" stop-color="#6E33B2"/>
<stop offset="0.76" stop-color="#4958CD"/>
<stop offset="1" stop-color="#2979E4"/>
</linearGradient>
<linearGradient id="paint16_linear_1_296" x1="320.281" y1="263.182" x2="515.652" y2="263.182" gradientUnits="userSpaceOnUse">
<stop stop-color="#A31FA9"/>
<stop offset="0.07" stop-color="#8B17A0"/>
<stop offset="0.15" stop-color="#740F98"/>
<stop offset="0.24" stop-color="#640A92"/>
<stop offset="0.34" stop-color="#5B078F"/>
<stop offset="0.48" stop-color="#58068E"/>
<stop offset="0.63" stop-color="#4D22A3"/>
<stop offset="0.94" stop-color="#3168DA"/>
<stop offset="1" stop-color="#2C75E4"/>
</linearGradient>
<linearGradient id="paint17_linear_1_296" x1="337.422" y1="243.501" x2="488.424" y2="280.226" gradientUnits="userSpaceOnUse">
<stop stop-color="#8D139B"/>
<stop offset="0.17" stop-color="#851BA1"/>
<stop offset="0.43" stop-color="#6E33B2"/>
<stop offset="0.76" stop-color="#4958CD"/>
<stop offset="1" stop-color="#2979E4"/>
</linearGradient>
<linearGradient id="paint18_linear_1_296" x1="320.281" y1="231.903" x2="515.652" y2="231.903" gradientUnits="userSpaceOnUse">
<stop stop-color="#A31FA9"/>
<stop offset="0.07" stop-color="#8B17A0"/>
<stop offset="0.15" stop-color="#740F98"/>
<stop offset="0.24" stop-color="#640A92"/>
<stop offset="0.34" stop-color="#5B078F"/>
<stop offset="0.48" stop-color="#58068E"/>
<stop offset="0.63" stop-color="#4D22A3"/>
<stop offset="0.94" stop-color="#3168DA"/>
<stop offset="1" stop-color="#2C75E4"/>
</linearGradient>
<linearGradient id="paint19_linear_1_296" x1="337.299" y1="212.15" x2="488.301" y2="248.875" gradientUnits="userSpaceOnUse">
<stop stop-color="#267FE5"/>
<stop offset="0.17" stop-color="#2C87E7"/>
<stop offset="0.44" stop-color="#3D9FEB"/>
<stop offset="0.78" stop-color="#59C4F2"/>
<stop offset="1" stop-color="#6EE1F8"/>
</linearGradient>
<linearGradient id="paint20_linear_1_296" x1="355.354" y1="209.194" x2="475.905" y2="209.194" gradientUnits="userSpaceOnUse">
<stop stop-color="#6DE0F6"/>
<stop offset="0.16" stop-color="#68D8F5"/>
<stop offset="0.41" stop-color="#5AC0F1"/>
<stop offset="0.73" stop-color="#439BEA"/>
<stop offset="1" stop-color="#2C75E4"/>
</linearGradient>
<linearGradient id="paint21_linear_1_296" x1="100.86" y1="320.119" x2="296.231" y2="320.119" gradientUnits="userSpaceOnUse">
<stop stop-color="#A31FA9"/>
<stop offset="0.07" stop-color="#8B17A0"/>
<stop offset="0.15" stop-color="#740F98"/>
<stop offset="0.24" stop-color="#640A92"/>
<stop offset="0.34" stop-color="#5B078F"/>
<stop offset="0.48" stop-color="#58068E"/>
<stop offset="0.63" stop-color="#4D22A3"/>
<stop offset="0.94" stop-color="#3168DA"/>
<stop offset="1" stop-color="#2C75E4"/>
</linearGradient>
<linearGradient id="paint22_linear_1_296" x1="117.726" y1="300.852" x2="268.728" y2="337.577" gradientUnits="userSpaceOnUse">
<stop stop-color="#8D139B"/>
<stop offset="0.17" stop-color="#851BA1"/>
<stop offset="0.43" stop-color="#6E33B2"/>
<stop offset="0.76" stop-color="#4958CD"/>
<stop offset="1" stop-color="#2979E4"/>
</linearGradient>
<linearGradient id="paint23_linear_1_296" x1="100.86" y1="288.84" x2="296.231" y2="288.84" gradientUnits="userSpaceOnUse">
<stop stop-color="#A31FA9"/>
<stop offset="0.07" stop-color="#8B17A0"/>
<stop offset="0.15" stop-color="#740F98"/>
<stop offset="0.24" stop-color="#640A92"/>
<stop offset="0.34" stop-color="#5B078F"/>
<stop offset="0.48" stop-color="#58068E"/>
<stop offset="0.63" stop-color="#4D22A3"/>
<stop offset="0.94" stop-color="#3168DA"/>
<stop offset="1" stop-color="#2C75E4"/>
</linearGradient>
<linearGradient id="paint24_linear_1_296" x1="117.603" y1="269.501" x2="268.605" y2="306.226" gradientUnits="userSpaceOnUse">
<stop stop-color="#8D139B"/>
<stop offset="0.17" stop-color="#851BA1"/>
<stop offset="0.43" stop-color="#6E33B2"/>
<stop offset="0.76" stop-color="#4958CD"/>
<stop offset="1" stop-color="#2979E4"/>
</linearGradient>
<linearGradient id="paint25_linear_1_296" x1="100.86" y1="257.561" x2="296.231" y2="257.561" gradientUnits="userSpaceOnUse">
<stop stop-color="#A31FA9"/>
<stop offset="0.07" stop-color="#8B17A0"/>
<stop offset="0.15" stop-color="#740F98"/>
<stop offset="0.24" stop-color="#640A92"/>
<stop offset="0.34" stop-color="#5B078F"/>
<stop offset="0.48" stop-color="#58068E"/>
<stop offset="0.63" stop-color="#4D22A3"/>
<stop offset="0.94" stop-color="#3168DA"/>
<stop offset="1" stop-color="#2C75E4"/>
</linearGradient>
<linearGradient id="paint26_linear_1_296" x1="117.478" y1="238.168" x2="268.475" y2="274.868" gradientUnits="userSpaceOnUse">
<stop stop-color="#8D139B"/>
<stop offset="0.17" stop-color="#851BA1"/>
<stop offset="0.43" stop-color="#6E33B2"/>
<stop offset="0.76" stop-color="#4958CD"/>
<stop offset="1" stop-color="#2979E4"/>
</linearGradient>
<linearGradient id="paint27_linear_1_296" x1="100.86" y1="226.3" x2="296.231" y2="226.3" gradientUnits="userSpaceOnUse">
<stop stop-color="#A31FA9"/>
<stop offset="0.07" stop-color="#8B17A0"/>
<stop offset="0.15" stop-color="#740F98"/>
<stop offset="0.24" stop-color="#640A92"/>
<stop offset="0.34" stop-color="#5B078F"/>
<stop offset="0.48" stop-color="#58068E"/>
<stop offset="0.63" stop-color="#4D22A3"/>
<stop offset="0.94" stop-color="#3168DA"/>
<stop offset="1" stop-color="#2C75E4"/>
</linearGradient>
<linearGradient id="paint28_linear_1_296" x1="117.355" y1="206.817" x2="268.357" y2="243.542" gradientUnits="userSpaceOnUse">
<stop stop-color="#267FE5"/>
<stop offset="0.17" stop-color="#2C87E7"/>
<stop offset="0.44" stop-color="#3D9FEB"/>
<stop offset="0.78" stop-color="#59C4F2"/>
<stop offset="1" stop-color="#6EE1F8"/>
</linearGradient>
<linearGradient id="paint29_linear_1_296" x1="135.933" y1="203.591" x2="256.483" y2="203.591" gradientUnits="userSpaceOnUse">
<stop stop-color="#6DE0F6"/>
<stop offset="0.16" stop-color="#68D8F5"/>
<stop offset="0.41" stop-color="#5AC0F1"/>
<stop offset="0.73" stop-color="#439BEA"/>
<stop offset="1" stop-color="#2C75E4"/>
</linearGradient>
<linearGradient id="paint30_linear_1_296" x1="210.248" y1="388.576" x2="405.619" y2="388.576" gradientUnits="userSpaceOnUse">
<stop stop-color="#A31FA9"/>
<stop offset="0.07" stop-color="#8B17A0"/>
<stop offset="0.15" stop-color="#740F98"/>
<stop offset="0.24" stop-color="#640A92"/>
<stop offset="0.34" stop-color="#5B078F"/>
<stop offset="0.48" stop-color="#58068E"/>
<stop offset="0.63" stop-color="#4D22A3"/>
<stop offset="0.94" stop-color="#3168DA"/>
<stop offset="1" stop-color="#2C75E4"/>
</linearGradient>
<linearGradient id="paint31_linear_1_296" x1="227.644" y1="369.315" x2="378.646" y2="406.04" gradientUnits="userSpaceOnUse">
<stop stop-color="#8D139B"/>
<stop offset="0.17" stop-color="#851BA1"/>
<stop offset="0.43" stop-color="#6E33B2"/>
<stop offset="0.76" stop-color="#4958CD"/>
<stop offset="1" stop-color="#2979E4"/>
</linearGradient>
<linearGradient id="paint32_linear_1_296" x1="210.248" y1="357.297" x2="405.619" y2="357.297" gradientUnits="userSpaceOnUse">
<stop stop-color="#A31FA9"/>
<stop offset="0.07" stop-color="#8B17A0"/>
<stop offset="0.15" stop-color="#740F98"/>
<stop offset="0.24" stop-color="#640A92"/>
<stop offset="0.34" stop-color="#5B078F"/>
<stop offset="0.48" stop-color="#58068E"/>
<stop offset="0.63" stop-color="#4D22A3"/>
<stop offset="0.94" stop-color="#3168DA"/>
<stop offset="1" stop-color="#2C75E4"/>
</linearGradient>
<linearGradient id="paint33_linear_1_296" x1="227.519" y1="337.982" x2="378.521" y2="374.707" gradientUnits="userSpaceOnUse">
<stop stop-color="#8D139B"/>
<stop offset="0.17" stop-color="#851BA1"/>
<stop offset="0.43" stop-color="#6E33B2"/>
<stop offset="0.76" stop-color="#4958CD"/>
<stop offset="1" stop-color="#2979E4"/>
</linearGradient>
<linearGradient id="paint34_linear_1_296" x1="210.248" y1="326.018" x2="405.619" y2="326.018" gradientUnits="userSpaceOnUse">
<stop stop-color="#A31FA9"/>
<stop offset="0.07" stop-color="#8B17A0"/>
<stop offset="0.15" stop-color="#740F98"/>
<stop offset="0.24" stop-color="#640A92"/>
<stop offset="0.34" stop-color="#5B078F"/>
<stop offset="0.48" stop-color="#58068E"/>
<stop offset="0.63" stop-color="#4D22A3"/>
<stop offset="0.94" stop-color="#3168DA"/>
<stop offset="1" stop-color="#2C75E4"/>
</linearGradient>
<linearGradient id="paint35_linear_1_296" x1="227.397" y1="306.631" x2="378.398" y2="343.356" gradientUnits="userSpaceOnUse">
<stop stop-color="#8D139B"/>
<stop offset="0.17" stop-color="#851BA1"/>
<stop offset="0.43" stop-color="#6E33B2"/>
<stop offset="0.76" stop-color="#4958CD"/>
<stop offset="1" stop-color="#2979E4"/>
</linearGradient>
<linearGradient id="paint36_linear_1_296" x1="210.248" y1="294.757" x2="405.619" y2="294.757" gradientUnits="userSpaceOnUse">
<stop stop-color="#A31FA9"/>
<stop offset="0.07" stop-color="#8B17A0"/>
<stop offset="0.15" stop-color="#740F98"/>
<stop offset="0.24" stop-color="#640A92"/>
<stop offset="0.34" stop-color="#5B078F"/>
<stop offset="0.48" stop-color="#58068E"/>
<stop offset="0.63" stop-color="#4D22A3"/>
<stop offset="0.94" stop-color="#3168DA"/>
<stop offset="1" stop-color="#2C75E4"/>
</linearGradient>
<linearGradient id="paint37_linear_1_296" x1="227.256" y1="275.289" x2="378.258" y2="312.015" gradientUnits="userSpaceOnUse">
<stop stop-color="#267FE5"/>
<stop offset="0.17" stop-color="#2C87E7"/>
<stop offset="0.44" stop-color="#3D9FEB"/>
<stop offset="0.78" stop-color="#59C4F2"/>
<stop offset="1" stop-color="#6EE1F8"/>
</linearGradient>
<linearGradient id="paint38_linear_1_296" x1="245.548" y1="272.048" x2="365.645" y2="272.048" gradientUnits="userSpaceOnUse">
<stop stop-color="#6DE0F6"/>
<stop offset="0.16" stop-color="#68D8F5"/>
<stop offset="0.41" stop-color="#5AC0F1"/>
<stop offset="0.73" stop-color="#439BEA"/>
<stop offset="1" stop-color="#2C75E4"/>
</linearGradient>
<linearGradient id="paint39_linear_1_296" x1="227.381" y1="143.687" x2="378.383" y2="180.413" gradientUnits="userSpaceOnUse">
<stop stop-color="#8D139B"/>
<stop offset="0.17" stop-color="#851BA1"/>
<stop offset="0.43" stop-color="#6E33B2"/>
<stop offset="0.76" stop-color="#4958CD"/>
<stop offset="1" stop-color="#2979E4"/>
</linearGradient>
<linearGradient id="paint40_linear_1_296" x1="254.023" y1="143.653" x2="355.785" y2="168.375" gradientUnits="userSpaceOnUse">
<stop stop-color="#267FE5"/>
<stop offset="0.17" stop-color="#2C87E7"/>
<stop offset="0.44" stop-color="#3D9FEB"/>
<stop offset="0.78" stop-color="#59C4F2"/>
<stop offset="1" stop-color="#6EE1F8"/>
</linearGradient>
<linearGradient id="paint41_linear_1_296" x1="337.299" y1="212.15" x2="488.301" y2="248.875" gradientUnits="userSpaceOnUse">
<stop stop-color="#8D139B"/>
<stop offset="0.17" stop-color="#851BA1"/>
<stop offset="0.43" stop-color="#6E33B2"/>
<stop offset="0.76" stop-color="#4958CD"/>
<stop offset="1" stop-color="#2979E4"/>
</linearGradient>
<linearGradient id="paint42_linear_1_296" x1="117.355" y1="206.817" x2="268.357" y2="243.542" gradientUnits="userSpaceOnUse">
<stop stop-color="#8D139B"/>
<stop offset="0.17" stop-color="#851BA1"/>
<stop offset="0.43" stop-color="#6E33B2"/>
<stop offset="0.76" stop-color="#4958CD"/>
<stop offset="1" stop-color="#2979E4"/>
</linearGradient>
<linearGradient id="paint43_linear_1_296" x1="227.256" y1="275.289" x2="378.258" y2="312.015" gradientUnits="userSpaceOnUse">
<stop stop-color="#267FE5"/>
<stop offset="0.17" stop-color="#2C87E7"/>
<stop offset="0.44" stop-color="#3D9FEB"/>
<stop offset="0.78" stop-color="#59C4F2"/>
<stop offset="1" stop-color="#6EE1F8"/>
</linearGradient>
<linearGradient id="paint44_linear_1_296" x1="260.751" y1="280.063" x2="358.896" y2="274.42" gradientUnits="userSpaceOnUse">
<stop stop-color="#A31FA9"/>
<stop offset="0.05" stop-color="#8B17A0"/>
<stop offset="0.11" stop-color="#740F98"/>
<stop offset="0.18" stop-color="#640A92"/>
<stop offset="0.26" stop-color="#5B078F"/>
<stop offset="0.36" stop-color="#58068E"/>
<stop offset="0.54" stop-color="#4D22A3"/>
<stop offset="0.93" stop-color="#3168DA"/>
<stop offset="1" stop-color="#2C75E4"/>
</linearGradient>
<linearGradient id="paint45_linear_1_296" x1="579.585" y1="320.374" x2="489.139" y2="207.587" gradientUnits="userSpaceOnUse">
<stop stop-color="#071033"/>
<stop offset="0.17" stop-color="#081237"/>
<stop offset="0.32" stop-color="#0A1941"/>
<stop offset="0.46" stop-color="#0D2354"/>
<stop offset="0.6" stop-color="#12336E"/>
<stop offset="0.73" stop-color="#19478F"/>
<stop offset="0.87" stop-color="#205EB7"/>
<stop offset="0.99" stop-color="#2979E4"/>
</linearGradient>
<clipPath id="clip0_1_296">
<rect width="623" height="515" fill="white"/>
</clipPath>
</defs>
</svg>
