<svg width="28" height="28" viewBox="0 0 28 28" fill="none" xmlns="http://www.w3.org/2000/svg">
<path fill-rule="evenodd" clip-rule="evenodd" d="M1.75 24.5C1.75 24.9641 1.93438 25.4092 2.26256 25.7374C2.59075 26.0656 3.03587 26.25 3.5 26.25L24.5 26.25C24.9641 26.25 25.4092 26.0656 25.7374 25.7374C26.0656 25.4092 26.25 24.9641 26.25 24.5L26.25 3.5C26.25 3.03587 26.0656 2.59075 25.7374 2.26256C25.4092 1.93438 24.9641 1.75 24.5 1.75L3.5 1.75C3.03587 1.75 2.59075 1.93438 2.26256 2.26256C1.93438 2.59075 1.75 3.03587 1.75 3.5L1.75 24.5ZM28 24.5C28 25.4283 27.6313 26.3185 26.9749 26.9749C26.3185 27.6313 25.4283 28 24.5 28L3.5 28C2.57174 28 1.68151 27.6313 1.02513 26.9749C0.36875 26.3185 0 25.4283 0 24.5L0 3.5C0 2.57174 0.36875 1.68151 1.02513 1.02513C1.68151 0.36875 2.57174 0 3.5 0L24.5 0C25.4283 0 26.3185 0.36875 26.9749 1.02513C27.6313 1.68151 28 2.57174 28 3.5L28 24.5ZM20.125 14.875C20.3571 14.875 20.5796 14.7828 20.7437 14.6187C20.9078 14.4546 21 14.2321 21 14C21 13.7679 20.9078 13.5454 20.7437 13.3813C20.5796 13.2172 20.3571 13.125 20.125 13.125H9.98725L13.7445 9.3695C13.8259 9.28815 13.8904 9.19157 13.9344 9.08527C13.9784 8.97898 14.0011 8.86505 14.0011 8.75C14.0011 8.63495 13.9784 8.52102 13.9344 8.41473C13.8904 8.30843 13.8259 8.21185 13.7445 8.1305C13.6631 8.04915 13.5666 7.98461 13.4603 7.94058C13.354 7.89655 13.2401 7.8739 13.125 7.8739C13.0099 7.8739 12.896 7.89655 12.7897 7.94058C12.6834 7.98461 12.5869 8.04915 12.5055 8.1305L7.2555 13.3805C7.17402 13.4618 7.10937 13.5583 7.06525 13.6646C7.02114 13.7709 6.99844 13.8849 6.99844 14C6.99844 14.1151 7.02114 14.2291 7.06525 14.3354C7.10937 14.4417 7.17402 14.5382 7.2555 14.6195L12.5055 19.8695C12.5869 19.9509 12.6834 20.0154 12.7897 20.0594C12.896 20.1034 13.0099 20.1261 13.125 20.1261C13.2401 20.1261 13.354 20.1034 13.4603 20.0594C13.5666 20.0154 13.6631 19.9509 13.7445 19.8695C13.8259 19.7881 13.8904 19.6916 13.9344 19.5853C13.9784 19.479 14.0011 19.3651 14.0011 19.25C14.0011 19.1349 13.9784 19.021 13.9344 18.9147C13.8904 18.8084 13.8259 18.7119 13.7445 18.6305L9.98725 14.875H20.125Z" fill="white"/>
</svg>
