<svg width="74" height="74" viewBox="0 0 74 74" fill="none" xmlns="http://www.w3.org/2000/svg">
<path d="M37 18.5C34.7132 18.5 32.4777 19.1781 30.5762 20.4486C28.6748 21.7191 27.1928 23.525 26.3176 25.6377C25.4425 27.7505 25.2135 30.0753 25.6597 32.3182C26.1058 34.5611 27.207 36.6214 28.8241 38.2384C30.4411 39.8555 32.5014 40.9567 34.7443 41.4028C36.9872 41.849 39.312 41.62 41.4248 40.7449C43.5376 39.8697 45.3434 38.3877 46.6139 36.4863C47.8844 34.5848 48.5625 32.3493 48.5625 30.0625C48.5625 26.9959 47.3443 24.055 45.1759 21.8866C43.0075 19.7182 40.0666 18.5 37 18.5ZM37 37C35.6279 37 34.2866 36.5931 33.1457 35.8308C32.0049 35.0685 31.1157 33.985 30.5906 32.7174C30.0655 31.4497 29.9281 30.0548 30.1958 28.7091C30.4635 27.3633 31.1242 26.1272 32.0945 25.1569C33.0647 24.1867 34.3008 23.526 35.6466 23.2583C36.9923 22.9906 38.3872 23.128 39.6549 23.6531C40.9225 24.1782 42.006 25.0674 42.7683 26.2082C43.5306 27.3491 43.9375 28.6904 43.9375 30.0625C43.9357 31.9019 43.2042 33.6654 41.9035 34.966C40.6029 36.2667 38.8394 36.9982 37 37Z" fill="white"/>
<path d="M37 4.625C30.5968 4.625 24.3375 6.52376 19.0134 10.0812C13.6894 13.6386 9.5398 18.6949 7.08941 24.6106C4.63903 30.5264 3.99789 37.0359 5.24709 43.316C6.49629 49.5962 9.57971 55.3649 14.1074 59.8926C18.6352 64.4203 24.4038 67.5037 30.684 68.7529C36.9641 70.0021 43.4736 69.361 49.3894 66.9106C55.3051 64.4602 60.3614 60.3106 63.9188 54.9866C67.4763 49.6625 69.375 43.4032 69.375 37C69.3652 28.4166 65.9511 20.1876 59.8818 14.1182C53.8124 8.04887 45.5834 4.63479 37 4.625ZM23.125 60.9968V57.8125C23.1269 55.9731 23.8584 54.2096 25.159 52.909C26.4596 51.6083 28.2231 50.8768 30.0625 50.875H43.9375C45.7769 50.8768 47.5404 51.6083 48.841 52.909C50.1417 54.2096 50.8732 55.9731 50.875 57.8125V60.9968C46.6643 63.4555 41.876 64.7511 37 64.7511C32.1241 64.7511 27.3357 63.4555 23.125 60.9968ZM55.4815 57.6414C55.4354 54.6081 54.1996 51.7144 52.0403 49.5837C49.881 47.4529 46.9711 46.2557 43.9375 46.25H30.0625C27.0289 46.2557 24.119 47.4529 21.9597 49.5837C19.8004 51.7144 18.5646 54.6081 18.5185 57.6414C14.3249 53.8969 11.3676 48.9669 10.0382 43.5043C8.70875 38.0417 9.06987 32.3041 11.0737 27.0513C13.0776 21.7985 16.6297 17.2782 21.2597 14.0891C25.8897 10.8999 31.3791 9.19225 37.0012 9.19225C42.6232 9.19225 48.1127 10.8999 52.7427 14.0891C57.3726 17.2782 60.9247 21.7985 62.9286 27.0513C64.9325 32.3041 65.2936 38.0417 63.9641 43.5043C62.6347 48.9669 59.6774 53.8969 55.4838 57.6414H55.4815Z" fill="white"/>
</svg>
