<svg width="43" height="45" viewBox="0 0 43 45" fill="none" xmlns="http://www.w3.org/2000/svg">
<g clip-path="url(#clip0_1_63)">
<path d="M29.667 9.95361C29.4211 10.0781 29.1787 10.21 28.9363 10.3564C28.2057 10.7959 27.4893 11.3306 26.7552 11.9458L25.1906 10.1038C25.7287 9.5874 26.3168 9.11865 26.9405 8.70483C27.4359 8.37158 27.9562 8.07861 28.4873 7.82226C28.7011 7.7124 28.915 7.60986 29.1324 7.51464C28.0988 5.63598 26.6126 4.28832 24.9304 3.45703C23.2517 2.62939 21.3663 2.31079 19.5344 2.49023C17.7132 2.66967 15.9419 3.35082 14.4806 4.51904C12.7913 5.86669 11.5011 7.88085 11.0093 10.5505L10.856 11.3855L10.047 11.532C9.25578 11.6748 8.54654 11.8689 7.9264 12.1179C7.32408 12.3596 6.78947 12.6526 6.31902 13.0005C5.9448 13.2788 5.62047 13.5937 5.34604 13.9307C4.49424 14.978 4.09863 16.2927 4.10932 17.6221C4.12002 18.9734 4.5477 20.3357 5.33535 21.4563C5.6276 21.8738 5.96975 22.2546 6.35823 22.5879C6.75027 22.9248 7.19577 23.2031 7.69474 23.4119C8.19014 23.6206 8.73543 23.7708 9.34488 23.8586H32.8211C33.9652 23.5767 34.9738 23.1921 35.8292 22.7014C36.681 22.2107 37.376 21.6174 37.8963 20.9033C38.7053 19.7974 39.1045 18.23 39.1188 16.626C39.1366 14.9414 38.7374 13.2495 37.9569 12.0154C37.7324 11.6602 37.49 11.3415 37.2298 11.0522C36.0608 9.75952 34.5782 9.19555 33.0385 9.18457C31.9159 9.17724 30.7647 9.45556 29.667 9.95361ZM40.384 30.8569C41.1075 30.8569 41.7597 31.1572 42.2337 31.6443C42.7077 32.1313 43 32.8052 43 33.5449C43 34.2883 42.7077 34.9585 42.2337 35.4456C41.7597 35.9326 41.1039 36.2329 40.384 36.2329C39.6605 36.2329 39.0083 35.9326 38.5343 35.4456C38.2884 35.1929 38.0888 34.8889 37.9569 34.5483H31.4454C30.9322 34.5483 30.5152 34.1199 30.5152 33.5925V26.3049H25.6004V39.7925C25.9497 39.928 26.2633 40.1404 26.5199 40.4041C26.9939 40.8911 27.2862 41.5649 27.2862 42.3047C27.2862 43.0481 26.9939 43.7183 26.5199 44.2053C26.0459 44.6924 25.3901 44.9927 24.6702 44.9927C23.9467 44.9927 23.2945 44.6924 22.8205 44.2053C22.3465 43.7183 22.0542 43.0444 22.0542 42.3047C22.0542 41.5613 22.3465 40.8911 22.8205 40.4041C23.0806 40.1367 23.3907 39.928 23.74 39.7925V26.3086H18.1837V42.1545C18.1837 42.6819 17.7667 43.1104 17.2535 43.1104H6.90352C6.77522 43.5315 6.55068 43.9087 6.25487 44.2126C5.78085 44.6997 5.12507 45 4.40514 45C3.68164 45 3.02942 44.6997 2.55541 44.2126C2.08139 43.7256 1.78914 43.0518 1.78914 42.312C1.78914 41.5686 2.08139 40.8984 2.55541 40.4114C3.02942 39.9243 3.6852 39.624 4.40514 39.624C5.12864 39.624 5.78085 39.9243 6.25487 40.4114C6.47584 40.6384 6.6576 40.9058 6.78947 41.2024H16.3232V26.3086H11.6401V31.2305C11.6401 31.7578 11.2231 32.1863 10.7099 32.1863H5.05736C4.92549 32.5342 4.72234 32.8455 4.46929 33.1055C3.99528 33.5925 3.33949 33.8928 2.61956 33.8928C1.89963 33.8928 1.24385 33.5925 0.76983 33.1055C0.29225 32.6221 0 31.9482 0 31.2048C0 30.4614 0.29225 29.7913 0.766266 29.3042C1.24028 28.8171 1.89606 28.5168 2.616 28.5168C3.33593 28.5168 3.99171 28.8171 4.46573 29.3042C4.72947 29.5752 4.93974 29.9084 5.07161 30.2747H9.77613V26.3086H9.28786L9.13817 26.2939C8.27567 26.1804 7.48802 25.9717 6.77878 25.6714C6.04459 25.3601 5.39237 24.9573 4.81857 24.4629C4.27683 23.9978 3.79925 23.4668 3.39296 22.8918C2.31305 21.3611 1.73212 19.4897 1.71786 17.6294C1.7143 15.7507 2.28454 13.8794 3.51413 12.3633C3.9133 11.8726 4.38019 11.4221 4.91836 11.0229C5.54206 10.5579 6.25843 10.1623 7.0639 9.84008C7.61989 9.61669 8.21509 9.42993 8.84592 9.28344C9.55872 6.37939 11.077 4.14184 13.0265 2.58544C14.8513 1.13159 17.0503 0.285639 19.3099 0.0622503C21.5588 -0.161138 23.879 0.230707 25.9568 1.2561C28.2307 2.3767 30.2087 4.24072 31.4953 6.86645C32.0121 6.78222 32.5289 6.74194 33.0457 6.7456C35.2197 6.76025 37.3154 7.55859 38.9691 9.38964C39.3148 9.77416 39.6427 10.2026 39.9492 10.686C40.9863 12.323 41.5138 14.5056 41.4924 16.6443C41.471 18.7427 40.9186 20.8301 39.7924 22.3682C39.0582 23.3716 38.1173 24.1882 36.9875 24.8364C35.9005 25.4626 34.6317 25.9387 33.2096 26.2756L32.9459 26.3086H32.3828V32.6404H37.9248C38.0567 32.2632 38.267 31.9226 38.5378 31.6443C39.0047 31.1572 39.6605 30.8569 40.384 30.8569Z" fill="white"/>
</g>
<defs>
<clipPath id="clip0_1_63">
<rect width="43" height="45" fill="white"/>
</clipPath>
</defs>
</svg>
