<svg width="78" height="58" viewBox="0 0 78 58" fill="none" xmlns="http://www.w3.org/2000/svg">
<g opacity="0.8" clip-path="url(#clip0_1_625)">
<path d="M41.2598 5.07714L46.7061 5.48331L42.5293 8.98654L43.7988 14.2922L39.1968 11.4236L34.5566 14.2922L35.8579 8.98654L31.6812 5.45793L37.1274 5.07714L39.1904 0L41.2598 5.07714ZM18.7319 58C18.8525 54.2937 18.6431 54.2366 22.9785 52.6182C25.5176 51.6599 28.7739 50.4541 31.1099 49.0008C33.8584 51.5393 35.6167 54.4524 35.6802 58H18.7319ZM33.6426 45.5039C33.7632 44.5646 30.9829 41.0043 30.4688 39.2907C29.3833 37.5709 28.9961 35.21 30.1831 33.3886C30.6528 32.6651 30.4497 32.0622 30.4497 31.0721C30.4497 21.1526 47.8359 21.14 47.8359 31.0721C47.8359 32.3414 47.5503 32.5889 48.2295 33.5726C49.3721 35.229 48.7817 37.7612 47.8169 39.2844C47.1821 41.0804 44.3003 44.4758 44.4971 45.4975C44.6685 50.5747 33.5918 50.416 33.6299 45.4975L33.6426 45.5039ZM59.668 58C59.5474 54.2937 59.7568 54.2366 55.4214 52.6182C52.8823 51.6599 49.626 50.4541 47.29 49.0008C44.5415 51.5393 42.7832 54.4524 42.7197 58H59.668ZM78.0127 24.4845L74.6675 28.8064L77.0415 33.7186L71.9062 31.8718L67.9644 35.6796L68.1294 30.2217L63.3179 27.6387L68.5547 26.0838L69.5259 20.7084L72.5918 25.2207L78.0063 24.4845H78.0127ZM63.1592 7.34916L62.4292 12.7627L66.9424 15.8343L61.5723 16.78L60.0234 22.0221L57.4463 17.2115L51.9873 17.3765L55.7642 13.4354L53.9106 8.29478L58.8301 10.6683L63.1465 7.31743L63.1592 7.34916ZM0 24.4909L5.41455 25.2271L8.48682 20.7147L9.46436 26.0838L14.7075 27.6133L9.896 30.1963L10.061 35.6542L6.11279 31.8464L0.971191 33.6932L3.34521 28.7747L0 24.4909ZM15.2344 7.31743L19.5508 10.662L24.4702 8.28843L22.6294 13.4227L26.438 17.3638L20.9473 17.1988L18.4082 22.0094L16.8784 16.7673L11.4956 15.7963L15.9771 12.6929L15.2344 7.31743Z" fill="white"/>
</g>
<defs>
<clipPath id="clip0_1_625">
<rect width="78" height="58" fill="white"/>
</clipPath>
</defs>
</svg>
