<svg width="58" height="58" viewBox="0 0 58 58" fill="none" xmlns="http://www.w3.org/2000/svg">
<path d="M4.37538 23.5081C5.05516 22.8285 5.97703 22.4467 6.93825 22.4467C7.89947 22.4467 8.82134 22.8285 9.50113 23.5081L22.3191 36.3261L47.9479 10.6937C48.2844 10.3569 48.684 10.0897 49.1239 9.90734C49.5637 9.72498 50.0351 9.63103 50.5113 9.63086C50.9874 9.63069 51.4589 9.72431 51.8989 9.90636C52.3388 10.0884 52.7386 10.3553 53.0754 10.6919C53.4122 11.0285 53.6795 11.4281 53.8618 11.8679C54.0442 12.3077 54.1381 12.7792 54.1383 13.2553C54.1385 13.7315 54.0448 14.203 53.8628 14.6429C53.6807 15.0829 53.4138 15.4827 53.0773 15.8195L22.3191 46.5776L4.37538 28.6338C3.69579 27.9541 3.31403 27.0322 3.31403 26.071C3.31403 25.1097 3.69579 24.1879 4.37538 23.5081Z" fill="white"/>
</svg>
