<svg width="61" height="56" viewBox="0 0 61 56" fill="none" xmlns="http://www.w3.org/2000/svg">
<g opacity="0.8" clip-path="url(#clip0_1_637)">
<path d="M7.60018 43.4184C7.71261 44.2083 7.91754 44.9823 8.21078 45.7244C8.51569 46.5149 8.98041 47.234 9.57593 47.8371C11.502 49.7464 14.004 49.7414 16.7442 49.7414H18.0448C19.1717 48.1197 21.8176 46.9841 24.8954 46.9841C29.0008 46.9841 32.3417 49.0025 32.3417 51.497C32.3417 53.9915 29.0107 56.0099 24.8954 56.0099C21.8822 56.0099 19.2859 54.9189 18.1193 53.3518H16.7442C13.2296 53.3518 10.0177 53.3518 7.03923 50.406C6.09479 49.4565 5.35484 48.3241 4.86491 47.0783C4.40548 45.9034 4.10498 44.6726 3.97135 43.4184C2.91077 43.3925 1.90219 42.954 1.16041 42.1963C0.418633 41.4386 0.00227202 40.4215 0 39.3617L0 24.7319C0.0026216 23.6568 0.431287 22.6264 1.19225 21.8662C1.95321 21.106 2.98455 20.6778 4.06071 20.6752H4.34863C5.08333 13.1619 9.80925 7.28516 16.1982 3.76905C19.9879 1.69612 24.1729 0.445587 28.4796 0.0991911C32.8563 -0.282907 37.2626 0.339635 41.3617 1.91924C48.5349 4.75098 54.5466 10.7666 56.8748 20.6752H56.9393C58.0154 20.6778 59.0468 21.106 59.8078 21.8662C60.5687 22.6264 60.9974 23.6568 61 24.7319V39.3617C60.9974 40.4368 60.5687 41.4671 59.8078 42.2273C59.0468 42.9875 58.0154 43.4157 56.9393 43.4184H52.8786V21.0322C50.7986 12.8941 45.8145 7.93483 39.9022 5.61389C36.3664 4.25459 32.566 3.72191 28.7923 4.05668C25.0526 4.3508 21.4173 5.43069 18.1243 7.22565C12.5942 10.2905 8.55827 15.3737 8.23063 21.8456C8.22243 22.04 8.18563 22.2322 8.12142 22.4159V43.4184H7.60018Z" fill="white"/>
</g>
<defs>
<clipPath id="clip0_1_637">
<rect width="61" height="56" fill="white"/>
</clipPath>
</defs>
</svg>
