<?xml version="1.0" encoding="UTF-8"?>
<svg id="Layer_1" data-name="Layer 1" xmlns="http://www.w3.org/2000/svg" xmlns:xlink="http://www.w3.org/1999/xlink" viewBox="0 0 1600 529.29">
  <defs>
    <style>
      .cls-1 {
        fill: url(#linear-gradient-2);
      }

      .cls-2 {
        fill: #081736;
      }

      .cls-3 {
        fill: #1f79eb;
      }

      .cls-4 {
        fill: #fee9a6;
      }

      .cls-5 {
        fill: #fef2ca;
      }

      .cls-6 {
        fill: #5b220f;
      }

      .cls-7 {
        fill: #ffab30;
      }

      .cls-8 {
        fill: #fff;
      }

      .cls-9 {
        fill: #65dbff;
      }

      .cls-10 {
        fill: url(#linear-gradient-4);
      }

      .cls-11 {
        fill: #1c0f09;
      }

      .cls-12 {
        fill: #feeeb0;
      }

      .cls-13 {
        fill: #e86e1c;
      }

      .cls-14 {
        fill: #9e5439;
      }

      .cls-15 {
        fill: url(#linear-gradient-3);
      }

      .cls-16 {
        fill: url(#linear-gradient-5);
      }

      .cls-17 {
        fill: #fef0bf;
      }

      .cls-18 {
        fill: #0f0b0a;
      }

      .cls-19 {
        fill: #037df8;
      }

      .cls-20 {
        fill: #944e2a;
      }

      .cls-21 {
        fill: #ee7009;
      }

      .cls-22 {
        fill: #fce597;
      }

      .cls-23 {
        fill: #190707;
      }

      .cls-24 {
        fill: #220c0e;
      }

      .cls-25 {
        fill: #804327;
      }

      .cls-26 {
        fill: #ffb63b;
      }

      .cls-27 {
        fill: #fffefd;
      }

      .cls-28 {
        fill: #f58519;
      }

      .cls-29 {
        fill: #fef3d3;
      }

      .cls-30 {
        fill: url(#linear-gradient-6);
      }

      .cls-31 {
        fill: #2294f7;
      }

      .cls-32 {
        fill: #856550;
      }

      .cls-33 {
        fill: #984a26;
      }

      .cls-34 {
        fill: #f07b12;
      }

      .cls-35 {
        fill: #fffcf3;
      }

      .cls-36 {
        fill: url(#linear-gradient);
      }
    </style>
    <linearGradient id="linear-gradient" x1="243.81" y1="279.88" x2="394.21" y2="279.88" gradientTransform="translate(39.13 598.9) rotate(-90)" gradientUnits="userSpaceOnUse">
      <stop offset="0" stop-color="#5ac2f9"/>
      <stop offset=".28" stop-color="#3f9bda"/>
      <stop offset=".76" stop-color="#165ea9"/>
      <stop offset=".98" stop-color="#064797"/>
    </linearGradient>
    <linearGradient id="linear-gradient-2" x1="246.9" y1="279.88" x2="391.13" y2="279.88" gradientUnits="userSpaceOnUse">
      <stop offset="0" stop-color="#266abb"/>
      <stop offset=".05" stop-color="#2366b5"/>
      <stop offset=".68" stop-color="#0d3a78"/>
      <stop offset=".98" stop-color="#052a61"/>
    </linearGradient>
    <linearGradient id="linear-gradient-3" y1="322.65" y2="322.65" gradientTransform="translate(-3.64 641.67) rotate(-90)" xlink:href="#linear-gradient"/>
    <linearGradient id="linear-gradient-4" y1="322.65" y2="322.65" xlink:href="#linear-gradient-2"/>
    <linearGradient id="linear-gradient-5" y1="365.42" y2="365.42" gradientTransform="translate(-46.41 684.43) rotate(-90)" xlink:href="#linear-gradient"/>
    <linearGradient id="linear-gradient-6" y1="365.42" y2="365.42" xlink:href="#linear-gradient-2"/>
  </defs>
  <g>
    <g>
      <path class="cls-35" d="M402.76,293.11c0,3.1-1.11,5.94-2.96,8.16,1.85,2.21,2.96,5.05,2.96,8.15v26.46c0,3.09-1.12,5.94-2.96,8.15,1.85,2.21,2.96,5.06,2.96,8.16v26.46c0,7.03-5.72,12.75-12.75,12.75h-142c-7.03,0-12.75-5.72-12.75-12.75v-26.46c0-3.1,1.12-5.94,2.95-8.16-2.09-2.75-2.67-5.39-2.82-6.31-.03-.22-.04-.35-.04-.35-.06-.49-.09-.99-.09-1.49v-26.46c0-2.94,1.02-5.67,2.72-7.84-2.24-3.37-2.6-6.57-2.65-7.12v-.03c-.05-.46-.08-.89-.08-1.32v-26.46c0-7.03,5.72-12.75,12.75-12.75h142c7.03,0,12.75,5.72,12.75,12.75v26.46Z"/>
      <path d="M390.02,300.11c3.86,0,7-3.14,7-7v-26.46c0-3.86-3.14-7-7-7h-142.01c-3.86,0-7,3.14-7,7v26.46c0,.28.02.56.06.84v.02s.47,5.53,6.42,8.48c-3.61.27-6.48,3.29-6.48,6.97v26.46c0,1.55.51,2.97,1.36,4.13h0s1.71,2.75,8.57,5.17h-2.93c-3.86,0-7,3.14-7,7v26.46c0,3.86,3.14,7,7,7l141.29,4.13c3.86,0,7.72-7.27,7.72-11.13v-26.46c0-3.86-3.14-7-7-7h-30.49v-2.31h30.49c3.86,0,7-3.14,7-7v-26.46c0-3.86-3.14-7-7-7h-4.93l3.11-2.31h1.81Z"/>
      <g>
        <path class="cls-36" d="M305.78,204.68h26.46c2.32,0,4.2,1.88,4.2,4.2v142.01c0,2.32-1.88,4.2-4.2,4.2h-26.46c-2.32,0-4.2-1.88-4.2-4.2v-142.01c0-2.32,1.88-4.2,4.2-4.2Z" transform="translate(598.9 -39.13) rotate(90)"/>
        <rect class="cls-1" x="246.9" y="265.54" width="144.23" height="28.69" rx="1.71" ry="1.71"/>
        <circle class="cls-9" cx="264.59" cy="278.69" r="5.58"/>
        <circle class="cls-31" cx="281.69" cy="278.69" r="5.58"/>
        <circle class="cls-3" cx="298.79" cy="278.69" r="5.58"/>
      </g>
      <g>
        <path class="cls-15" d="M305.78,247.45h26.46c2.32,0,4.2,1.88,4.2,4.2v142.01c0,2.32-1.88,4.2-4.2,4.2h-26.46c-2.32,0-4.2-1.88-4.2-4.2v-142.01c0-2.32,1.88-4.2,4.2-4.2Z" transform="translate(641.67 3.64) rotate(90)"/>
        <rect class="cls-10" x="246.9" y="308.31" width="144.23" height="28.69" rx="1.71" ry="1.71"/>
        <circle class="cls-9" cx="264.59" cy="321.46" r="5.58"/>
        <circle class="cls-31" cx="281.69" cy="321.46" r="5.58"/>
        <circle class="cls-3" cx="298.79" cy="321.46" r="5.58"/>
      </g>
      <g>
        <path class="cls-16" d="M305.78,290.22h26.46c2.32,0,4.2,1.88,4.2,4.2v142.01c0,2.32-1.88,4.2-4.2,4.2h-26.46c-2.32,0-4.2-1.88-4.2-4.2v-142.01c0-2.32,1.88-4.2,4.2-4.2Z" transform="translate(684.43 46.41) rotate(90)"/>
        <rect class="cls-30" x="246.9" y="351.08" width="144.23" height="28.69" rx="1.71" ry="1.71"/>
        <circle class="cls-9" cx="264.59" cy="364.23" r="5.58"/>
        <circle class="cls-31" cx="281.69" cy="364.23" r="5.58"/>
        <circle class="cls-3" cx="298.79" cy="364.23" r="5.58"/>
      </g>
    </g>
    <path class="cls-35" d="M529.76,170.03c-.8,1.35-1.71,2.56-2.71,3.6.64,3.99.65,9.56-1.92,15.82-5.36,13.03-19.51,23.51-42.1,31.17-.37,1.02-.78,2.72-.78,5.25,0,6.49,2.95,15.26,18.52,43.02,16.87,30.1,10.2,51.78,3.08,65.8,4.76,7.25,13.52,23.22,13.52,42.43,0,8.99-2.33,17.83-6.78,25.96,9.67,3.17,15.76,9.24,17.1,17.32l.02.15c.01.11.03.26.04.44.12,1.33.24,5.84-3.08,9.77-1.74,2.05-4.96,4.54-10.53,4.86-7.67.44-18.24.64-25.32.64-1.15,0-25.91-.11-41.83-8.52-.11,1.86-.57,3.63-1.4,5.26-2.79,5.45-8.77,8.22-17.8,8.22-9.64,0-15.98.02-20.92.03h-3.01c-3.46.02-6.31.02-9.46.02h-1.03c-7.04,0-21.06,0-27.43-13.84-15.93,4.74-33.5,7.23-51.19,7.23-2.06,0-4.13-.03-6.17-.11-24.62-.82-47.46-6.45-66.05-16.27-17.28-9.13-29.91-20.19-37.54-32.87-6.49-10.79-8.04-20.49-8.96-26.29l-.06-.37c-1.54-9.54-.12-17.18,4.09-22.13,3-3.52,7.33-5.46,12.18-5.46,10.22,0,13.15,7.4,15.72,13.93l.04.1c1.13,2.86,2.54,6.41,4.75,10.53,6.06,11.3,21.84,30.24,59.48,30.24,27.89,0,43.32-8.17,49.12-12.1-.03-.57-.06-1.14-.08-1.7-.18-2.79-.91-23.45,15.92-46.42,14.15-19.31,16.5-26.95,17.25-33.11-.04-.15-.08-.29-.12-.44h-.01c-2.24-7.49-1.7-13.13-1.59-14.08,0-.03,0-.06.01-.09,1.13-6.17,4.76-14.47,11.21-25.68,7.75-13.47,11.23-21.51,7.73-32.66-3.44-1.07-8.63-3.02-13.91-6.26-11.12-6.81-18.05-16.4-20.2-27.89-5.93-3.3-15.9-11.35-15.45-28.07.31-11.29,5.36-17.7,9.54-21.1,4.39-3.57,8.99-4.86,12.34-5.28,2.28-4.62,6.56-11.94,13.68-19.25,10.58-10.87,29.67-23.82,60.51-23.82,42.45,0,62.73,26.53,70.5,40.64,6.28.98,17.34,4.48,22.21,16.9,3.32,8.47,2.9,17.62-1.12,24.48Z"/>
    <path class="cls-11" d="M525.66,147.6c-4.65-11.88-16.57-13.49-20.56-13.69-6.46-12.95-25.07-40.28-66.93-40.28-28.89,0-46.67,12.04-56.49,22.13-8.49,8.73-12.61,17.39-14.01,20.79-3.48-.18-8.32.8-12.5,4.19-3.27,2.65-7.22,7.74-7.47,16.9-.45,16.39,11.02,22.55,14.96,24.18,1.21,11.1,7.41,20.37,18.02,26.86,6.53,4.01,12.85,5.82,15.3,6.43,5.96,15.26,1,25.83-7.19,40.07-7.19,12.5-10.74,21.2-10.84,26.55-.01.13-.02.26,0,.4,0,0,0,.01,0,.02.02,1.61.37,3.15.81,4.46,0,0,0,.01,0,.01.22,1.08.47,2.15.73,3.23.2.79.4,1.58.62,2.37-.8,8.09-3.63,16.71-18.41,36.86-16.06,21.91-14.94,41.49-14.84,42.8.06,1.63.16,3.18.3,4.66-3.59,2.97-20.33,15.05-54.93,15.05-40.56,0-57.77-20.8-64.42-33.19-2.39-4.46-3.87-8.21-5.07-11.22-2.47-6.26-4.1-10.39-10.51-10.39-3.23,0-5.96,1.21-7.91,3.49-3.07,3.6-4.08,9.85-2.83,17.58l.07.4c1.82,11.37,5.61,35.02,43.59,55.08,17.84,9.43,39.84,14.83,63.62,15.63,1.99.07,3.99.1,5.98.1,18.94,0,37.99-2.99,54.59-8.58.18.45.34.9.48,1.38,4.07,13.54,15.63,13.81,23.56,13.81h1.03c3.14,0,5.99,0,9.45-.02,5.36-.01,12.21-.03,23.94-.03,6.75,0,11.06-1.73,12.8-5.15,1.61-3.17.54-6.81-.64-9.33,2.19-.19,4.51-.56,5.76-.78,13.68,10.18,42.82,10.3,43.11,10.3,7.03,0,17.48-.2,25-.63,2.88-.17,5.09-1.14,6.57-2.88,2.06-2.44,1.82-5.39,1.78-5.72,0-.04,0-.07-.01-.11-1.75-10.57-14.21-13.66-20.59-14.56,5.07-6.81,10.19-16.85,10.19-29.64,0-20.7-11.11-37.46-14.39-41.95.23-.5.47-1.01.72-1.55h0s.02-.04.02-.05c7.64-14.43,13.29-34.26-2.23-61.94-16.27-29-19.24-38.17-19.24-45.77,0-6.02,1.87-9.01,2.52-9.88,22.19-7.18,35.91-16.82,40.78-28.67,2.88-7.01,1.8-12.88.85-15.85,1.55-.85,2.99-2.33,4.13-4.27,3.16-5.39,3.44-12.72.74-19.6Z"/>
    <g>
      <path class="cls-26" d="M393.37,434.55c-7.39,0-18.57,0-22.48-13.01-.15-.51-.32-.99-.51-1.47l-.39-.98-1,.34c-16.57,5.58-35.32,8.52-54.24,8.52-1.98,0-3.98-.03-5.94-.1-23.61-.79-45.44-6.15-63.13-15.5-37.5-19.81-41.22-43.08-43.01-54.27l-.07-.41c-1.19-7.39-.27-13.32,2.58-16.67,1.72-2.02,4.16-3.09,7.06-3.09,5.64,0,7,3.44,9.47,9.68l.04.11c1.2,3.02,2.68,6.77,5.08,11.23,6.77,12.62,24.26,33.78,65.41,33.78,34.45,0,51.3-11.71,55.64-15.3l.46-.38-.05-.59c-.14-1.5-.23-3.05-.29-4.61-.06-.86-1.28-20.38,14.63-42.09,14.42-19.67,17.75-28.61,18.62-37.41l.02-.21-.06-.2c-.22-.78-.42-1.56-.61-2.34-.28-1.14-.51-2.16-.71-3.11v-.05l-.03-.09-.17-.84h-.09c-.28-1.01-.45-1.99-.5-2.93l.04-.04-.06-.49v-.03s0-.03,0-.03c0-.03,0-.08,0-.15v-.08c.1-5.17,3.6-13.68,10.7-26.02,8.38-14.56,13.41-25.29,7.26-41.04l-.21-.54-.56-.14c-2.38-.59-8.59-2.38-14.98-6.3-10.28-6.29-16.32-15.29-17.49-26.02l-.07-.66-.61-.25c-3.46-1.43-14.7-7.32-14.26-23.12.24-8.73,3.97-13.55,7.05-16.06,4.4-3.58,9.15-3.96,10.99-3.96.25,0,.5,0,.74.02l.79.04.3-.73c1.35-3.27,5.39-11.81,13.78-20.43,9.67-9.94,27.19-21.79,55.69-21.79,17.92,0,33.42,5.06,46.04,15.04,10.37,8.2,16.54,17.91,19.89,24.62l.29.59.65.03c3.47.17,15.13,1.63,19.57,12.98,2.57,6.56,2.32,13.53-.66,18.62-1.03,1.76-2.31,3.09-3.71,3.86l-.81.44.28.88c.88,2.75,1.94,8.37-.82,15.09-4.74,11.53-18.23,20.96-40.09,28.03l-.33.11-.21.28c-.83,1.09-2.75,4.3-2.75,10.56,0,7.8,3,17.1,19.38,46.31,15.83,28.25,8.91,48.19,2.27,60.76l-.02.02-.19.39h0s-.9,1.95-.9,1.95l.39.53c3.33,4.55,14.17,20.98,14.17,41.29,0,12.88-5.42,22.86-9.97,28.97l-1.13,1.52,1.87.26c6.64.93,18.02,3.94,19.64,13.61v.09s.31,2.7-1.51,4.86c-1.27,1.5-3.22,2.34-5.78,2.49-7.53.43-17.95.63-24.93.63-.29,0-29.06-.11-42.44-10.08l-.39-.29-.48.08c-.94.16-3.37.57-5.67.77l-1.6.14.69,1.46c1.08,2.28,2.06,5.58.66,8.34-1.53,3.01-5.51,4.54-11.8,4.54-9.62,0-15.96.02-20.89.03h-3.05c-3.46.02-6.31.02-9.45.02h-1.03Z"/>
      <path class="cls-13" d="M210.1,351.01s-1.83,45.9,73.35,55c44.36,5.37,57.86-11.14,61.48-25.58l4.7-1.92s-.69,10.19,4.25,17.31c4.95,7.12,9.3,13.31,9.3,13.31l5.14,4.7-.77,4.45-28.12,6.95-36.9,2.05-45.01-9.4-36.45-22.11-16.19-29.92-1.53-10.93,5.8-6.98.94,3.07Z"/>
      <path class="cls-34" d="M380.73,419.76c-22.82-22.32-17.02-42.37-17.02-42.37-2.57,1.85-4.29,5.34-4.29,5.34-1.06-11.87,2.24-22.62,2.24-22.62-4.22,3.96-6.66,10.88-6.66,10.88.66-6.92.53-12.2,7.25-25.85,6.73-13.65,11.87-14.9,16.05-22.95,4.17-8.05-.44-15.09-.44-15.09l4.7-10.5s2.18,6.43,2.67,6.73,6.63,12.17,12.56,15.83c5.94,3.66,10.68,7.32,16.42,9.6,5.74,2.28,9.69,8.41,11.57,16.22s5.34,18.4,5.34,18.4l.44,2.15s-4.14-.27-8.62-1.9c-4.48-1.63-12.34-10.92-12.34-10.92,0,0-1.64-6.34-7.97-6.93,0,0,1.38-2.57,5.84-2.28,0,0-8.61-4.65-22.16,1.29-13.55,5.94-13.95,18.99-13.95,18.99,0,0,9.69-12.27,23.94-11.18,0,0-19.46,7.12-18.14,29.48,0,0,2.41-3.96,6.66-5.44,0,0-3.78,10.19,8.45,19.59,0,0-3.3-6.43-2.51-11.67,0,0,2.47,7.91,8.41,12.56,5.94,4.65,8.21,7.32,8.8,8.61,0,0,1.98-3.07,1.88-9.5,0,0,2.88,2.7,4.65,9.5,0,0,5.64-3.36,5.94-13.55,0,0,2.14,4.22,2.47,12.07,0,0,5.28-9.5,5.8-15.3l-2.24,21.43-11.08.69-12.27,1.19-12.76,5s-4.25,2.18-3.86,6.33c0,0-4.7-2.72-5.8-3.81Z"/>
      <path class="cls-5" d="M415.55,283.08s11.08,5.28,17.21,15.63l12.6,21.57,7.91,17.15,3.03,11.81-3.36,13.12-3.43,3.36-6.46,1.25-6.46-1.25s2.24-3.63.59-10.22c-1.65-6.59-3.3-14.9-8.38-21.7s-12.07-13.52-14.9-18.93c0,0,5.41,4.29,12,4.95,0,0-12.66-7.06-12.93-12.73-.26-5.67,7.06-.99,10.62-.73,0,0-5.21-3.56-8.31-7.65-3.1-4.09-1.06-5.74,2.04-4.62,3.1,1.12,6.46,3.1,7.25,3.89,0,0-3.23-7.85-9.04-14.9Z"/>
      <polygon class="cls-11" points="503.95 136.14 499.88 136.29 513.05 168.45 518 170.27 521.07 168.73 525.92 161.07 524.23 146.95 511.67 136.14 505.44 135.55 503.95 136.14"/>
      <path class="cls-28" d="M474.56,231.15c.25-.98.51-1.94.8-2.9.07-.85.2-1.69.29-2.48.11-.94.24-1.87.37-2.81-.02-.1-.03-.21-.05-.31-.09-.45.02-.84.24-1.14.21-1.74.36-3.47.24-5.24-.06-.92.62-1.37,1.33-1.37-.07-.69-.2-1.37-.42-2.07-.02-.05-.02-.1-.03-.16-32.94,13.55-79.53-1.19-79.53-1.19l1.01,5.98,1.68,4.35,1.94,3.46c10.15,14.44-11.83,31.66-11.83,56s10.58,33.14,10.58,33.14c-3.56-7.42-3.36-18.7-3.36-18.7,1.98,13.95,8.11,20.11,8.11,20.11-.33-1.12.13-2.8.13-2.8.86,2.28,3.43,3.56,3.43,3.56-5.14-11.08-4.29-23.54-4.29-23.54-3.1,1.85-4.22,4.62-4.22,4.62-.79-15.89,10.68-17.67,10.68-17.67-7.58-1.71-13.39,4.55-13.39,4.55,2.77-11.54,15.5-18.47,15.5-18.47-10.42,1.58-17.08,7.78-17.08,7.78,4.95-9.17,19.06-20.71,19.06-20.71-8.57,3.89-14.44,8.18-14.44,8.18,2.04-5.61,11.87-19.65,16.22-24.07,4.35-4.42,8.71-10.29,8.71-10.29.4,9.1-10.88,21.3-10.88,21.3,3.89-2.04,9.23-8.11,9.23-8.11-.26,1.45-1.45,4.02-1.45,4.02,9.17-7.78,10.02-19.85,10.02-19.85,2.44,5.54,7.12,7.58,7.12,7.58-2.11-5.34-1.52-8.73-1.52-8.73,3.17,8.09,10.68,10.51,10.68,10.51-2.37-4.02-2.44-9.96-2.44-9.96,6.59,7.98,10.95,8.84,10.95,8.84-2.64-4.81-2.97-10.16-2.97-10.16,5.01,6.27,9.69,8.18,9.69,8.18-1.78-2.84-1.58-6.79-1.58-6.79,2.31,4.42,5.8,6.13,5.8,6.13-.92-2.57-.2-5.08-.2-5.08,1.47,2.64,3.69,4.73,5.86,6.3Z"/>
      <path class="cls-12" d="M436.98,372.48s5.05,8.31,4.85,24.73c0,0,4.35-3.26,4.65-11.48,0,0,2.28,2.57,2.37,15.14,0,0,9.99-3.56,12.37-12.07,0,0,1.29,3.46,0,10.88,0,0,11.45-7.22,15.14-18.8,0,0,2.15,2.04.69,10.39,0,0,10.19-15.23,4.15-20.18,0,0-3.61.74-6.73.45-3.12-.3-13.4-6.08-21.27-6.08l-8.71,3.86-.94.4-.84.6s2.72,1.92,4.35,6.92c0,0-4.55-4.7-10.09-4.75Z"/>
      <path class="cls-29" d="M392.86,195.48s-.73,4.9,1.45,9.12c0,0-6.2-4.09-8.18-16.49,0,0-2.57,3.23-2.31,9.1,0,0-2.64-5.87-1.98-13.26,0,0-2.97,1.91-3.36,4.81,0,0-1.71-8.71,3.89-14.18,0,0-1.98-.53-6.2,4.29,0,0-.43-5.74,4.32-11.03,0,0-.59-15.51,2.28-27.17s17.11-35.3,37.99-35.3c6.07,0,10.54,1.6,13.85,3.88,0,0-.69-2.43-2.86-3.62,0,0,4.35.43,9.27,8.8,0,0,.46-4.35-2.54-7.88,0,0,6.5,3.2,8.28,15.07,0,0,2.51-9.04-1.19-14.84,0,0,5.94,2.37,6.46,19.85,0,0,2.97-7.78,1.58-19.06,0,0,2.57,2.44,3.23,6.2,0,0,1.71-5.14-.4-8.84,0,0,6.79-1.38,12.99,2.7,0,0-.26-4.02-3.56-6.53l22.46,13.65,14.25,18.53-.48,3.38s5.33,14.82,8.69,21.09c3.36,6.27,6.33,12.41,7.25,15.31s.59,11.27.4,11.67-5.54,10.73-5.54,10.73l-1.25.81-1.38.59s.46-5.01-.86-9.83c0,0-14.84,26.97-62.59,13.65,0,0,1.99,6.86,12.14,8.57,0,0-35.75,8.53-66.09-13.81Z"/>
      <path class="cls-21" d="M484.51,375.61s7.94,2.77,11.57,14.51c2.04,6.59,1.18,13.34.05,18l-15.68,4.62-5.92,3.05s8.62,1.96,7.57,11.98l-16.88-2.51-9.96-2.84-5.41-1.91-.33-3.3,6.66-3.3,13.45-10.09,5.54-8.38,4.68-7.72,2.73-8.24,1.93-3.89Z"/>
      <path class="cls-4" d="M478.92,414.2s14.35,4.47,16.33,14.37l17.81-.79,6.92-3.17v-2.28l-2.57-7.32-9.69-5.14-10.41-1.38-9.14,1.98-7.91,2.38-1.33.94v.42Z"/>
      <path class="cls-17" d="M496.26,281.16s1.27,7.53-1.26,10.59c0,0-7.86.59-12.02,8.8,0,0,5.44-3.66,12.02-1.48,0,0-9.84,1.48-12.91,9.1,0,0,1.52-1.09,7.24-1.19,0,0-6.45,3.17-8.53,8.71-2.08,5.54-7.72,18.5-7.72,26.81s.89,13.75-1.48,21.47l4.75,3h4.45l6.03-3.69,4.85-9.1,1.88-13.85,3.66-9.2,4.15-9.99,2.57-9,.2-6.23-.4-9.3-3.36-10.78-2.08-4.15-1.09-1.12-.97.62Z"/>
      <path class="cls-4" d="M391.16,417.31s13.87,6.31,13.48,15.71l14.84,1.38,12.96-.99,6.33-2.97v-5.84l-2.28-6.83-8.31-4.75-8.31-1.78h-12.56l-8.84,2.37-6.1,2.41-1.24.9.03.38Z"/>
      <path class="cls-5" d="M459.34,333.01s21.63-21.37,11.08-56.59c0,0,3.5,3.17,5.41,9.83,0,0,2.11-11.45-6.46-22.21,0,0,5.21,2.89,7.91,9.42,0,0-2.31-13.65-10.88-22.69,0,0,4.55,1.65,9.1,7.12,0,0-4.42-19.26-17.15-29.81,0,0,1.12,6.13,3.5,10.55,0,0-8.77-7.19-11.87-8.77,0,0,4.02,5.94,5.21,12.13,0,0-6.25-2.97-11.18-8.51,0,0,1.88,6.28,6.73,11.67,0,0-5-.89-8.61-4.65,0,0-1.14,10.39,7.42,18.99,0,0-5.19-2.13-9.15-7.86,0,0-.54,11.67,7.62,21.76,0,0-4.11-1.68-6.97-6.33,0,0-1.43,9.84,9.45,22.16,0,0-5.64-2.03-9.35-6.88,0,0-.79,9.63,3.56,19.92,4.35,10.29,12.27,24.27,14.64,30.73Z"/>
      <path class="cls-22" d="M501.15,390.38s.53-14.01-5.67-20.31c0,0,3.48-.16,5.68,3.4,0,0-1.51-6.73-6.16-11.08,0,0,3.17-.25,5.84,2.42,0,0-1.29-3.76-4.25-5.34,0,0,1.38-7.77.54-11.23,0,0,8.31,10.88,8.31,23.15s-4.29,18.99-4.29,18.99Z"/>
      <path class="cls-7" d="M371.1,350.02s7.91-9.36,29.68-10.68c0,0-14.9-9.89-27.04,2.37,0,0,3.57-1.03,8.18-.53,0,0-6.99,1.32-10.82,8.84Z"/>
      <path class="cls-7" d="M369.91,337.85s11.48-6.53,27.3-6.43c0,0-7.35-2.8-14.97-1.71-7.62,1.09-12.33,8.14-12.33,8.14Z"/>
      <path d="M420.96,115.57s-10.49-1.38-23.87,12.93c-13.39,14.31-11.72,34.72-9.61,38.81,2.11,4.09,8.41,7.77,19.29,7.57,10.88-.2,36.57-4.44,36.09-24.55-.46-19.59-7.12-33.77-21.9-34.76Z"/>
      <path class="cls-25" d="M420.35,118.96s-9.51-1.26-21.65,11.72-10.63,31.48-8.72,35.19c1.91,3.71,7.62,7.04,17.49,6.86,9.87-.18,33.16-4.03,32.73-22.26-.42-17.76-6.46-30.62-19.85-31.51Z"/>
      <path class="cls-18" d="M432.63,150.62c.24,2.32.42,6.99-2.51,11.28-4.37,6.41-12.7,6.52-14.46,6.54-1.61.02-10.03.13-14.99-6.48-2.9-3.87-3.14-8.06-3.12-9.79.11-9.62,8.88-14.8,9.3-15.04,3.62-2.06,7.06-2.26,8.32-2.32,1.76-.09,5.73-.28,9.53,1.98,6.61,3.93,7.74,12.15,7.91,13.83Z"/>
      <path class="cls-27" d="M416.31,167.85c-1.26,0-9.15-.26-13.11-6.58-1.8-2.88-1.94-5.72-1.99-6.79-.08-1.7.01-7.58,4.73-12,3.74-3.5,8.14-4.03,10.43-4.04h.05c1.85,0,6.47.39,10.38,3.93,1.54,1.4,5.12,5.28,5,11.09h0c-.08,3.44-1.42,6.69-3.9,9.41-4.04,4.43-9.39,4.96-11.51,4.98-.02,0-.05,0-.09,0ZM416.43,140.68h-.04c-1.96,0-5.73.46-8.91,3.44-4.02,3.76-4.1,8.8-4.03,10.25.05,1,.16,3.33,1.65,5.71,3.47,5.55,10.95,5.54,11.27,5.53,1.82-.02,6.44-.47,9.88-4.25,2.1-2.31,3.25-5.06,3.31-7.94h0c.11-4.89-2.94-8.19-4.26-9.38-3.33-3.02-7.28-3.35-8.87-3.35ZM430.68,153.44h0,0Z"/>
      <path class="cls-8" d="M427.18,149.77c-.42,1.73-2.19,2.82-3.85,2.81-2.25-.02-4.03-2.08-4.06-4.09-.01-1.09.48-2.42,1.61-3.14.98-.62,2.02-.51,2.45-.47.35.04,1.47.2,2.45,1.09.19.17,1.9,1.77,1.4,3.81Z"/>
      <g>
        <path class="cls-20" d="M355.27,421.34l-15.83,3.89s-10.01-9.26-12.73-23.19c-.67-3.41-.89-7.11-.43-11.02l.59-2.33,4.85-1.29,5.54-1.68.07,1.25s.04,2.7.8,6.7c1.46,7.66,5.56,20.11,17.1,27.65.01,0,.02.01.03.02Z"/>
        <path class="cls-20" d="M318.57,425.9l-21.46-.68s-3.85-8.83-2.46-18.26c.61-4.19,2.25-8.5,5.72-12.21l6.82-1.88,8.91-.49s-3.55,5.36-3.65,13.78c-.07,5.49,1.32,12.29,6.13,19.75Z"/>
        <path class="cls-20" d="M281.67,422.43l-1.72.13-1.45.11-12.71-2.97-.48-.2-3.73-1.58s-1.6-7.98,1.82-15.6c1.5-3.35,3.97-6.63,7.97-9.13l6.18-.4,4.85.89,1.73,1.53s-3.12,3.81-4.33,10.3c-.84,4.48-.77,10.24,1.86,16.9Z"/>
        <path class="cls-20" d="M256.84,388.41s-5.1,2.17-8.79,8.86c-1.72,3.1-3.12,7.18-3.58,12.46l-2.26-1.13h-.01s-6.04-3.03-6.04-3.03l-2.43-2.12h-.01s-2.9-2.53-2.9-2.53l-1.98-2.08s1.5-4.55,5.1-9.05c2.6-3.26,6.3-6.49,11.32-7.96l5.89,2.77,4.41,2.92,1.28.89Z"/>
        <path class="cls-20" d="M234.19,372.62c-5.36,1.47-9.11,4.42-11.66,7.38-3.63,4.2-4.86,8.4-4.86,8.4l-.71-.26-.67-.24s-1.73-2.32-2.03-2.67c-.3-.35-1.88-2.52-2.03-2.82-.15-.3-2.12-3.56-2.12-3.56v-3.19s.02-.08.03-.12c.93-3.21,2.51-5.61,4.33-7.39,4.87-4.8,11.41-5.22,11.41-5.22h1.34l6.97,9.69Z"/>
        <path class="cls-6" d="M221.08,350.52c-4.87.91-8.33,2.4-10.77,3.94-4.31,2.71-5.43,5.56-5.43,5.56l-.67-.54s-.49-2.69-.85-4.52v-.02c-.15-.71-.27-1.29-.34-1.54-.25-.89,0-7.92,0-8.16s4.2-5.25,4.2-5.25l7.22-1.13,3.66,3.76,2.97,7.92Z"/>
      </g>
      <path class="cls-18" d="M472.46,115.96s11.88-2.14,22.62,16.16c9.46,16.12,9.47,23.4,9.36,26.84-.07,2.08.07,7.89-11.01,9.48-11.08,1.6-21.53-3.65-28.56-15.3-7.02-11.66-7.98-34.71,7.58-37.18Z"/>
      <g>
        <path class="cls-24" d="M370.36,140.01s5.88,1.18,6.57,5.44c0,0-.54-.35-2.13-.64,0,0,2.87,2.63,3.02,6.8,0,0-2.47.12-5.14,2.94,0,0,2.87-.15,5.14,1.24,0,0-3.86,1.88-5.84,4.75,0,0,2.77-.45,4.25,1.38,0,0-3.36-.25-5.69,2.92,0,0,2.62-1.04,5.19-.3,0,0-.15,4.94-9.89,14.44l-5.74-1.68-5.69-4.85-2.97-5.44-1.09-7.07,1.34-10.29,2.67-4.7,4.2-2.97,3.22-1.97h3.31l3.51-.2,1.74.2Z"/>
        <path class="cls-33" d="M373.72,143.81s-10.83-3.17-16.57,6.33c-5.74,9.5-1.83,22.06,7.22,27.11,0,0-2.32-.1-4.4-.69s-4.85-2.13-4.85-2.13l-4.8-9.4-.4-9.15,1.73-7.62,3.22-5.34,6.28-2.13s8.83-1.21,12.56,3.02Z"/>
      </g>
      <path class="cls-25" d="M473.25,119.04s10.4-1.78,20.23,14.45c8.4,13.86,9.15,23.54,9.09,24.96-.08,2.04-.08,6.88-9.99,8.31-9.91,1.43-19.83-4.05-26.11-14.47-6.28-10.42-7.14-31.03,6.78-33.25Z"/>
      <path class="cls-18" d="M495.56,154.06v.02c-.1,2.59-1.04,7.76-6.73,9.69-.02,0-.04.02-.07.02-.15.05-.3.1-.46.14-.03.01-.07.02-.11.03-4.38,1.24-9.86.69-13.86-.78l-5.42-7.31s-2-4.16-1.27-11.35c.98-9.73,8.71-11.21,11.54-11.21s15.61,2.24,16.34,19.26c.02.48.03.98.03,1.49Z"/>
      <path class="cls-27" d="M469.17,142.99s2.9-5.59,9.63-5.59c7.42,0,13.52,7.3,13.52,14.34s-5.08,11.64-11.08,11.64-9.41-4.21-9.41-4.21l-.86-.89s3.97,3.52,8.95,3.52,10.31-3.05,10.31-10.67-6.65-11.95-12.04-11.95c-4.82,0-9.02,3.8-9.02,3.8Z"/>
      <circle class="cls-27" cx="483.98" cy="147.02" r="3.58"/>
      <path class="cls-23" d="M470.91,160.83s-3.41-1.79-8.7-1.79-15.42,2.33-16.47,11.13c-.97,8.14,22.99,16.63,31.03,2.23,1.2-2.15,1.62-4.69,1.01-7.09-.11-.44-.25-.87-.44-1.27l-2.27-.95-2.35-2.1-1.81-.17Z"/>
      <path class="cls-32" d="M472.8,171.05c-1.65,1.43-4.34,2.32-7.88,1.95-8.8-.91-11.07-5-11.78-7.23-.22-.7.15-1.92.75-2.33,1.26-.85,2.75-1.56,5.06-1.98,1.58-.29,3.54-.43,6.08-.39,9.83.15,11.68,6.59,7.78,9.98Z"/>
      <path class="cls-8" d="M472.8,171.05c.63-8.06-13.79-9.55-13.79-9.55l-.06-.04c1.58-.29,3.54-.43,6.08-.39,9.83.15,11.68,6.59,7.78,9.98Z"/>
      <path class="cls-14" d="M507.27,141.68s15.53-2.02,14.27,23.52l3.42-2.63v-14.17l-6.31-8.11-5.75-2.9-6.67-1.06h-1.29l1.09,1.54,1.23,3.81Z"/>
      <g>
        <path class="cls-6" d="M214.46,368.15c1.82,3.75,4.41,7.81,8.07,11.85-3.63,4.2-4.86,8.4-4.86,8.4l-.71-.26-6.82-12.6c.93-3.21,2.51-5.61,4.33-7.39Z"/>
        <path class="cls-6" d="M233.95,389.78c4,2.68,8.66,5.21,14.1,7.48-1.72,3.1-3.12,7.18-3.58,12.46l-2.26-1.13h-.01s-8.47-5.15-8.47-5.15h-.01s-2.9-2.53-2.9-2.53l-1.98-2.08s1.5-4.55,5.1-9.05Z"/>
        <path class="cls-6" d="M281.67,422.43l-1.72.13-14.64-3.06-3.73-1.58s-1.6-7.98,1.82-15.6c4.99,1.27,10.44,2.35,16.4,3.2-.84,4.48-.77,10.24,1.86,16.9Z"/>
        <path class="cls-6" d="M312.44,406.14c-.07,5.49,1.32,12.29,6.13,19.75l-21.46-.68s-3.85-8.83-2.46-18.26c6.77.28,12.67-.03,17.8-.81Z"/>
        <path class="cls-6" d="M355.24,421.33l-15.8,3.91s-10.01-9.26-12.73-23.19c4.93-2.27,8.64-5.17,11.42-8.37,1.46,7.66,5.56,20.11,17.1,27.65Z"/>
      </g>
      <path class="cls-23" d="M423.46,182.94c.73-1.73,2.94-2.78,4.62-1.71,1.61,1,2.92,2.28,4.38,3.31,6.6,4.97,14.63,7.48,22.88,7.9,8.32.52,16.36-1.1,22.82-6.66,2.05-1.75,3.93-3.8,5.43-6.11.1-.19.35-.26.53-.14.14.09.2.26.15.41-.61,2.13-1.76,4.08-3.12,5.81-5.1,6.45-13.57,9.41-21.59,9.67-7.29.34-14.73-.83-21.39-3.91-3.98-1.77-7.57-4.5-10.84-7.26-.3-.23-.57-.44-.81-.57,0,0-.07-.04,0-.01.02,0,.05,0,.07,0,.03,0-.01,0-.01,0-.02,0-.05,0-.06,0-.07,0-.13.01-.23.09-.08.06-.17.16-.23.25-.02.02-.06.1-.04.05-.77,1.67-3.27.59-2.57-1.12h0Z"/>
      <g>
        <path class="cls-11" d="M402.51,420.13c4.69,1.7,7.24,6.84,7.48,11.61.13,2.32-3.26,2.49-3.36.17.06-1.76.03-3.39-.39-5.12-.64-2.43-1.96-4.69-3.87-6.4-.14-.09-.02-.33.14-.27h0Z"/>
        <path class="cls-11" d="M416.28,419.33c5.18,1.68,8.24,7.18,8.55,12.42.22,2.22-3.02,2.63-3.35.42-.04-.7.06-1.4.04-2.11-.04-1.09-.16-2.28-.46-3.34-.73-2.86-2.55-5.33-4.88-7.16-.12-.07-.03-.28.11-.24h0Z"/>
        <path class="cls-11" d="M491.42,416.9c5.02,1.04,7.59,6.33,7.34,11.13,0,1.84-2.71,1.9-2.8.06.05-1.35.17-2.72-.06-4.06-.4-2.83-2.13-5.32-4.57-6.87-.15-.06-.08-.31.08-.27h0Z"/>
        <path class="cls-11" d="M504.18,416.57c4.09,1.58,6.46,6.02,6.64,10.26.12,1.82-2.55,2.07-2.76.25,0-1.43,0-2.88-.4-4.27-.58-2.27-1.94-4.3-3.66-5.91-.18-.12-.02-.42.18-.34h0Z"/>
      </g>
      <g>
        <path class="cls-11" d="M439.6,354.01c1.17,3.52,1.74,7.25.92,10.94-.29,1.39-2.16,5.43-4.14,3.53-.51-.61-.41-1.54.23-2.02,1.45-1.15,1.9-3.5,2.12-5.39.23-2.26.17-4.6.07-6.88-.04-.47.65-.63.8-.18h0Z"/>
        <path class="cls-11" d="M448.54,354.38c1.42,4.91.86,10.76-2.78,14.62-1.26,1.35-3.3-.45-2.1-1.87,1.72-1.47,2.96-3.43,3.56-5.65.61-2.22.74-4.63.57-6.93-.07-.46.62-.61.75-.17h0Z"/>
        <path class="cls-11" d="M475.86,353.76c-.06,3.25-.22,6.88.21,10.08.16,1.08.34,2.15.7,3.07.23.58-.06,1.24-.64,1.46-.6.23-1.27-.09-1.47-.7-1.06-3.5-.78-7.08-.39-10.63.14-1.15.34-2.29.61-3.42.06-.27.33-.43.6-.37.23.06.39.27.38.5h0Z"/>
        <path class="cls-11" d="M484.64,354.14c.06,4.85-.49,11.45-5.39,13.95-.63.3-1.39.03-1.69-.6-.3-.63-.03-1.38.6-1.68,4.12-1.54,5.12-7.74,5.49-11.66.03-.62.95-.64.99,0h0Z"/>
      </g>
    </g>
    <path class="cls-11" d="M525.66,147.6c-4.65-11.88-16.57-13.49-20.56-13.69-6.46-12.95-25.07-40.28-66.93-40.28-28.89,0-46.67,12.04-56.49,22.13-8.49,8.73-12.61,17.39-14.01,20.79-3.48-.18-8.32.8-12.5,4.19-3.27,2.65-7.22,7.74-7.47,16.9-.45,16.39,11.02,22.55,14.96,24.18,1.21,11.1,7.41,20.37,18.02,26.86,6.53,4.01,12.85,5.82,15.3,6.43,5.96,15.26,1,25.83-7.19,40.07-6.69,11.64-10.23,19.97-10.77,25.39h0s0,.03,0,.08c0,.05,0,.1-.01.15,0,.05,0,.12-.01.19-.02.25-.04.5-.04.74-.01.13-.02.26,0,.4,0,0,0,.01,0,.02,0,.19.02.38.04.57.07,2.17.48,5.81,2.06,10.16-.89,7.91-3.96,16.59-18.34,36.21-16.06,21.91-14.94,41.49-14.84,42.8.06,1.63.16,3.18.3,4.66-3.59,2.97-20.33,15.05-54.93,15.05-40.56,0-57.77-20.8-64.42-33.19-2.39-4.46-3.87-8.21-5.07-11.22-2.47-6.26-4.1-10.39-10.51-10.39-3.23,0-5.96,1.21-7.91,3.49-3.07,3.6-4.08,9.85-2.83,17.58l.07.4c1.82,11.37,5.61,35.02,43.59,55.08,17.84,9.43,39.84,14.83,63.62,15.63,1.99.07,3.99.1,5.98.1,18.94,0,37.99-2.99,54.59-8.58.18.45.34.9.48,1.38,4.07,13.54,15.63,13.81,23.56,13.81h1.03c3.14,0,5.99,0,9.45-.02,5.36-.01,12.21-.03,23.94-.03,6.75,0,11.06-1.73,12.8-5.15,1.61-3.17.54-6.81-.64-9.33,2.19-.19,4.51-.56,5.76-.78,13.68,10.18,42.82,10.3,43.11,10.3,7.03,0,17.48-.2,25-.63,2.88-.17,5.09-1.14,6.57-2.88,2.06-2.44,1.82-5.39,1.78-5.72,0-.04,0-.07-.01-.11-1.75-10.57-14.21-13.66-20.59-14.56,5.07-6.81,10.19-16.85,10.19-29.64,0-20.7-11.11-37.46-14.39-41.95.23-.5.47-1.01.72-1.55h0s.02-.04.02-.05c7.64-14.43,13.29-34.26-2.23-61.94-16.27-29-19.24-38.17-19.24-45.77,0-6.02,1.87-9.01,2.52-9.88,22.19-7.18,35.91-16.82,40.78-28.67,2.88-7.01,1.8-12.88.85-15.85,1.55-.85,2.99-2.33,4.13-4.27,3.16-5.39,3.44-12.72.74-19.6ZM246.97,409.86c-36.25-19.14-39.83-41.49-41.55-52.23l-.07-.41c-1.04-6.49-.33-11.74,1.95-14.41,1.21-1.42,2.82-2.11,4.92-2.11,3.59,0,4.38,1.64,6.86,7.9,1.23,3.11,2.76,6.97,5.26,11.64,3.43,6.39,9.91,15.56,21.3,22.95,12.59,8.17,28.26,12.31,46.58,12.31,31.76,0,49.04-9.76,55.47-14.41,2.37,15.86,8.9,23.03,14.29,28.96,2.12,2.33,4.06,4.46,5.57,6.88-39.44,13.2-87.32,10.5-120.59-7.07ZM521.54,165.21c-1.05,1.79-2.42,3-3.57,3.16-.63.08-1.18.48-1.47,1.04-.3.57-.3,1.24-.01,1.81.13.26,3.22,6.49-.22,14.73-3.09,7.41-12.33,18.02-38.83,26.5-.28.08-.53.24-.75.44-.41.38-3.98,4.01-3.98,13.01,0,8.28,3.05,17.93,19.74,47.68,13.8,24.61,9.85,42.59,3.34,55.92,0,0-.01.02-.03.06-.17.29-.94,1.61-1.8,3.46-.32.69-.65,1.46-.97,2.27-.11.27-.21.55-.31.83,0,.02-.01.03-.02.04-.02.04-.03.08-.05.13-.32.85-.57,1.7-.78,2.57-.03.12-.06.24-.08.36-.06.25-.12.5-.17.75-.39,1.93-.61,3.89-.85,5.8-.56,4.34-1.27,8.95-3.06,12.84-1.16,2.55-2.88,4.66-5.13,5.77-2.2,1.12-5.19,1.3-7.53.64-2.49-.68-4.19-2.58-5.22-4.96-2.18-5.2-1.95-11.47-1.26-17.1.76-5.99,2.67-11.67,4.74-17.35,2.09-5.75,4.44-11.51,6.24-17.55,3.69-11.94,3.67-25.65-1.69-37.05.73,5.35,1.15,10.6.87,15.95-.67,12.93-4.97,25.05-9.43,37.19-1.05,2.91-2.07,5.87-2.93,8.91-2.67,9.37-4.81,25.49,2.72,33.1,4.02,3.87,10.45,4.17,15.31,1.82,3.21-1.59,5.56-4.56,6.97-7.72,2.68-5.87,3.03-12.42,3.94-18.52.11-.74.25-1.42.42-2.09,4.05,6.17,12.15,20.61,12.15,37.46,0,13.1-5.88,23.11-11.03,29.36,0,0,0,0,0,0-2.07.18-4.11.49-6.1,1.01-6.7,1.78-13.12,4.81-18.49,9.2,4.2-1.68,8.43-3.17,12.76-4.36,4.2-1.15,8.53-1.85,12.84-2.01,1.43.08,18.66,1.2,20.46,11.55.02.27.03,1.69-.9,2.76-.76.87-2.03,1.37-3.78,1.47-7.43.43-17.79.62-24.77.62s-26.97-1.47-38.18-7.84c0,0,0,0-.01,0,4.69-1.73,9.19-4.09,13.2-7.09,12.81-9.43,21.39-25.58,20.84-41.6-3.76,15.31-11.83,30.14-25.12,39.08-4.28,2.9-8.95,5.22-13.85,7.1-1.75.33-5.98,1-8.34.96-2.85-2.33-5.91-4.63-9.36-6.13,3.71-11.97,4.92-25.25.63-37.22-4.48-12.51-15.54-22.04-28.12-25.69,9.74,4.96,18.07,12.85,22.73,22.76,5.9,12.13,4.59,26.21.24,38.71-12.42-2.73-27.85,2.36-37.34,9.98,7.93-4.36,16.97-6.89,25.97-7.26,3.86-.19,7.58.13,11.07,1.17.88.26,1.74.57,2.6.92,1.66.7,3.26,1.59,4.8,2.69.53.35,1.05.73,1.58,1.11,1.46,1.12,3.83,3.23,4.75,5.68.09.25.18.51.26.77.38,1.35.49,2.75-.07,3.85-1,1.97-4.22,3-9.3,3-11.73,0-18.58.02-23.95.03-3.46.01-6.3.02-9.44.02h-.52c-7.95,0-16.99.02-20.3-11.02-.16-.54-.34-1.05-.53-1.56-.48-1.28-1.05-2.46-1.7-3.56-1.77-3.06-4.06-5.58-6.45-8.2-6.23-6.85-13.3-14.62-14.12-35.74,0-.02,0-.05,0-.07-.01-.19-1.26-19.26,14.09-40.22,10.79-14.7,15.6-23.61,17.76-31.39,1.96,5.21,4.45,10.3,8.01,14.61,2.48,3.1,5.61,5.7,8.87,7.9,6.3,4.37,13.49,6.73,19.1,11.63,3.64,3.18,4.64,7.86,5.76,12.47,1.92,7.57,3.04,16.48,10,21.38,4.86,3.1,11.63,3.03,16.55.09,4.98-3.04,6.88-9.3,7.09-14.75.25-5.33-.78-10.58-2.61-15.56-1.66-4.84-3.66-9.61-5.94-14.18-3.95-7.97-8.67-15.63-13.61-23.01-1.13-1.59-1.98-3.11-2.02-5.05-.01-.63.05-3.86.07-4.59.03-5.05.92-9.97,1.21-14.98.32-7.64-.58-15.73-4.24-22.5,2.18,7.28,2,14.8.91,22.18-.91,5-1.47,10.08-1.68,15.15-.11,1.92-.27,3.92-.06,5.84-1.34-1.09-3.96-3.47-5.76-4.39,0,0,5.9,6.89,8.51,10.78.06.09.12.17.17.26.02.02.03.05.05.07,7.4,11.24,14.4,22.99,18.69,35.71.78,2.25,1.56,4.62,1.93,6.98.74,4.56.84,9.58-.87,13.85-.84,2.05-2.13,3.8-3.9,4.88-3.57,2.13-8.83,2.18-12.3-.04-5.64-4.01-6.69-12.62-8.34-19.01-1.16-5.08-2.71-10.86-6.91-14.45-2.04-1.87-4.29-3.31-6.54-4.6-6.67-3.76-13.3-6.66-18.67-11.92-5.86-5.71-9.63-14.37-11.97-22.9h0c-.29-1.03-.55-2.04-.78-3.05-.07-.29-.14-.57-.2-.86-.07-.29-.13-.58-.2-.86-.02-.08-.04-.16-.06-.25-.08-.35-.15-.71-.22-1.06,0,0,0-.01,0-.02-.12-.57-.23-1.13-.33-1.68-.47-2.77-.06-4.92,0-5.26.91-3.95,3.52-10.59,9.91-21.7,8.66-15.06,14.24-27.06,7.04-44.46-.25-.61-.79-1.04-1.44-1.17-.07-.02-7.57-1.55-15.16-6.22-9.96-6.14-15.4-14.55-16.17-25.01-.06-.82-.63-1.52-1.42-1.74-.14-.04-13.86-4.12-13.41-20.78.16-6.07,2.24-10.89,6.01-13.96,2.93-2.37,6.44-3.34,9.19-3.34.64,0,1.23.05,1.77.15.96.17,1.89-.38,2.21-1.29.04-.11,3.7-10.6,13.81-20.93,13.51-13.81,31.53-20.81,53.55-20.81,40.84,0,58.31,27.37,63.92,39.14.34.71,1.05,1.14,1.86,1.12.55-.03,13.5-.43,18.06,11.22,2.67,6.79,1.5,12.81-.47,16.18Z"/>
  </g>
  <g>
    <g>
      <path class="cls-19" d="M625.03,253.9h-34.75v34.52h-16.27v-81.13h16.27v33.36h34.75v-33.36h16.27v81.13h-16.27v-34.52Z"/>
      <path class="cls-19" d="M695,289.23c-22.9,0-41.61-17.2-41.61-41.61s18.71-41.5,41.61-41.5,41.5,17.2,41.5,41.5-18.48,41.61-41.5,41.61ZM695,274.71c14.64,0,24.76-10.58,24.76-27.08s-10.11-26.85-24.76-26.85-24.87,10.34-24.87,26.85,10.11,27.08,24.87,27.08Z"/>
      <path class="cls-19" d="M776.6,289.23c-16.85,0-29.87-8.83-30.1-24.18h17.44c.46,6.51,4.77,10.81,12.32,10.81s12.2-4.07,12.2-9.88c0-17.55-41.84-6.97-41.73-36.38,0-14.65,11.86-23.48,28.59-23.48s28.01,8.48,29.06,23.13h-17.9c-.35-5.35-4.65-9.53-11.62-9.65-6.39-.23-11.16,2.91-11.16,9.53,0,16.27,41.61,7.21,41.61,35.8,0,12.79-10.23,24.29-28.71,24.29Z"/>
      <path class="cls-19" d="M815.08,207.29h59.51v13.13h-21.62v68h-16.27v-68h-21.62v-13.13Z"/>
      <path class="cls-2" d="M886.45,207.29h18.48l25.8,60.32,25.8-60.32h18.36v81.13h-16.27v-52.77l-21.74,52.77h-12.32l-21.85-52.77v52.77h-16.27v-81.13Z"/>
      <path class="cls-2" d="M1038.03,220.43h-30.8v20.34h27.31v12.9h-27.31v21.5h30.8v13.25h-47.07v-81.25h47.07v13.25Z"/>
      <path class="cls-2" d="M1099.87,220.43h-30.8v20.34h27.31v12.9h-27.31v21.5h30.8v13.25h-47.07v-81.25h47.07v13.25Z"/>
      <path class="cls-2" d="M1145.09,207.29c19.53,0,29.29,11.27,29.29,24.87,0,9.88-5.46,19.88-18.48,23.36l19.41,32.89h-18.83l-17.9-31.62h-7.67v31.62h-16.27v-81.13h30.45ZM1144.5,220.77h-13.6v23.83h13.6c9.07,0,13.13-4.77,13.13-12.09s-4.07-11.74-13.13-11.74Z"/>
      <path class="cls-2" d="M1205.41,252.27v36.15h-16.27v-81.13h16.27v36.38l29.52-36.38h19.64l-33.48,40.22,34.4,40.91h-20.57l-29.52-36.15Z"/>
      <path class="cls-2" d="M1315.96,272.96h-32.31l-5.35,15.46h-17.09l29.17-81.25h18.95l29.17,81.25h-17.2l-5.35-15.46ZM1299.8,226l-11.74,33.94h23.48l-11.74-33.94Z"/>
      <path class="cls-2" d="M1345.14,207.29h59.51v13.13h-21.62v68h-16.27v-68h-21.62v-13.13Z"/>
    </g>
    <g>
      <path class="cls-2" d="M912.97,336.92c9.83,0,16.23,4.88,18.49,13.32h-8.95c-1.38-3.86-4.59-6.33-9.54-6.33-6.7,0-11.14,4.95-11.14,13.68s4.44,13.76,11.14,13.76c4.95,0,8.01-2.18,9.54-6.33h8.95c-2.26,7.86-8.66,13.32-18.49,13.32-11.5,0-19.65-8.15-19.65-20.75s8.15-20.67,19.65-20.67Z"/>
      <path class="cls-2" d="M957.15,378.34c-11.43,0-20.09-8.15-20.09-20.75s9.03-20.67,20.45-20.67,20.45,8.08,20.45,20.67-9.32,20.75-20.82,20.75ZM957.15,371.13c6.19,0,12.3-4.44,12.3-13.54s-5.9-13.47-12.08-13.47-11.87,4.37-11.87,13.47,5.39,13.54,11.65,13.54Z"/>
      <path class="cls-2" d="M989.54,378.19c-2.98,0-5.31-2.33-5.31-5.31s2.33-5.31,5.31-5.31,5.24,2.33,5.24,5.31-2.33,5.31-5.24,5.31Z"/>
      <path class="cls-2" d="M1040.05,377.68h-8.3v-4.8c-2.62,3.42-7.13,5.39-11.86,5.39-9.39,0-16.52-5.9-16.52-17.11v-23.58h8.23v22.35c0,7.35,4,11.14,10.05,11.14s10.12-3.79,10.12-11.14v-22.35h8.3v40.11Z"/>
      <path class="cls-2" d="M1050.97,323.82h8.3v31.3l14.56-17.54h11.5l-18.49,20.09,18.49,20.02h-11.21l-14.85-17.25v17.25h-8.3v-53.86Z"/>
    </g>
    <g>
      <rect class="cls-19" x="574" y="356.9" width="286.51" height="7.39"/>
      <rect class="cls-19" x="1118.14" y="356.9" width="286.51" height="7.39"/>
    </g>
  </g>
</svg>