<svg width="72" height="45" viewBox="0 0 72 45" fill="none" xmlns="http://www.w3.org/2000/svg">
<g clip-path="url(#clip0_1_286)">
<path d="M0.976807 26.4893C0.976807 26.4893 8.27196 13.5701 18.9546 29.2084C21.454 32.869 23.2778 42.402 30.3097 42.8105C30.3097 42.8105 20.6071 49.6659 14.3587 37.385C12.4017 33.5265 9.49311 25.2733 0.976807 26.4893Z" fill="white"/>
<path d="M14.7647 15.4818C14.7647 15.4818 22.7735 10.9627 30.3066 29.8978C32.6093 35.6903 39.6317 50.301 51.5259 42.8201C51.5259 42.8201 45.3631 41.6297 37.3353 24.051C34.82 18.5361 24.1057 2.83394 14.7647 15.4818Z" fill="white"/>
<path d="M27.1982 4.33075C27.1982 4.33075 35.0389 0.114796 44.3672 19.0116C44.3672 19.0116 62.3419 56.0073 71.1309 37.6467C71.1309 37.6467 63.1538 37.6467 54.5043 19.9627C51.0344 12.8808 41.9345 -9.25542 27.1982 4.33075Z" fill="white"/>
<path d="M48.2875 0.928711C48.2875 0.928711 58.0186 3.92233 57.749 16.2989C59.8706 15.6838 62.1473 15.9278 64.0926 16.9787C64.0926 16.9787 64.1021 2.01701 48.2875 0.928711Z" fill="white"/>
<path d="M65.3392 32.0105C68.8059 35.2626 71.1467 35.4701 71.188 35.4733C71.8223 33.6765 75.8252 20.7126 59.7695 18.2009C59.7758 18.1914 69.0407 24.5743 65.3392 32.0105Z" fill="white"/>
<path d="M8.41158 43.7711C8.41158 43.7711 1.65246 36.2903 5.55695 28.4041C5.55695 28.4041 0.0158081 27.1786 0.0158081 31.1233C0.0316671 31.1233 -0.104723 40.1009 8.41158 43.7711Z" fill="white"/>
<path d="M18.8183 25.2734C18.8183 25.2734 18.4313 19.0819 20.4423 18.201C20.4423 18.201 14.7647 15.0734 13.2772 20.6521C13.2772 20.6521 16.1159 21.8744 18.8183 25.2734Z" fill="white"/>
<path d="M30.9853 12.217C30.9853 12.217 31.5245 9.22656 34.0937 7.45848C34.0937 7.45848 27.4709 3.23933 24.0898 8.95209C24.1056 8.95209 28.8221 9.63507 30.9853 12.217Z" fill="white"/>
</g>
<defs>
<clipPath id="clip0_1_286">
<rect width="72" height="45" fill="white"/>
</clipPath>
</defs>
</svg>
