<svg width="91" height="16" viewBox="0 0 91 16" fill="none" xmlns="http://www.w3.org/2000/svg">
<path d="M13.2236 0V15.4043H11.0215V8.80859H2.20215V15.4043H0V0H2.20215V6.60645H11.0215V0H13.2236ZM30.3896 13.2021C30.3896 13.5029 30.3324 13.7894 30.2178 14.0615C30.1032 14.3265 29.9456 14.5592 29.7451 14.7598C29.5446 14.9603 29.3083 15.1178 29.0361 15.2324C28.7712 15.347 28.4883 15.4043 28.1875 15.4043H19.3896C19.0889 15.4043 18.8024 15.347 18.5303 15.2324C18.2653 15.1178 18.0326 14.9603 17.832 14.7598C17.6315 14.5592 17.474 14.3265 17.3594 14.0615C17.2448 13.7894 17.1875 13.5029 17.1875 13.2021V2.20215C17.1875 1.90137 17.2448 1.61849 17.3594 1.35352C17.474 1.08138 17.6315 0.848633 17.832 0.655273C18.0326 0.454753 18.2653 0.297201 18.5303 0.182617C18.8024 0.0608724 19.0889 0 19.3896 0H28.1875C28.4883 0 28.7712 0.0608724 29.0361 0.182617C29.3083 0.297201 29.5446 0.454753 29.7451 0.655273C29.9456 0.848633 30.1032 1.08138 30.2178 1.35352C30.3324 1.61849 30.3896 1.90137 30.3896 2.20215V13.2021ZM19.3896 2.20215V13.2021H28.1875V2.20215H19.3896ZM36.5557 8.80859C36.2549 8.80859 35.9684 8.7513 35.6963 8.63672C35.4313 8.51497 35.1986 8.35742 34.998 8.16406C34.7975 7.96354 34.64 7.73079 34.5254 7.46582C34.4108 7.19368 34.3535 6.90723 34.3535 6.60645V2.20215C34.3535 1.90137 34.4108 1.61849 34.5254 1.35352C34.64 1.08138 34.7975 0.848633 34.998 0.655273C35.1986 0.454753 35.4313 0.297201 35.6963 0.182617C35.9684 0.0608724 36.2549 0 36.5557 0H44.0322C44.333 0 44.6159 0.0608724 44.8809 0.182617C45.153 0.297201 45.3893 0.454753 45.5898 0.655273C45.7904 0.848633 45.9479 1.08138 46.0625 1.35352C46.1771 1.61849 46.2344 1.90137 46.2344 2.20215V4.18945H44.0322V2.20215H36.5557V6.60645H44.0322C44.333 6.60645 44.6159 6.66374 44.8809 6.77832C45.153 6.8929 45.3893 7.05046 45.5898 7.25098C45.7904 7.4515 45.9479 7.68783 46.0625 7.95996C46.1771 8.22493 46.2344 8.50781 46.2344 8.80859V13.2021C46.2344 13.5029 46.1771 13.7894 46.0625 14.0615C45.9479 14.3265 45.7904 14.5592 45.5898 14.7598C45.3893 14.9603 45.153 15.1178 44.8809 15.2324C44.6159 15.347 44.333 15.4043 44.0322 15.4043H36.3408C36.04 15.4043 35.7536 15.347 35.4814 15.2324C35.2165 15.1178 34.9837 14.9603 34.7832 14.7598C34.5827 14.5592 34.4251 14.3265 34.3105 14.0615C34.196 13.7894 34.1387 13.5029 34.1387 13.2021V11.2256H36.3408V13.2021H44.0322V8.80859H36.5557ZM48.8877 0H61.209V2.20215H56.1494V15.4043H53.9473V2.20215H48.8877V0ZM63.8516 0H75.0771V2.20215H66.0537V6.60645H73.7559V8.80859H66.0537V13.2021H75.0771V15.4043H63.8516V0ZM90.5459 5.5C90.5459 7.64844 89.6292 8.87305 87.7959 9.17383L90.6963 15.4043H88.2578L85.4004 9.24902H80.5771V15.4043H78.375V0H86.8076C89.2998 0 90.5459 1.24967 90.5459 3.74902V5.5ZM80.5771 7.04688H86.6895C87.2767 7.04688 87.6992 6.91797 87.957 6.66016C88.2148 6.40234 88.3438 5.97982 88.3438 5.39258V3.85645C88.3438 3.26921 88.2148 2.84668 87.957 2.58887C87.6992 2.33105 87.2767 2.20215 86.6895 2.20215H80.5771V7.04688Z" fill="white"/>
</svg>
