<svg width="43" height="38" viewBox="0 0 43 38" fill="none" xmlns="http://www.w3.org/2000/svg">
<g clip-path="url(#clip0_1_70)">
<path fill-rule="evenodd" clip-rule="evenodd" d="M2.89397 0H40.1025C41.6982 0 42.9965 1.31059 42.9965 2.90578V31.9319C42.9965 33.5307 41.6913 34.8377 40.1025 34.8377H37.0336C37.4745 33.9628 37.842 33.0458 38.1324 32.0971H39.7806C40.0046 32.0971 40.197 32.0092 40.3475 31.8617C40.498 31.7106 40.582 31.5138 40.582 31.2925V7.2381H40.596H2.53004V31.296C2.53004 31.5208 2.61752 31.7141 2.76449 31.8652C2.91496 32.0163 3.11093 32.1006 3.33139 32.1006H4.8676C5.15805 33.0528 5.52548 33.9663 5.9664 34.8412H2.89397C1.30526 34.8412 7.01985e-06 33.5307 7.01985e-06 31.9355V2.90578C-0.00349233 1.31059 1.30176 0 2.89397 0ZM20.7057 26.0923L26.868 22.15C26.924 22.1078 26.994 22.0938 27.057 22.0973C27.1235 22.1043 27.1899 22.1359 27.2389 22.1851L27.8338 22.8246C27.8828 22.8773 27.9073 22.9441 27.9108 23.0143C27.9143 23.0811 27.8898 23.1514 27.8443 23.2076C26.2591 24.9995 24.7544 26.9074 23.1552 28.6783C22.8228 29.0367 22.4728 29.2616 22.1334 29.381C21.7415 29.5181 21.36 29.5075 21.0206 29.3986C20.8631 29.3459 20.7162 29.2756 20.5832 29.1843C20.4467 29.0929 20.3242 28.9805 20.2157 28.8575L20.2122 28.854C20.1073 28.731 20.0198 28.5975 19.9498 28.4499C19.8798 28.3059 19.8273 28.1478 19.7993 27.9896V27.9826C19.7398 27.6453 19.7748 27.2834 19.9393 26.9426C20.0828 26.6369 20.3242 26.3488 20.6847 26.1063L20.7057 26.0923ZM12.2757 37.9192C11.9433 37.6065 11.6283 37.2762 11.3274 36.9283C11.0265 36.5805 10.743 36.2151 10.4806 35.8391C10.2181 35.4632 9.97315 35.0767 9.75269 34.6761C9.53223 34.2791 9.32927 33.8644 9.14381 33.4393C8.96534 33.0247 8.80437 32.596 8.6679 32.1568C8.53142 31.7211 8.41594 31.2784 8.32146 30.8252V30.8181C8.23048 30.3719 8.16049 29.9221 8.115 29.4619C8.06951 29.0086 8.04501 28.5483 8.04501 28.0915C8.04501 27.192 8.13249 26.3101 8.30046 25.4563C8.47193 24.5814 8.73088 23.7346 9.06332 22.9265C9.40276 22.1043 9.82268 21.3208 10.3091 20.5899C10.799 19.8521 11.3624 19.1669 11.9853 18.5415C12.6082 17.916 13.2905 17.3503 14.0289 16.8549C14.7568 16.3665 15.5336 15.9484 16.3525 15.6076C17.1573 15.2738 18.0007 15.0138 18.872 14.8416C19.7223 14.673 20.6007 14.5851 21.4965 14.5851C22.3923 14.5851 23.2672 14.673 24.114 14.8416C24.9854 15.0138 25.8252 15.2738 26.6266 15.6076C27.4454 15.9484 28.2223 16.3665 28.9466 16.8584C29.685 17.3539 30.3709 17.9231 30.9937 18.5485C31.6166 19.1739 32.18 19.8626 32.6769 20.604C33.1668 21.3348 33.5833 22.1184 33.9262 22.9405C34.2621 23.7487 34.5211 24.5955 34.6926 25.4669C34.8605 26.3172 34.9515 27.1956 34.9515 28.0951C34.9515 28.5343 34.9305 28.9699 34.8885 29.4056C34.8465 29.8484 34.78 30.2805 34.6996 30.7022C34.6156 31.1273 34.5106 31.5525 34.3846 31.9706C34.2586 32.3922 34.1082 32.8068 33.9437 33.2109C33.7757 33.6185 33.5868 34.0155 33.3803 34.4055C33.1738 34.792 32.9499 35.168 32.7084 35.5299C32.467 35.8953 32.2045 36.2467 31.9281 36.5875C31.6516 36.9283 31.3542 37.2586 31.0427 37.5748C30.9867 37.6311 30.9133 37.6592 30.8398 37.6592C30.7663 37.6592 30.6928 37.6311 30.6368 37.5748L29.9964 36.9319C29.9754 36.9178 29.9579 36.9037 29.9404 36.8862L28.0893 35.031C28.0333 34.9748 28.0053 34.901 28.0053 34.8272C28.0053 34.7534 28.0333 34.6796 28.0893 34.6234L29.0586 33.6501C29.1146 33.5939 29.1881 33.5658 29.2616 33.5658C29.3351 33.5658 29.4085 33.5939 29.4645 33.6501L30.7453 34.9361C30.8503 34.7956 30.9517 34.648 31.0532 34.4969C31.1897 34.2931 31.3192 34.0858 31.4417 33.882C31.5711 33.6607 31.6971 33.4288 31.8126 33.1933C31.9316 32.9544 32.04 32.712 32.1415 32.466L32.145 32.459C32.2815 32.1252 32.404 31.7844 32.509 31.44C32.6139 31.0992 32.7014 30.7479 32.7714 30.3965C32.8379 30.0662 32.8939 29.7254 32.9289 29.381C32.9604 29.0964 32.9814 28.8083 32.9919 28.5237H31.2072C31.1302 28.5237 31.0567 28.4921 31.0042 28.4394C30.9517 28.3867 30.9203 28.3164 30.9203 28.2356V26.8583C30.9203 26.7774 30.9517 26.7072 31.0042 26.6545C31.0567 26.6018 31.1267 26.5701 31.2072 26.5701H32.8974C32.8239 26.022 32.7119 25.4879 32.5649 24.9644C32.3935 24.3636 32.1765 23.7838 31.9211 23.2322C31.6586 22.67 31.3507 22.1289 31.0007 21.6194C30.6858 21.1556 30.3359 20.7129 29.9579 20.2983L28.8241 21.4367C28.7717 21.4718 28.6947 21.5035 28.6247 21.5035C28.5512 21.5035 28.4777 21.4754 28.4217 21.4191L27.4349 20.4283C27.3894 20.3756 27.3649 20.3088 27.3649 20.2421C27.3649 20.1683 27.3929 20.0945 27.4489 20.0383L28.5267 18.9561C28.0998 18.6223 27.6449 18.3166 27.1725 18.046C26.6476 17.7439 26.0947 17.4839 25.5243 17.266L25.5173 17.2625C24.9539 17.0517 24.373 16.883 23.7746 16.7601C23.2462 16.6546 22.7038 16.5809 22.1509 16.5528V18.1058C22.1509 18.1831 22.1194 18.2569 22.0669 18.3096C22.0144 18.3623 21.9444 18.3939 21.8639 18.3939H20.4887C20.4117 18.3939 20.3382 18.3623 20.2857 18.3096C20.2332 18.2569 20.2017 18.1866 20.2017 18.1058V16.6055C19.6593 16.6652 19.1239 16.7671 18.606 16.9006C18.0112 17.0552 17.4338 17.259 16.8809 17.5014C16.321 17.7474 15.7821 18.039 15.2712 18.3693C14.8093 18.668 14.3683 19.0018 13.9554 19.3601L15.0892 20.4986C15.1452 20.5548 15.1732 20.6286 15.1732 20.7024C15.1732 20.7761 15.1452 20.8499 15.0892 20.9061L14.1024 21.897C14.0499 21.9427 13.9834 21.9673 13.9169 21.9673C13.8434 21.9673 13.7699 21.9392 13.714 21.8829L12.6012 20.7656C12.2512 21.1943 11.9293 21.651 11.6423 22.1289C11.3239 22.6559 11.0475 23.2111 10.82 23.7908L10.8165 23.7979C10.5925 24.3671 10.4106 24.9609 10.2741 25.5687C10.1551 26.1028 10.0746 26.6545 10.0326 27.2131H11.7928C11.8698 27.2131 11.9433 27.2448 11.9958 27.2975C12.0483 27.3502 12.0798 27.4204 12.0798 27.5012V28.8821C12.0798 28.9594 12.0483 29.0332 11.9958 29.0859C11.9433 29.1386 11.8733 29.1702 11.7928 29.1702H10.0431C10.0676 29.4197 10.0956 29.6656 10.1341 29.9046C10.1831 30.2103 10.2426 30.5089 10.3126 30.8076V30.8146C10.3861 31.1273 10.4771 31.44 10.5785 31.7457C10.6835 32.062 10.799 32.3676 10.9285 32.6663C11.037 32.9193 11.1559 33.1723 11.2889 33.4252L11.2959 33.4393C11.4254 33.6852 11.5619 33.9242 11.7053 34.1596C11.8383 34.3774 11.9853 34.5988 12.1427 34.8166L12.1497 34.8272C12.2617 34.9818 12.3737 35.1329 12.4927 35.2804L13.9169 33.8504C13.9729 33.7942 14.0464 33.7661 14.1199 33.7661C14.1934 33.7661 14.2669 33.7942 14.3228 33.8504L15.3097 34.8412C15.3552 34.8939 15.3796 34.9607 15.3796 35.0275C15.3796 35.1012 15.3517 35.175 15.2957 35.2313L15.2852 35.2418C14.8407 35.688 14.4068 36.1237 13.9764 36.5629C13.546 37.0021 13.1191 37.4484 12.6851 37.9086L12.6816 37.9122C12.6292 37.9684 12.5592 37.9965 12.4857 38C12.4157 38.0035 12.3422 37.9789 12.2862 37.9262L12.2757 37.9192ZM37.3451 2.35414C38.1359 2.35414 38.7763 2.99713 38.7763 3.79122C38.7763 4.5853 38.1359 5.22829 37.3451 5.22829C36.5542 5.22829 35.9138 4.5853 35.9138 3.79122C35.9138 2.99713 36.5542 2.35414 37.3451 2.35414ZM27.6484 2.35414C28.4392 2.35414 29.0796 2.99713 29.0796 3.79122C29.0796 4.5853 28.4392 5.22829 27.6484 5.22829C26.8575 5.22829 26.2171 4.5853 26.2171 3.79122C26.2136 2.99713 26.854 2.35414 27.6484 2.35414ZM32.495 2.35414C33.2858 2.35414 33.9262 2.99713 33.9262 3.79122C33.9262 4.5853 33.2858 5.22829 32.495 5.22829C31.7041 5.22829 31.0637 4.5853 31.0637 3.79122C31.0637 2.99713 31.7041 2.35414 32.495 2.35414Z" fill="white"/>
</g>
<defs>
<clipPath id="clip0_1_70">
<rect width="43" height="38" fill="white"/>
</clipPath>
</defs>
</svg>
