<svg width="43" height="46" viewBox="0 0 43 46" fill="none" xmlns="http://www.w3.org/2000/svg">
<g clip-path="url(#clip0_1_78)">
<path fill-rule="evenodd" clip-rule="evenodd" d="M22.6693 0.913411C25.603 2.7041 28.7663 4.14535 32.0853 5.20345C34.548 6.0007 37.1581 6.32791 39.7597 6.16553L42.4587 5.93717L42.5914 8.46029C43.0861 17.7404 41.4772 25.8039 38.1026 32.1641C34.5912 38.7826 29.1933 43.563 22.263 45.9888H20.4611C13.6876 43.6865 8.33002 39.0371 4.77437 32.3363C1.45603 26.0472 -0.245379 17.9238 0.0281328 8.23568L0.100533 5.74626L2.75923 5.87354C5.65347 6.0483 8.55874 5.7712 11.3547 5.05371C14.3813 4.2309 17.2075 2.86931 19.6767 1.04443L21.1207 0L22.6693 0.913411ZM21.2896 7.22493C26.7317 10.4368 31.6469 11.9567 35.8662 11.6048C36.6023 25.4557 31.0999 36.0423 21.346 39.4601C11.9219 36.2594 6.35108 26.0397 6.76537 11.384C11.7167 11.6273 16.5796 10.6353 21.2896 7.22493ZM18.3052 23.0636C18.6806 23.3618 19.0353 23.6819 19.367 24.022C20.3698 22.5173 21.4811 21.0777 22.6934 19.7132C26.0077 15.9884 25.0183 16.2318 29.6157 16.2318L28.96 16.8906C27.234 18.6926 25.6479 20.6066 24.2138 22.6182C22.6195 24.7638 21.174 27.002 19.8859 29.319L19.4837 30.034L19.1176 29.3078C18.4675 27.9871 17.6448 26.7461 16.6681 25.613C15.7869 24.5768 14.7348 23.6771 13.5509 22.9476C14.1502 21.117 17.006 22.0566 18.285 23.0636H18.3052ZM21.2736 2.9611C28.2642 7.07894 34.5751 9.03304 39.9971 8.57633C40.9423 26.3916 33.8712 39.3366 21.346 43.7277C9.25111 39.6136 2.09556 27.1216 2.62649 8.30306C8.98564 8.61003 15.2281 7.3335 21.2736 2.9611Z" fill="white"/>
</g>
<defs>
<clipPath id="clip0_1_78">
<rect width="42.6799" height="46" fill="white"/>
</clipPath>
</defs>
</svg>
