<svg width="69" height="41" viewBox="0 0 69 41" fill="none" xmlns="http://www.w3.org/2000/svg">
<g opacity="0.8" clip-path="url(#clip0_1_631)">
<path fill-rule="evenodd" clip-rule="evenodd" d="M5.85669 34.7009V29.9822H26.1389C26.557 28.6121 27.3128 27.3678 28.3376 26.3623C29.3624 25.3568 30.6237 24.622 32.0068 24.2247V19.3273H1.60034C1.17681 19.3244 0.771467 19.1558 0.47198 18.8579C0.172493 18.5601 0.00294128 18.157 0 17.7358L0 1.56361C0.00243407 1.14392 0.172048 0.742299 0.47168 0.446745C0.699538 0.218194 0.990906 0.0626165 1.30835 0L67.686 0C68.0049 0.0596812 68.2984 0.213396 68.5283 0.44116C68.8279 0.736714 68.9976 1.13833 69 1.55802V17.7525C68.9976 18.1722 68.8279 18.5738 68.5283 18.8694C68.2298 19.1653 67.8268 19.3336 67.4053 19.3385H36.7461V24.2359C38.1269 24.6329 39.3862 25.3664 40.4099 26.3698C41.4336 27.3732 42.1893 28.6149 42.6084 29.9822H64.6819V34.7009H42.6758C42.1774 36.5091 41.0955 38.1044 39.5966 39.2415C38.0976 40.3786 36.2645 40.9945 34.3793 40.9945C32.494 40.9945 30.6609 40.3786 29.162 39.2415C27.663 38.1044 26.5811 36.5091 26.0828 34.7009H5.85669ZM56.5847 5.05938C57.5354 5.05938 58.4647 5.33974 59.2551 5.86499C60.0456 6.39024 60.6617 7.1368 61.0255 8.01026C61.3893 8.88372 61.4845 9.84486 61.299 10.7721C61.1135 11.6994 60.6557 12.5511 59.9835 13.2196C59.3113 13.8882 58.4548 14.3434 57.5224 14.5279C56.59 14.7123 55.6236 14.6177 54.7453 14.2559C53.867 13.8941 53.1163 13.2814 52.5881 12.4953C52.06 11.7092 51.7781 10.785 51.7781 9.83955C51.7796 8.57223 52.2865 7.35723 53.1876 6.4611C54.0886 5.56496 55.3104 5.06086 56.5847 5.05938ZM19.6533 4.46745H23.6626V14.8487H19.6533V4.46745ZM30.019 4.46745H34.0283V14.8487H30.019V4.46745ZM9.2876 4.46745H13.2913V14.8487H9.2876V4.46745ZM37.0999 29.7364C36.4701 29.107 35.6404 28.7143 34.7521 28.6253C33.8638 28.5363 32.9719 28.7564 32.2286 29.2482C31.4852 29.74 30.9364 30.4729 30.6757 31.3221C30.415 32.1713 30.4585 33.0841 30.7989 33.9049C31.1393 34.7258 31.7554 35.4038 32.5422 35.8234C33.329 36.243 34.2378 36.3782 35.1136 36.2059C35.9895 36.0337 36.7781 35.5646 37.3451 34.8788C37.9121 34.1929 38.2223 33.3327 38.2229 32.4448C38.2248 31.942 38.1265 31.4438 37.9337 30.979C37.741 30.5141 37.4576 30.0918 37.0999 29.7364Z" fill="white"/>
</g>
<defs>
<clipPath id="clip0_1_631">
<rect width="69" height="41" fill="white"/>
</clipPath>
</defs>
</svg>
