<svg width="76" height="62" viewBox="0 0 76 62" fill="none" xmlns="http://www.w3.org/2000/svg">
<g opacity="0.8">
<path fill-rule="evenodd" clip-rule="evenodd" d="M14.9318 1.47142C23.1781 1.47142 29.8637 8.20429 29.8637 16.5089C29.8637 24.8135 23.1781 31.5464 14.9318 31.5464C6.68557 31.5464 0 24.8135 0 16.5089C0 8.20429 6.68557 1.47142 14.9318 1.47142ZM40.4676 0C44.1923 0 47.7509 0.746858 50.9996 2.10123C54.37 3.50577 57.4029 5.56799 59.9432 8.12626C62.478 10.6789 64.5257 13.7333 65.9204 17.1387C67.2652 20.4104 68.0068 23.9942 68.0068 27.7396C68.0068 31.4906 67.2652 35.0744 65.9204 38.3461C64.5257 41.7404 62.478 44.7947 59.9377 47.353C57.4029 49.9057 54.37 51.9679 50.9885 53.3725C47.7398 54.7268 44.1812 55.4737 40.4621 55.4737C36.7374 55.4737 33.1788 54.7268 29.9301 53.3725C26.5596 51.9679 23.5268 49.9057 20.992 47.353L20.9865 47.3474C18.4462 44.7892 16.404 41.7349 15.0093 38.3461C14.5776 37.2927 14.2068 36.2114 13.9024 35.1023C14.478 35.158 15.0647 35.1859 15.6568 35.1859C16.7803 35.1859 17.8761 35.0856 18.9443 34.8905C19.1214 35.4256 19.3151 35.9551 19.5254 36.4734C20.671 39.2602 22.3535 41.7683 24.4455 43.8751C26.5375 45.9819 29.0335 47.6763 31.7952 48.83C34.4572 49.9391 37.3849 50.5578 40.4621 50.5578C43.5392 50.5578 46.4614 49.9447 49.129 48.83C51.8962 47.6763 54.3867 45.9819 56.4787 43.8751C58.5707 41.7683 60.2531 39.2546 61.3988 36.4734C62.5001 33.7925 63.1144 30.8441 63.1144 27.7452C63.1144 24.6463 62.5056 21.7035 61.3988 19.017C60.2531 16.2302 58.5707 13.7221 56.4787 11.6153C54.3867 9.5085 51.8906 7.81414 49.129 6.66041C46.4669 5.55127 43.5392 4.9326 40.4621 4.9326C37.3849 4.9326 34.4628 5.5457 31.7952 6.66041C31.5572 6.76073 31.3192 6.86663 31.0868 6.97253C30.1791 5.53455 29.0833 4.23034 27.827 3.0989C28.5133 2.74219 29.2162 2.41335 29.9301 2.11238C33.1899 0.746858 36.743 0 40.4676 0ZM37.3075 14.5526C37.3075 13.8726 37.5842 13.2595 38.0214 12.8136C38.4641 12.3677 39.0729 12.0946 39.7481 12.0946C40.4233 12.0946 41.0321 12.3677 41.4749 12.8136C41.9176 13.2595 42.1888 13.8726 42.1888 14.5526V27.4944L51.791 33.2296C52.3666 33.5751 52.754 34.1269 52.909 34.7345C53.0639 35.342 52.992 36.0108 52.6488 36.5905V36.596C52.3057 37.1757 51.7578 37.5658 51.1546 37.7219C50.5513 37.8779 49.8872 37.8055 49.3116 37.4599H49.3061L38.5638 31.0448C38.193 30.8385 37.8886 30.5376 37.6672 30.1809C37.4403 29.8074 37.3075 29.3671 37.3075 28.8989V14.5526ZM14.9318 7.64693L22.9457 17.6236H17.9702V22.9296H11.8934V17.6236H6.91801L14.9318 7.64693Z" fill="white"/>
</g>
</svg>
