<svg width="25" height="25" viewBox="0 0 25 25" fill="none" xmlns="http://www.w3.org/2000/svg">
<path d="M25 12.499V12.4927C25 8.79377 23.3896 5.4719 20.8323 3.18752L20.8198 3.17711C20.7882 3.14306 20.7529 3.11266 20.7146 3.08648L20.7125 3.08544C18.4412 1.0912 15.5204 -0.00586635 12.4979 2.35938e-05C9.33959 2.35938e-05 6.45625 1.17294 4.25834 3.10836L4.27188 3.0969C4.24539 3.11699 4.22096 3.13967 4.19896 3.16461V3.16565C2.87764 4.33564 1.82 5.77304 1.0961 7.38262C0.372214 8.9922 -0.00140301 10.7372 3.95903e-06 12.5021C3.95903e-06 16.2 1.60834 19.5219 4.16355 21.8073L4.17605 21.8177C4.20913 21.8553 4.24615 21.8891 4.28646 21.9188L4.28855 21.9198C6.55921 23.9111 9.4778 25.0066 12.4979 25.0011C15.5322 25.0057 18.4633 23.9001 20.7385 21.8927L20.725 21.9042C22.0692 20.7355 23.1467 19.2917 23.8847 17.6705C24.6226 16.0493 25.0036 14.2885 25.0021 12.5073V12.5L25 12.499ZM20.3521 20.6292C19.7329 20.1283 19.067 19.6881 18.3635 19.3146L18.2958 19.2813C18.9344 17.4406 19.3188 15.3188 19.3552 13.1115V13.0948H23.7938C23.6441 15.9504 22.415 18.6425 20.3552 20.6261L20.3521 20.6292ZM13.0958 19.0615C14.4323 19.1334 15.6813 19.4271 16.8333 19.9052L16.7583 19.8781C15.8354 21.9823 14.5365 23.4282 13.0958 23.7459V19.0615ZM13.0958 17.8698V13.0948H18.1667C18.1264 15.0722 17.7836 17.0317 17.15 18.9052L17.1906 18.7688C15.8974 18.2372 14.5219 17.9334 13.125 17.8709L13.0969 17.8698H13.0958ZM13.0958 11.9031V7.12815C14.5304 7.06268 15.9427 6.74864 17.2698 6.20002L17.1875 6.23023C17.7656 7.91669 18.1208 9.86044 18.1667 11.8813V11.9031H13.0958ZM13.0958 5.93648V1.25419C14.5365 1.5719 15.8354 3.01148 16.7583 5.1219C15.6813 5.56982 14.4323 5.86252 13.126 5.93544L13.0958 5.93648ZM16.0688 1.76982C17.2962 2.17923 18.4442 2.79654 19.4625 3.59482L19.4385 3.57607C18.9771 3.93857 18.4594 4.28023 17.9135 4.57711L17.8552 4.60627C17.4141 3.56536 16.8077 2.6026 16.0594 1.75523L16.0688 1.76669V1.76982ZM11.9021 1.25732V5.93648C10.6172 5.87093 9.35303 5.58555 8.16459 5.09273L8.23959 5.11981C9.16667 3.01565 10.4635 1.57086 11.9042 1.25315L11.9021 1.25732ZM7.14375 4.60315C6.57909 4.29935 6.04108 3.94846 5.53542 3.55419L5.56042 3.57294C6.5491 2.7981 7.66117 2.19523 8.85 1.78961L8.92917 1.76565C8.20044 2.59006 7.60665 3.52451 7.1698 4.5344L7.14375 4.60211V4.60315ZM11.9042 7.12711V11.9021H6.83334C6.87917 9.8594 7.23438 7.91565 7.85313 6.09273L7.8125 6.22919C9.10527 6.75989 10.48 7.06331 11.876 7.12606L11.9042 7.12711ZM11.9042 13.0938V17.8688C10.4696 17.9342 9.05733 18.2483 7.73021 18.7969L7.8125 18.7667C7.23438 17.0813 6.87917 15.1365 6.83334 13.1156V13.0938H11.9042ZM11.9042 19.0604V23.7427C10.4635 23.425 9.16459 21.9854 8.24167 19.875C9.31875 19.4271 10.5677 19.1354 11.874 19.0625L11.9042 19.0615V19.0604ZM8.93542 23.2271C7.70829 22.8189 6.56036 22.203 5.54167 21.4063L5.56667 21.425C6.02813 21.0625 6.54584 20.7209 7.09167 20.424L7.15 20.3948C7.58738 21.4362 8.19381 22.3981 8.9448 23.2417L8.93542 23.2313V23.2271ZM17.8563 20.3938C18.4604 20.7219 18.9781 21.0625 19.4646 21.4427L19.4396 21.424C18.4509 22.1988 17.3388 22.8017 16.15 23.2073L16.0708 23.2313C16.7996 22.4072 17.3934 21.4731 17.8302 20.4636L17.8563 20.3959V20.3938ZM23.7938 11.9031H19.3552C19.3233 9.74789 18.9513 7.61118 18.2531 5.5719L18.2958 5.71565C19.0317 5.32821 19.7283 4.87053 20.376 4.34898L20.351 4.36773C22.4065 6.3438 23.6361 9.0259 23.7917 11.8729L23.7927 11.9021L23.7938 11.9031ZM4.64792 4.36877C5.24792 4.85627 5.92188 5.30315 6.63646 5.68336L6.70417 5.71669C6.06563 7.55731 5.68125 9.67919 5.6448 11.8865V11.9031H1.20521C1.35489 9.04752 2.58401 6.35545 4.64375 4.3719L4.64688 4.36877H4.64792ZM1.20625 13.0948H5.6448C5.67673 15.2501 6.04867 17.3868 6.74688 19.4261L6.70417 19.2823C5.92188 19.6979 5.24896 20.1448 4.62396 20.649L4.64896 20.6302C2.59348 18.6542 1.36392 15.9721 1.20834 13.125L1.2073 13.0959L1.20625 13.0948Z" fill="white"/>
</svg>
