<svg width="8" height="9" viewBox="0 0 8 9" fill="none" xmlns="http://www.w3.org/2000/svg">
<path d="M3.85889 0.000644004C3.16656 -0.0107993 2.4802 0.130386 1.8486 0.414166C1.217 0.697945 0.655647 1.11735 0.204444 1.64259C0.141759 1.70068 0.0913669 1.77076 0.0562499 1.84867C0.021133 1.92659 0.0020057 2.01076 8.31267e-08 2.0962C-4.18382e-05 2.17503 0.0157725 2.25306 0.0465025 2.32565C0.0772324 2.39824 0.12225 2.46391 0.178877 2.51875C0.235503 2.57359 0.302582 2.61647 0.376121 2.64486C0.449661 2.67324 0.528159 2.68655 0.606944 2.68398C0.775723 2.67979 0.937111 2.61387 1.06056 2.4987C1.40202 2.09855 1.82612 1.77713 2.30368 1.55655C2.78123 1.33597 3.30091 1.22147 3.82694 1.22092C5.33472 1.22092 6.27389 2.19203 6.27389 3.39953V3.43148C6.27389 4.84342 5.14945 5.62926 3.37333 5.76342C3.30142 5.7662 3.23089 5.78413 3.16639 5.81605C3.10188 5.84797 3.04484 5.89315 2.999 5.94864C2.95316 6.00412 2.91956 6.06867 2.9004 6.13804C2.88123 6.20741 2.87693 6.28005 2.88778 6.3512C2.88778 6.3512 2.88778 7.83342 2.88778 8.10814C2.90367 8.26628 2.97793 8.41282 3.09607 8.51915C3.21421 8.62547 3.36773 8.68394 3.52667 8.68314H3.59694C3.75508 8.66725 3.90162 8.59299 4.00795 8.47485C4.11427 8.35671 4.17274 8.20319 4.17195 8.04426V6.72814C6.08861 6.45981 7.64111 5.45037 7.64111 3.35481V3.32287C7.62194 1.4062 6.12695 0.000644004 3.85889 0.000644004Z" fill="white"/>
</svg>
