<svg width="23" height="22" viewBox="0 0 23 22" fill="none" xmlns="http://www.w3.org/2000/svg">
<path d="M17.0694 21.5861C16.8545 21.5855 16.6403 21.5619 16.4305 21.5158C12.4353 20.6893 8.75463 18.7516 5.81215 15.9255C2.93247 13.0932 0.935256 9.48717 0.0621542 5.54357C-0.0407955 5.05207 -0.0155276 4.54236 0.135527 4.06346C0.286582 3.58456 0.558339 3.1526 0.924654 2.80912L3.48021 0.349398C3.61074 0.225957 3.76583 0.131428 3.93536 0.071981C4.1049 0.0125341 4.28506 -0.0104946 4.4641 0.00439789C4.64974 0.0237645 4.82888 0.0835647 4.98893 0.179593C5.14897 0.275622 5.28604 0.405546 5.39049 0.560231L8.58493 5.28162C8.70472 5.46482 8.76255 5.68163 8.7499 5.90015C8.73725 6.11867 8.65479 6.32736 8.51465 6.49551L6.91104 8.41218C7.54971 9.82569 8.45418 11.1032 9.57521 12.1752C10.689 13.2861 12.0054 14.1732 13.4533 14.7883L15.4402 13.2102C15.6071 13.0783 15.8102 13.0004 16.0224 12.9867C16.2347 12.973 16.4461 13.0242 16.6285 13.1336L21.4522 16.2513C21.6177 16.3502 21.7587 16.4852 21.8646 16.6463C21.9706 16.8073 22.0387 16.9903 22.0639 17.1814C22.0891 17.3726 22.0707 17.5669 22.0102 17.75C21.9496 17.933 21.8484 18.0999 21.7141 18.2383L19.2224 20.7044C18.9394 20.986 18.6035 21.2089 18.234 21.3602C17.8644 21.5116 17.4687 21.5883 17.0694 21.5861ZM4.36188 1.2694L1.80632 3.72912C1.60025 3.92114 1.4477 4.16349 1.36369 4.43233C1.27967 4.70118 1.26708 4.98727 1.32715 5.26245C2.139 8.96299 4.0052 12.3492 6.70021 15.0119C9.46928 17.6707 12.933 19.4933 16.6924 20.27C16.977 20.3294 17.2719 20.3174 17.5506 20.2349C17.8294 20.1524 18.0833 20.002 18.2897 19.7972L20.7813 17.3311L16.1238 14.3219L13.9899 16.0213C13.9082 16.086 13.812 16.1297 13.7095 16.1486C13.6071 16.1676 13.5016 16.1611 13.4022 16.13C11.6303 15.4771 10.0246 14.4409 8.69993 13.0952C7.32974 11.8157 6.26616 10.2432 5.58854 8.49523C5.55988 8.38941 5.55892 8.27799 5.58578 8.17169C5.61263 8.0654 5.66639 7.9678 5.74188 7.88829L7.46688 5.82468L4.36188 1.2694Z" fill="white"/>
</svg>
