<svg width="20" height="20" viewBox="0 0 20 20" fill="none" xmlns="http://www.w3.org/2000/svg">
<path d="M9.58333 0C4.29908 0 0 4.29908 0 9.58333V13.5537C0 14.535 0.859625 15.3333 1.91667 15.3333H2.875C3.12917 15.3333 3.37292 15.2324 3.55264 15.0526C3.73237 14.8729 3.83333 14.6292 3.83333 14.375V9.44629C3.83333 9.19213 3.73237 8.94837 3.55264 8.76865C3.37292 8.58892 3.12917 8.48796 2.875 8.48796H2.00483C2.53767 4.77921 5.72892 1.91667 9.58333 1.91667C13.4377 1.91667 16.629 4.77921 17.1618 8.48796H16.2917C16.0375 8.48796 15.7937 8.58892 15.614 8.76865C15.4343 8.94837 15.3333 9.19213 15.3333 9.44629V15.3333C15.3333 16.3904 14.4737 17.25 13.4167 17.25H11.5V16.2917H7.66667V19.1667H13.4167C15.5307 19.1667 17.25 17.4474 17.25 15.3333C18.307 15.3333 19.1667 14.535 19.1667 13.5537V9.58333C19.1667 4.29908 14.8676 0 9.58333 0Z" fill="white"/>
</svg>
