<svg width="79" height="59" viewBox="0 0 79 59" fill="none" xmlns="http://www.w3.org/2000/svg">
<g clip-path="url(#clip0_1_795)">
<path fill-rule="evenodd" clip-rule="evenodd" d="M60.2079 45.7276H53.0781C52.4781 46.5804 51.8352 47.4333 51.1494 48.2861C50.4358 49.156 49.6643 50.0259 48.8478 50.8958C48.0313 51.7657 47.2791 52.4949 46.4241 53.3008C45.7297 53.9618 45.0075 54.6142 44.2575 55.2581L44.8554 55.1494C45.2668 55.0662 45.6847 54.9703 46.1026 54.8616C46.5205 54.7528 46.9384 54.6441 47.3498 54.5162C47.7613 54.3882 48.1599 54.2539 48.5714 54.1068C48.9828 53.9597 49.375 53.7934 49.7672 53.6207C50.1593 53.448 50.5772 53.2689 50.9565 53.0834C51.3358 52.8979 51.728 52.6996 52.1073 52.4949C52.4866 52.2902 52.8595 52.0855 53.2196 51.8553C53.5796 51.625 53.946 51.4139 54.2868 51.2156C54.6275 51.0173 54.9683 50.7167 55.2897 50.4673C55.6112 50.2178 55.9326 49.9619 56.2733 49.6997C56.6141 49.4374 56.9162 49.1688 57.2184 48.8874C57.5206 48.6059 57.8613 48.3181 58.1313 48.0239C58.4014 47.7296 58.5878 47.5569 58.7742 47.3266C58.9607 47.0964 59.2114 46.8533 59.4171 46.6103C59.6229 46.3672 59.7515 46.2201 59.9122 46.0218L60.1501 45.7276H60.2079ZM10.2864 36.2993L6.86619 22.7007H11.778L13.3467 31.0159H13.4495L15.1918 22.7007H19.9621L21.7816 30.92H21.8587L23.3502 22.7007H28.2877L24.8739 36.2993H19.57L17.6413 29.0011H17.4998L15.5711 36.2993H10.2864ZM32.203 36.2993L28.7892 22.7007H33.701L35.2633 31.0159H35.3597L37.102 22.7007H41.8723L43.7174 30.92H43.8267L45.3183 22.7007H50.2108L46.7969 36.2993H41.493L39.5643 29.0011H39.4228L37.4941 36.2993H32.203ZM54.126 36.2993L50.7122 22.7007H55.624L57.1863 31.0159H57.2891L59.0378 22.7007H63.8082L65.6212 30.92H65.724L67.222 22.7007H72.1338L68.7135 36.2993H63.4096L61.4809 29.0011H61.3394L59.4107 36.2993H54.126ZM6.09471 14.1935H14.1439C14.3882 13.7969 14.6389 13.394 14.9025 13.0038C15.1661 12.6136 15.4297 12.2362 15.7125 11.8588C15.9954 11.4815 16.2783 11.1169 16.574 10.7523C16.8698 10.3877 17.1848 10.0295 17.5063 9.68408C17.8277 9.33868 18.1492 8.97409 18.5028 8.64148C18.8306 8.30247 19.1457 8.00184 19.5121 7.66923C19.8786 7.33662 20.2129 7.0296 20.5793 6.74816L21.698 5.88465C22.0837 5.60321 22.4695 5.33456 22.8488 5.0851C23.2281 4.83565 23.646 4.5606 24.051 4.31754C24.456 4.07448 24.8739 3.83781 25.3368 3.60755C25.7997 3.37728 26.179 3.1662 26.6226 2.96791C27.0662 2.76962 27.5034 2.55854 27.9406 2.37305C28.397 2.17476 28.8535 1.99566 29.3035 1.83575C29.7536 1.67585 30.2165 1.45197 30.7051 1.27927C31.1937 1.10657 31.6437 1.00423 32.113 0.882697C32.5823 0.761167 33.0517 0.658825 33.5403 0.556483C34.0739 0.486123 34.5239 0.402971 35.0061 0.326214C35.4883 0.249458 36.0026 0.198287 36.4719 0.147116C36.9412 0.0959454 37.4748 0.0639636 37.9763 0.0383781C38.4778 0.0127927 38.9985 0 39.5 0C40.5029 0 41.5187 0.0511709 42.5152 0.147116C43.0167 0.198287 43.5117 0.255854 43.9939 0.326214C44.4761 0.396574 44.9647 0.486123 45.4533 0.582069C45.9419 0.678014 46.3983 0.780356 46.8677 0.901886C47.337 1.02342 47.7999 1.14495 48.2628 1.28567C48.7257 1.42639 49.1821 1.5863 49.6257 1.74621C50.0693 1.90611 50.5194 2.08521 50.963 2.27071L51.098 2.33467C51.5223 2.51377 51.9402 2.70566 52.3838 2.91034C52.8274 3.11503 53.2453 3.3389 53.6696 3.54998C54.0875 3.78025 54.5054 4.01691 54.9104 4.25997C55.3218 4.50943 55.7269 4.76529 56.1255 5.02114C56.5241 5.27699 56.8905 5.54564 57.2634 5.82069C57.6363 6.09573 58.0156 6.38996 58.3821 6.68419C58.7485 6.97843 59.1085 7.29185 59.4621 7.61167C59.8157 7.93148 60.1693 8.2513 60.5037 8.5967C60.8315 8.92292 61.1466 9.23634 61.4744 9.60093C61.8023 9.96552 62.1173 10.2981 62.4002 10.6627C62.6831 11.0273 62.9853 11.3919 63.2681 11.7757C63.551 12.1595 63.821 12.5433 64.0846 12.9334C64.3482 13.33 64.6054 13.7266 64.8433 14.1168H72.9053C74.5212 14.1185 76.0704 14.7579 77.213 15.8947C78.3556 17.0315 78.9983 18.5728 79 20.1805V38.666C78.994 40.269 78.3516 41.8048 77.2127 42.9387C76.0761 44.0727 74.5341 44.7121 72.9246 44.7169H64.8625C64.6182 45.1199 64.3675 45.5165 64.1039 45.9131C63.8403 46.3096 63.5767 46.6806 63.2938 47.058C63.011 47.4354 62.7281 47.8 62.4324 48.1582C62.1238 48.5292 61.7895 48.8874 61.5002 49.2328C61.1787 49.5846 60.8572 49.93 60.5229 50.2562C60.1972 50.5888 59.8629 50.9086 59.52 51.2156C59.1728 51.5291 58.8192 51.8553 58.4528 52.1367C58.0863 52.4182 57.7134 52.7188 57.3341 53.0002C56.9548 53.2817 56.5627 53.5503 56.1705 53.8126C55.7783 54.0748 55.3797 54.3307 54.9747 54.5737C54.5696 54.8168 54.1453 55.0534 53.6889 55.2837C53.2324 55.514 52.8402 55.7315 52.4031 55.9234C51.9659 56.1152 51.5223 56.3327 51.1173 56.5246C50.7122 56.7165 50.2108 56.8956 49.7479 57.0683C49.285 57.241 48.8221 57.3881 48.3528 57.5352C47.8834 57.6824 47.4141 57.8103 46.9512 57.9318C46.4883 58.0533 45.9997 58.1557 45.5111 58.258C45.0225 58.3604 44.5404 58.4435 44.0582 58.5139C43.576 58.5842 43.081 58.6418 42.5795 58.693C41.5766 58.7889 40.5672 58.8401 39.5514 58.8401C39.05 58.8401 38.5421 58.8401 38.0342 58.8017C37.5263 58.7633 37.0377 58.7441 36.5362 58.693C36.0347 58.6418 35.5397 58.5842 35.0575 58.5139C34.5753 58.4435 34.0932 58.354 33.5981 58.258C33.1031 58.1621 32.6016 58.2069 32.1452 58.1045C31.6887 58.0022 31.213 57.8551 30.7501 57.7143C30.2872 57.5736 29.8371 57.4201 29.3935 57.2602C28.9499 57.1003 28.487 56.9148 28.0434 56.7229L27.9149 56.6653C27.4905 56.4862 27.0662 56.2943 26.6291 56.0833C26.1919 55.8722 25.7804 55.6675 25.3432 55.4436C24.9061 55.2198 24.5075 54.9831 24.1024 54.7336C23.6974 54.4842 23.2667 54.2219 22.8681 53.9597C22.4695 53.6974 22.0966 53.4352 21.7173 53.1601C21.338 52.8851 20.9715 52.5972 20.605 52.2966C20.2386 51.996 19.8786 51.657 19.525 51.3628C19.1714 51.0685 18.8113 50.7231 18.4835 50.3841C18.1492 50.0579 17.8406 49.7445 17.5127 49.3799C17.1848 49.0153 16.8698 48.6827 16.5869 48.3181C16.304 47.9535 16.0019 47.5825 15.719 47.2051C15.4361 46.8277 15.1661 46.4376 14.9089 46.0474C14.6518 45.6572 14.401 45.2414 14.1439 44.8385H6.09471C4.47429 44.8334 2.92217 44.1885 1.77937 43.0455C0.636567 41.9025 -0.00343281 40.3549 -1.69137e-05 38.7427V20.2573C0.00168493 18.6496 0.644353 17.1082 1.78697 15.9714C2.92958 14.8346 4.47881 14.1952 6.09471 14.1935ZM34.7682 55.2453C34.016 54.6057 33.296 53.9661 32.6016 53.2881C31.7444 52.4906 30.9387 51.6911 30.1843 50.8894C29.3678 50.0195 28.5963 49.1496 27.8827 48.2797C27.1691 47.4098 26.539 46.5847 25.954 45.7212H18.8306L19.0621 46.0154L19.5635 46.6039C19.9814 47.0836 20.425 47.5569 20.8493 48.0111C21.1451 48.3053 21.4473 48.5931 21.7558 48.8682C22.0644 49.1432 22.3988 49.4247 22.7009 49.6805C23.0031 49.9364 23.3438 50.1986 23.6846 50.4481C24.0253 50.6975 24.366 50.9342 24.7132 51.1709C25.0604 51.4075 25.414 51.625 25.7869 51.8489C26.1597 52.0727 26.5133 52.2774 26.8798 52.4885C27.2462 52.6996 27.6513 52.8979 28.0434 53.077C28.4356 53.2561 28.8278 53.4416 29.2328 53.6143L29.3164 53.6654C29.7086 53.8253 30.0943 53.9789 30.4865 54.1196C30.8786 54.2603 31.2772 54.3946 31.6887 54.5225C32.0873 54.6505 32.4988 54.7656 32.9102 54.868C33.3217 54.9703 33.746 55.0662 34.1639 55.143L34.7168 55.2453H34.7682ZM18.7985 13.2724H26.359C26.9548 12.4196 27.5977 11.5774 28.2877 10.7459C28.9778 9.91435 29.7278 9.04445 30.5379 8.13617C31.2772 7.33023 32.068 6.51789 32.8974 5.69915C33.5788 5.05952 34.2925 4.35592 35.0254 3.6843L34.7168 3.74187L34.1896 3.83781C33.7781 3.92097 33.3538 4.01691 32.9038 4.12565C32.4538 4.23439 32.068 4.34952 31.663 4.47105C31.258 4.59258 30.8465 4.7397 30.435 4.88682C30.0236 5.03393 29.6314 5.19384 29.2392 5.36654C28.8471 5.53925 28.4292 5.72474 28.0434 5.91023C27.6577 6.09573 27.272 6.28762 26.8926 6.4923C26.5133 6.69699 26.1404 6.90807 25.774 7.13194C25.4075 7.35581 25.0604 7.57329 24.7196 7.77157C24.3789 7.96986 24.0189 8.2449 23.6846 8.49436C23.3502 8.74382 23.0417 8.99328 22.7009 9.25553C22.3602 9.51778 22.058 9.78643 21.7558 10.0743C21.4537 10.3621 21.1129 10.6371 20.8429 10.9378C20.6179 11.1616 20.3929 11.3919 20.2 11.6222C20.0071 11.8525 19.7628 12.0955 19.5571 12.3322L19.0556 12.927L18.8113 13.2341L18.7985 13.2724ZM43.9939 3.70989C44.7332 4.34952 45.4468 5.04673 46.1219 5.71834C46.9512 6.52428 47.7292 7.33023 48.4685 8.13617C49.2078 8.94211 50.0179 9.87598 50.7187 10.7459C51.4194 11.6158 52.0045 12.4281 52.6474 13.2724H60.1886L59.9508 12.9782C59.79 12.7799 59.6229 12.5816 59.4557 12.3897C59.2886 12.1979 59.0314 11.9164 58.8128 11.6797C58.5942 11.4431 58.3756 11.2192 58.1313 10.9825C57.887 10.7459 57.4884 10.3877 57.2184 10.1126C56.9484 9.8376 56.5755 9.55616 56.2733 9.3003C55.9712 9.04445 55.6304 8.7822 55.2897 8.53274C54.949 8.28328 54.6082 8.04662 54.2611 7.80995C53.9139 7.57329 53.5603 7.35581 53.1938 7.13833C52.8274 6.92086 52.4609 6.70978 52.088 6.4987C51.7152 6.28762 51.3294 6.09573 50.9437 5.91663C50.5579 5.73753 50.1465 5.56483 49.7414 5.38573L49.6579 5.33456C49.2657 5.17465 48.8735 5.02754 48.4878 4.88042C48.102 4.7333 47.6906 4.60538 47.2856 4.47745C46.8805 4.35592 46.4755 4.24079 46.064 4.13205C45.6526 4.02331 45.2283 3.94016 44.7782 3.857L44.2446 3.75466L43.9682 3.70989H43.9939ZM41.1458 5.64159V13.2724H48.4942C48.0377 12.6968 47.562 12.1211 47.0605 11.5454C46.4776 10.8674 45.8583 10.1894 45.2025 9.51138C44.5468 8.83337 43.8546 8.14256 43.126 7.43896C42.4831 6.8441 41.8402 6.24284 41.1973 5.64159H41.1458ZM41.1458 45.7276V53.4991C41.8659 52.8979 42.5645 52.2902 43.2417 51.6762C44.0046 50.9768 44.7354 50.2796 45.434 49.5846C46.1219 48.8874 46.7777 48.1966 47.3948 47.4994C47.922 46.9109 48.4235 46.3224 48.8992 45.7276H41.1458ZM37.8027 53.4991V45.7276H30.075C30.5508 46.3224 31.0458 46.9173 31.573 47.5057C32.2159 48.1966 32.8588 48.8874 33.5017 49.5782C34.1446 50.269 34.9289 50.9726 35.7004 51.6762C36.3433 52.2838 37.0762 52.8915 37.8027 53.4991ZM37.8027 13.2724V5.64159C37.1277 6.24284 36.4783 6.83771 35.874 7.43257C35.1411 8.1319 34.4468 8.82484 33.791 9.51138C33.1481 10.1894 32.5052 10.8674 31.933 11.5454C31.4315 12.1211 30.9558 12.6968 30.5058 13.2724H37.8027ZM6.09471 16.8928H72.9053C73.8011 16.8961 74.6593 17.2517 75.2927 17.8819C75.9262 18.5122 76.2836 19.366 76.2869 20.2573V38.7427C76.2836 39.634 75.9262 40.4878 75.2927 41.1181C74.6593 41.7483 73.8011 42.1039 72.9053 42.1072H6.09471C5.19888 42.1039 4.3407 41.7483 3.70725 41.1181C3.07379 40.4878 2.71642 39.634 2.71304 38.7427V20.2573C2.71642 19.366 3.07379 18.5122 3.70725 17.8819C4.3407 17.2517 5.19888 16.8961 6.09471 16.8928Z" fill="white"/>
</g>
<defs>
<clipPath id="clip0_1_795">
<rect width="79" height="59" fill="white"/>
</clipPath>
</defs>
</svg>
